<svg xmlns="http://www.w3.org/2000/svg" viewBox="0 0 472.1438 116.306">
  <title>birdsnest-logotype-reverse-rgb</title>
  <g id="white-rgb">
    <g id="type">
      <path id="type_CompoundPathItem_" data-name="type &lt;CompoundPathItem&gt;" d="M52.3941,44.9444c0-5.5605-3.3354-11.9543-9.82-13.7149a.4545.4545,0,0,1-.0945-.8346c5.4678-2.6866,7.9686-8.8959,7.9686-13.066C50.448,6.7653,42.3882,0,30.0637,0H1.3363a1.42,1.42,0,0,0-1.02,2.3164C2.2625,4.6347,2.9114,7.877,2.9114,11.77V53.0988c0,3.8912-.6489,7.1353-2.595,9.4516a1.42,1.42,0,0,0,1.02,2.3166H31.4531C43.4056,64.867,52.3941,57.0829,52.3941,44.9444ZM16.8105,13.4377a1.4257,1.4257,0,0,1,1.3923-1.3906h10.006c3.9843,0,7.6,2.4095,7.6,7.2284,0,4.7258-3.6153,7.1353-7.6,7.1353H18.2028A1.4256,1.4256,0,0,1,16.8105,25.02ZM18.2028,52.82a1.4253,1.4253,0,0,1-1.3923-1.3889V39.198a1.4253,1.4253,0,0,1,1.3923-1.3889H29.601c3.9844,0,8.1545,2.2235,8.1545,7.5053S33.5854,52.82,29.601,52.82Z" style="fill: #fff"/>
      <path id="type_PathItem_" data-name="type &lt;PathItem&gt;" d="M63.6641,62.6587a1.64,1.64,0,0,0-.1925,1.7471,1.5418,1.5418,0,0,0,1.3855.8937h14.26a1.5413,1.5413,0,0,0,1.3855-.8953,1.6389,1.6389,0,0,0-.1959-1.7455l-.0067-.0084c-1.4126-1.6812-2.0682-4.1059-2.0682-7.6271v-34.57c0-3.5229.6556-5.9476,2.0749-7.6373a1.6354,1.6354,0,0,0,.1959-1.7437,1.54,1.54,0,0,0-1.3855-.897h-14.26a1.5406,1.5406,0,0,0-1.3855.8953,1.6417,1.6417,0,0,0,.1992,1.7539c1.4126,1.6812,2.0716,4.1059,2.0716,7.6288v34.57C65.7424,58.5461,65.0834,60.9691,63.6641,62.6587Z" style="fill: #fff"/>
      <path id="type_CompoundPathItem_2" data-name="type &lt;CompoundPathItem&gt;" d="M142.6924,62.6081c-4.0079-1.7066-6.3091-5.7331-8.5331-9.6278-2.264-3.9655-4.6023-8.063-8.8033-9.5565,8.5636-.8735,13.1828-8.8284,13.1828-15.9181,0-10.0417-7.1911-17.3306-17.0991-17.3306H94.7771a1.5416,1.5416,0,0,0-1.3855.8953,1.6416,1.6416,0,0,0,.2,1.7539c1.4125,1.6812,2.0715,4.1059,2.0715,7.6288v34.57c0,3.5229-.659,5.9459-2.0783,7.6355a1.64,1.64,0,0,0-.1929,1.7471,1.5428,1.5428,0,0,0,1.3855.8937h14.26a1.54,1.54,0,0,0,1.3856-.8953A1.6408,1.6408,0,0,0,110.22,62.65c-1.4125-1.6812-2.0676-4.1059-2.0676-7.6271V45.4109a.7586.7586,0,0,1,.7294-.73h2.7136c3.0012,0,5.0047,3.81,7.3228,8.2234,3.3393,6.3513,7.492,14.2554,16.7073,14.2554a16.0658,16.0658,0,0,0,7.2315-1.7438l.0309-.0152a1.495,1.495,0,0,0,.7-1.4328A1.5221,1.5221,0,0,0,142.6924,62.6081ZM119.3479,34.4367H108.8822a.7587.7587,0,0,1-.7294-.73v-11.86a.7586.7586,0,0,1,.7294-.73h10.4657a6.8334,6.8334,0,0,1,6.62,6.6994A6.6281,6.6281,0,0,1,119.3479,34.4367Z" style="fill: #fff"/>
      <path id="type_CompoundPathItem_3" data-name="type &lt;CompoundPathItem&gt;" d="M175.7752,10.1751H153.7626a1.5407,1.5407,0,0,0-1.3855.8953,1.6415,1.6415,0,0,0,.1993,1.7539c1.4125,1.6812,2.0715,4.1059,2.0715,7.6288v34.57c0,3.5229-.659,5.9459-2.0783,7.6355a1.64,1.64,0,0,0-.1925,1.7471,1.5419,1.5419,0,0,0,1.3855.8937h22.0126a27.564,27.564,0,0,0,0-55.1244Zm-.8515,43.7954h-7.0559a.7591.7591,0,0,1-.73-.73V22.2357a.7591.7591,0,0,1,.73-.73h7.0559c8.7121,0,15.5346,7.13,15.5346,16.2323S183.6358,53.9705,174.9237,53.9705Z" style="fill: #fff"/>
      <path id="type_PathItem_2" data-name="type &lt;PathItem&gt;" d="M241.6242,34.5549c-.9021-.4156-1.8149-.8245-2.7373-1.237-2.1525-.9612-4.3794-1.9564-6.5455-3.0969-5.738-2.9486-5.738-4.6855-5.738-5.4273,0-3.3909,4.4065-4.2967,7.0087-4.2967,5.3424,0,11.3206,4.05,14.46,8.0411a1.46,1.46,0,0,0,1.277.5625,1.6889,1.6889,0,0,0,1.2437-.5423,1.3946,1.3946,0,0,0,.3517-1.09l-1.1627-13.4056c-.1013-1.3163-.7-2.1036-1.5949-2.1036a3.1374,3.1374,0,0,0-1.426.39,2.3494,2.3494,0,0,1-1.0541.3058,8.8387,8.8387,0,0,1-2.058-.7265,25.4272,25.4272,0,0,0-10.0364-2.45c-12.257,0-19.5768,5.8984-19.5768,15.78,0,10.5094,8.81,14.3584,16.5824,17.7547l1.0744.4477c3.2037,1.31,9.1612,3.746,9.1612,6.9884,0,3.2221-3.0547,5.3038-7.7825,5.3038-5.7543,0-12.8209-4.4-13.7568-10.7055a1.6942,1.6942,0,0,0-1.7473-1.3872,1.7514,1.7514,0,0,0-.9832.2094,8.9648,8.9648,0,0,0-4.41,8.0562c.0777,8.2389,8.7826,14.6915,19.8127,14.6915,14.1254,0,21.5934-5.8851,21.5934-17.02C253.58,41.7256,249.0043,38.0052,241.6242,34.5549Z" style="fill: #fff"/>
      <path id="type_PathItem_3" data-name="type &lt;PathItem&gt;" d="M314.2851,20.4531c0-3.5229.659-5.9476,2.0715-7.6288l.0067-.0085a1.6376,1.6376,0,0,0,.193-1.7454,1.541,1.541,0,0,0-1.3855-.8953H300.91a1.5406,1.5406,0,0,0-1.3855.8953,1.6492,1.6492,0,0,0,.1992,1.7539c1.4126,1.6812,2.0716,4.1059,2.0716,7.6288V39.676c0,.0712-.0372.1083-.1284.0712L269.6656,9.8354a1.6394,1.6394,0,0,0-2.7508,1.1607V55.0232c0,3.5212-.6561,5.9459-2.0754,7.6355a1.6391,1.6391,0,0,0-.1958,1.7455,1.5416,1.5416,0,0,0,1.3855.8953h14.26a1.5414,1.5414,0,0,0,1.3855-.8937,1.6433,1.6433,0,0,0-.1993-1.7555c-1.4125-1.6779-2.0681-4.1025-2.0681-7.6271V35.4893c0-.0424.0743-.1032.2-.0728l32.0017,30.221a1.5771,1.5771,0,0,0,1.1592.4375,1.5589,1.5589,0,0,0,1.5168-1.5949Z" style="fill: #fff"/>
      <path id="type_PathItem_4" data-name="type &lt;PathItem&gt;" d="M367.2287,63.9275,368.854,53.79a1.4712,1.4712,0,0,0-.2971-1.2468,1.6744,1.6744,0,0,0-1.291-.5881,1.3314,1.3314,0,0,0-.8549.2265c-1.8689,1.22-4.2578,1.7893-7.5157,1.7893H344.7092a.7591.7591,0,0,1-.73-.73V43.2414a.7592.7592,0,0,1,.73-.73h9.9215c2.7981,0,4.8358.551,6.2045,1.656a1.3166,1.3166,0,0,0,.9291.3582,1.38,1.38,0,0,0,1.3619-1.3619V30.5283a1.38,1.38,0,0,0-1.3619-1.3616,1.2742,1.2742,0,0,0-.892.33c-1.4058,1.1353-3.4469,1.686-6.2416,1.686h-9.9215a.7594.7594,0,0,1-.73-.7316V22.2357a.7591.7591,0,0,1,.73-.73H357.5c3.2573,0,5.6468.5692,7.5152,1.7893a1.5114,1.5114,0,0,0,2.1188-.2958,1.5342,1.5342,0,0,0,.3247-1.2977l-1.6219-10.1393a1.5976,1.5976,0,0,0-1.5916-1.3872H330.604a1.5407,1.5407,0,0,0-1.3855.8953,1.6415,1.6415,0,0,0,.1993,1.7539c1.4125,1.6812,2.0715,4.1059,2.0715,7.6288v34.57c0,3.5229-.659,5.9459-2.0783,7.6355a1.64,1.64,0,0,0-.1925,1.7471,1.5419,1.5419,0,0,0,1.3855.8937h35.0332A1.5932,1.5932,0,0,0,367.2287,63.9275Z" style="fill: #fff"/>
      <path id="type_PathItem_5" data-name="type &lt;PathItem&gt;" d="M399.3018,55.7531c-5.7554,0-12.8214-4.4-13.7573-10.7055a1.6941,1.6941,0,0,0-1.7469-1.3872,1.753,1.753,0,0,0-.9837.2094,8.9647,8.9647,0,0,0-4.41,8.0562c.0777,8.2389,8.7825,14.6915,19.8127,14.6915,14.1254,0,21.5938-5.8851,21.5938-17.02,0-7.8722-4.5758-11.5926-11.9564-15.0429-.9021-.4156-1.8144-.8245-2.7373-1.237-2.1526-.9612-4.3794-1.9564-6.5455-3.0969-5.7346-2.9469-5.7346-4.6855-5.7346-5.4273,0-3.3909,4.4069-4.2967,7.0087-4.2967,5.339,0,11.3172,4.05,14.4568,8.0411a1.46,1.46,0,0,0,1.2774.5625,1.6893,1.6893,0,0,0,1.2432-.5423,1.3924,1.3924,0,0,0,.3517-1.09L416.012,14.0629c-.1013-1.3163-.7-2.1036-1.5949-2.1036a3.14,3.14,0,0,0-1.4261.39,2.351,2.351,0,0,1-1.0545.3058,8.8548,8.8548,0,0,1-2.0581-.7265,25.4193,25.4193,0,0,0-10.0329-2.45c-12.26,0-19.5792,5.8984-19.5792,15.78,0,10.5094,8.81,14.3584,16.5819,17.7547l1.0748.4477c3.2033,1.31,9.1612,3.746,9.1612,6.9884C407.0842,53.6714,404.029,55.7531,399.3018,55.7531Z" style="fill: #fff"/>
      <path id="type_PathItem_6" data-name="type &lt;PathItem&gt;" d="M470.1685,1.2046A1.3916,1.3916,0,0,0,468.78,0H424.8558a1.397,1.397,0,0,0-1.3923,1.2046l-1.9432,12.14a1.3978,1.3978,0,0,0,1.3889,1.6675,1.4808,1.4808,0,0,0,.74-.2769c2.41-1.5765,5.4673-2.2254,9.2659-2.2254h5.5623a1.4253,1.4253,0,0,1,1.3889,1.3906V53.0988c0,3.8912-.6488,7.1353-2.5954,9.4516a1.42,1.42,0,0,0,1.02,2.3166h17.0523A1.4183,1.4183,0,0,0,456.361,62.55c-1.9471-2.3163-2.5954-5.56-2.5954-9.4516V13.9006a1.4256,1.4256,0,0,1,1.3922-1.3906h5.5585c3.7987,0,6.8567.6489,9.2665,2.2254a1.4885,1.4885,0,0,0,.7429.2769,1.4,1.4,0,0,0,1.3894-1.6675Z" style="fill: #fff"/>
      <path id="type_PathItem_7" data-name="type &lt;PathItem&gt;" d="M146.6821,85.8708a.3274.3274,0,0,0-.3049.3049v29.8254a.3273.3273,0,0,0,.3049.3049h9.2625a.2984.2984,0,0,0,.3049-.3049v-2.8694a.2984.2984,0,0,0-.3049-.3049h-5.7852a.325.325,0,0,1-.301-.303V102.3061a.3269.3269,0,0,1,.301-.3049h5.133a.3257.3257,0,0,0,.3049-.3049V98.8268a.3254.3254,0,0,0-.3049-.3029h-5.133a.3269.3269,0,0,1-.301-.3049V89.6531a.325.325,0,0,1,.301-.303h5.7852a.2984.2984,0,0,0,.3049-.3049V86.1757a.2984.2984,0,0,0-.3049-.3049Z" style="fill: #fff"/>
      <path id="type_CompoundPathItem_4" data-name="type &lt;CompoundPathItem&gt;" d="M171.5675,85.8708h-4.2608a.2921.2921,0,0,0-.3049.2606l-4.35,29.8273a.3363.3363,0,0,0,.3049.3473h2.9138a.3726.3726,0,0,0,.3049-.26l.9571-6.6516a.3226.3226,0,0,1,.3049-.2625h3.9984a.3261.3261,0,0,1,.3049.2625l.9571,6.6516a.3726.3726,0,0,0,.3049.26H175.96a.3332.3332,0,0,0,.301-.3473l-4.3881-29.8273A.2921.2921,0,0,0,171.5675,85.8708Zm-.6523,20.0014h-2.9563a.3116.3116,0,0,1-.3048-.3493l1.563-12.13c.0463-.1737.0888-.218.22-.218s.1737.0443.2161.218l1.5669,12.13A.3116.3116,0,0,1,170.9152,105.8722Z" style="fill: #fff"/>
      <path id="type_PathItem_8" data-name="type &lt;PathItem&gt;" d="M180.93,85.8708a.33.33,0,0,0-.3049.3049v2.8695a.33.33,0,0,0,.3049.3049h3.5236a.2968.2968,0,0,1,.3049.303v26.348a.3273.3273,0,0,0,.3049.3049h2.8675a.2984.2984,0,0,0,.3049-.3049V89.6531a.3254.3254,0,0,1,.3049-.303h3.52a.2984.2984,0,0,0,.3049-.3049V86.1757a.2985.2985,0,0,0-.3049-.3049Z" style="fill: #fff"/>
      <path id="type_PathItem_9" data-name="type &lt;PathItem&gt;" d="M208.6679,86.0445a.6549.6549,0,0,0-.4786-.1737h-6.3449a.6606.6606,0,0,0-.4785.1737L199.32,88.0881a.6527.6527,0,0,0-.1737.4785v12.0008a.6528.6528,0,0,0,.1737.4786l1.6094,1.6074a.6527.6527,0,0,0,.4785.1737h5.3492a.3081.3081,0,0,1,.2585.1312l.2625.2605a.3851.3851,0,0,1,.1312.26v8.6972a.3849.3849,0,0,1-.1312.26l-.2625.2605a.3064.3064,0,0,1-.2585.1293h-3.4812a.3064.3064,0,0,1-.2586-.1293l-.2624-.2605a.385.385,0,0,1-.1313-.26v-4.35a.2936.2936,0,0,0-.301-.3029h-2.8714a.3254.3254,0,0,0-.3049.3029V113.61a.6527.6527,0,0,0,.1737.4785l2.0455,2.0436a.66.66,0,0,0,.4785.1736h6.3449a.6548.6548,0,0,0,.4786-.1736l2.0454-2.0436a.6523.6523,0,0,0,.1737-.4785V101.61a.6452.6452,0,0,0-.1737-.4767l-1.6093-1.6093a.6525.6525,0,0,0-.4786-.1737h-5.3491a.3082.3082,0,0,1-.2586-.1312l-.2624-.26a.3852.3852,0,0,1-.1313-.2606V90.0023a.3889.3889,0,0,1,.1313-.2624l.2624-.2605a.3062.3062,0,0,1,.2586-.1293h3.4812a.3061.3061,0,0,1,.2585.1293l.2625.2605a.3887.3887,0,0,1,.1312.2624V94.35a.325.325,0,0,0,.301.303h2.8714a.2968.2968,0,0,0,.3049-.303V88.5666a.6523.6523,0,0,0-.1737-.4785Z" style="fill: #fff"/>
      <path id="type_PathItem_10" data-name="type &lt;PathItem&gt;" d="M237.3162,97.5243a.3382.3382,0,0,0-.22-.0888h-1.91a.3378.3378,0,0,0-.22.0888l-2.389,2.3909a.3329.3329,0,0,0-.0887.2161v1.9143a.3331.3331,0,0,0,.0887.2161l2.389,2.3928a.3467.3467,0,0,0,.22.0869h1.91a.3472.3472,0,0,0,.22-.0869l2.3889-2.3928a.3146.3146,0,0,0,.0888-.2161v-1.9143a.3144.3144,0,0,0-.0888-.2161Z" style="fill: #fff"/>
      <path id="type_CompoundPathItem_5" data-name="type &lt;CompoundPathItem&gt;" d="M269.3569,85.8708h-4.2608a.2921.2921,0,0,0-.3049.2606l-4.3495,29.8273a.3362.3362,0,0,0,.3048.3473H263.66a.3728.3728,0,0,0,.3049-.26l.9571-6.6516a.3226.3226,0,0,1,.3049-.2625h3.9983a.326.326,0,0,1,.3049.2625l.9572,6.6516a.3725.3725,0,0,0,.3049.26h2.9563a.3332.3332,0,0,0,.301-.3473l-4.3881-29.8273A.2921.2921,0,0,0,269.3569,85.8708Zm-.6523,20.0014h-2.9563a.3116.3116,0,0,1-.3049-.3493l1.5631-12.13c.0463-.1737.0888-.218.22-.218s.1736.0443.2161.218l1.5669,12.13A.3116.3116,0,0,1,268.7046,105.8722Z" style="fill: #fff"/>
      <path id="type_PathItem_11" data-name="type &lt;PathItem&gt;" d="M284.59,112.8268a.3249.3249,0,0,1-.301-.303V86.1757a.33.33,0,0,0-.3049-.3049h-2.8714a.3274.3274,0,0,0-.3049.3049v29.8254a.3273.3273,0,0,0,.3049.3049h9.0425a.2984.2984,0,0,0,.3049-.3049v-2.8694a.2984.2984,0,0,0-.3049-.3049Z" style="fill: #fff"/>
      <path id="type_PathItem_12" data-name="type &lt;PathItem&gt;" d="M297.5652,85.8708a.3274.3274,0,0,0-.3049.3049v29.8254a.3273.3273,0,0,0,.3049.3049h9.2625a.2984.2984,0,0,0,.3049-.3049v-2.8694a.2984.2984,0,0,0-.3049-.3049h-5.7852a.3249.3249,0,0,1-.301-.303V102.3061a.3268.3268,0,0,1,.301-.3049h5.133a.3257.3257,0,0,0,.3049-.3049V98.8268a.3254.3254,0,0,0-.3049-.3029h-5.133a.3268.3268,0,0,1-.301-.3049V89.6531a.3249.3249,0,0,1,.301-.303h5.7852a.2984.2984,0,0,0,.3049-.3049V86.1757a.2984.2984,0,0,0-.3049-.3049Z" style="fill: #fff"/>
      <path id="type_PathItem_13" data-name="type &lt;PathItem&gt;" d="M323.5466,86.0445a.6545.6545,0,0,0-.4785-.1737h-6.3449a.6606.6606,0,0,0-.4785.1737l-2.0455,2.0436a.6527.6527,0,0,0-.1737.4785v12.0008a.6528.6528,0,0,0,.1737.4786l1.6094,1.6074a.6525.6525,0,0,0,.4785.1737h5.3491a.3082.3082,0,0,1,.2586.1312l.2625.2605a.3851.3851,0,0,1,.1312.26v8.6972a.3849.3849,0,0,1-.1312.26l-.2625.2605a.3064.3064,0,0,1-.2586.1293h-3.4811a.3064.3064,0,0,1-.2586-.1293l-.2624-.2605a.3846.3846,0,0,1-.1313-.26v-4.35a.2936.2936,0,0,0-.301-.3029H314.33a.3254.3254,0,0,0-.3049.3029V113.61a.6527.6527,0,0,0,.1737.4785l2.0455,2.0436a.66.66,0,0,0,.4785.1736h6.3449a.6545.6545,0,0,0,.4785-.1736l2.0455-2.0436a.6527.6527,0,0,0,.1737-.4785V101.61a.6456.6456,0,0,0-.1737-.4767l-1.6093-1.6093a.6525.6525,0,0,0-.4786-.1737h-5.3491a.3082.3082,0,0,1-.2586-.1312l-.2624-.26a.3848.3848,0,0,1-.1313-.2606V90.0023a.3885.3885,0,0,1,.1313-.2624l.2624-.2605a.3062.3062,0,0,1,.2586-.1293h3.4811a.3062.3062,0,0,1,.2586.1293l.2625.2605a.3887.3887,0,0,1,.1312.2624V94.35a.325.325,0,0,0,.301.303h2.8714a.2968.2968,0,0,0,.3049-.303V88.5666a.6527.6527,0,0,0-.1737-.4785Z" style="fill: #fff"/>
      <path id="type_CompoundPathItem_6" data-name="type &lt;CompoundPathItem&gt;" d="M135.4156,98.89H97.5809c-1.0825-4.3436-3.171-5.83-5.3872-7.3729l-.5427-.3783c-2.718-1.9217-6.4665-2.4225-9.6374-2.8468a1.6885,1.6885,0,0,0-1.8743,2.0243c-3.4744-1.9849-7.987-2.2418-11.6722-2.4514a1.6874,1.6874,0,0,0-1.7527,1.9994c-3.8642-2.0983-8.5485-2.48-13.05-2.5755a1.7077,1.7077,0,0,0-1.482.82,1.6557,1.6557,0,0,0-.11,1.3547c-4.3221-1.887-9.8024-.8812-13.9411.2646a48.9366,48.9366,0,0,1-5.2758-1.6231c-1.5525-.5483-3.1551-1.1152-4.763-1.5382a1.6873,1.6873,0,1,0-.8592,3.2633c1.4733.3874,2.9418.9067,4.4967,1.4565,1.5076.5326,3.0629,1.0357,4.6361,1.46.0357.0389.0429.0936.0825.1293.1872.1715.3541.3411.5379.5123a17,17,0,0,0-7.6344-.9827c-4.9593.5876-10.0035,4.029-11.85,5.4015-.0337-.0012-.07-.0215-.1032-.02l-11.5222.1609a1.6881,1.6881,0,0,0-1.6634,1.7107,1.6239,1.6239,0,0,0,1.7107,1.6634l10.8077-.1517c1.8188,1.757,7.91,7.0711,15.0541,7.07a13.9814,13.9814,0,0,0,1.8187-.1172,23.0342,23.0342,0,0,0,3.5545-.7736c-.4226.4962-.8447.9933-1.2524,1.5088-2.0618.4744-4.171.8871-6.2271,1.276l-2.0981.3994a1.6876,1.6876,0,0,0,.6431,3.3133l2.0822-.398c2.3325-.4416,4.7441-.9,7.1095-1.4687.4645.0275.9257.0545,1.4207.0875,3.4609.228,7.6.5,11.0133-.3558a1.6851,1.6851,0,0,0,1.3918,2.5c6.6005.3334,11.4325-.1872,14.6531-1.579a1.6884,1.6884,0,0,0,1.6084,2.1984c.0232,0,.0473,0,.0709-.0012,1.64-.07,9.0783-.5391,13.5436-3.3728q-.031.1324-.0632.2648a1.6864,1.6864,0,0,0,2.0349,2.0431c3.91-.953,10.4334-4.0147,12.516-7.29a10.1268,10.1268,0,0,0,1.786-4.2109h38.0247a1.687,1.687,0,1,0,0-3.374Zm-56.3414-5.26a13.4059,13.4059,0,0,1,4.0948,5.26h-9.32c-.1341-.3411-.2489-.6771-.3965-1.0189q-1.2577-3.2286-2.5308-6.4636C73.8577,91.65,76.9525,92.1479,79.0742,93.6294ZM65.3675,92.977A12.0737,12.0737,0,0,1,70.2057,98.89H60.6031c-.0685-.1088-.1332-.2179-.2-.3269-1.3441-2.87-2.6119-5.429-3.8643-7.78A20.4434,20.4434,0,0,1,65.3675,92.977Zm-14.34-.3163c2.7127,1.3318,4.0736,3.6008,5.6212,6.2289H46.63a64.4288,64.4288,0,0,0-5.6955-6.4054C43.916,91.8027,48.115,91.2306,51.0279,92.6607ZM33.1662,104.7771c-5.2411.6758-10.2463-2.7535-12.7838-4.8754,2.0464-1.414,5.8393-3.7287,9.3648-4.1465,5.5768-.6628,10.9375,3.0878,13.1258,4.8626A18.9082,18.9082,0,0,1,33.1662,104.7771Zm17.4792,3.0918c-2.5834,1.2483-6.69,1.1349-10.2935.9135a87.2567,87.2567,0,0,1,6.4239-6.4411c.0242-.0227.0338-.054.057-.0777H56.87c-.2292.2878-.46.5763-.6841.8607A15.2329,15.2329,0,0,1,50.6454,107.8689Zm18.4754-2.7281a9.044,9.044,0,0,1-3.3582,3.7482c-1.4733.9911-4.6814,2.0165-11.2477,2.0416,1.3315-1.8426,2.7624-3.7364,4.3177-5.7121.2214-.2781.4429-.5589.6667-.84.1245-.1568.248-.315.3744-.473q.3559-.4451.7226-.8963a1.6535,1.6535,0,0,0,.0946-.1814,1.6376,1.6376,0,0,0,.5712-.5645h9.1487c-.0984.2219-.2089.4564-.3011.6694C69.772,103.6817,69.445,104.4172,69.1208,105.1408ZM83.35,102.56a10.8229,10.8229,0,0,1-2.8811,5.111c-1.7425,1.8928-6.1629,3.0883-10.3359,3.5707.6436-1.5052,1.318-3.0407,2.0271-4.6315.3059-.6183.58-1.2522.8621-1.91.0555-.1319.1134-.2663.1742-.4021q.3162-.71.6455-1.4352a1.66,1.66,0,0,0,.137-.6h9.469C83.4189,102.3555,83.3779,102.4711,83.35,102.56Zm9.4077,2.1036c-1.0651,1.6764-4.4865,3.6811-7.6946,4.9292.6652-2.6087,1.3122-5.02,1.9615-7.3252l.0058-.0041h6.9083A8.3737,8.3737,0,0,1,92.7576,104.6637Zm-5.63-5.7741q-1.0088-2.5317-2.0065-5.0691l-.6961-1.7647a13.2465,13.2465,0,0,1,5.28,1.8373l.5587.3927c1.8472,1.2849,3.048,2.1253,3.83,4.6038Z" style="fill: #fff"/>
      <path id="type_CompoundPathItem_7" data-name="type &lt;CompoundPathItem&gt;" d="M466.2676,97.9471l-11.5217-.1609c-.0328-.0012-.07.0191-.1033.02-1.8477-1.3725-6.8909-4.8139-11.8512-5.4015a17,17,0,0,0-7.6339.9827c.1833-.1712.3512-.3408.5384-.5123.0391-.0357.0463-.09.082-.1293,1.5732-.4243,3.128-.9274,4.6361-1.46,1.5553-.55,3.0238-1.0691,4.4971-1.4565a1.6873,1.6873,0,1,0-.86-3.2633c-1.6075.423-3.21.99-4.763,1.5382a48.91,48.91,0,0,1-5.2763,1.6231c-4.1382-1.1458-9.6186-2.1516-13.9406-.2646a1.656,1.656,0,0,0-.11-1.3547,1.7071,1.7071,0,0,0-1.4815-.82c-4.502.0951-9.1864.4772-13.0506,2.5755a1.6886,1.6886,0,0,0-1.7531-1.9994c-3.6848.21-8.1978.4665-11.6718,2.4514a1.69,1.69,0,0,0-1.8747-2.0243c-3.171.4243-6.9189.9251-9.6369,2.8468l-.5432.3783c-2.2163,1.5432-4.3047,3.0293-5.3868,7.3729H336.7279a1.687,1.687,0,1,0,0,3.374h38.0243a10.1433,10.1433,0,0,0,1.7869,4.2109c2.0821,3.2752,8.6064,6.3369,12.5155,7.29a1.6864,1.6864,0,0,0,2.0353-2.0431l-.0636-.2648c4.4653,2.8337,11.9043,3.3029,13.5435,3.3728.0242.0012.0473.0012.0714.0012a1.6884,1.6884,0,0,0,1.608-2.1984c3.2211,1.3918,8.0531,1.9124,14.6536,1.579a1.6852,1.6852,0,0,0,1.3913-2.5c3.4137.8554,7.5524.5838,11.0133.3558.495-.033.9566-.06,1.4207-.0875,2.3654.5685,4.777,1.0271,7.109,1.4687l2.0831.398a1.6875,1.6875,0,0,0,.6426-3.3133l-2.098-.3994c-2.0561-.3889-4.1648-.8016-6.2267-1.276-.4081-.5155-.83-1.0126-1.2528-1.5088a23.0445,23.0445,0,0,0,3.5545.7736,13.9834,13.9834,0,0,0,1.8192.1172c7.1433.0014,13.2348-5.3127,15.0536-7.07l10.8077.1517a1.6236,1.6236,0,0,0,1.7107-1.6634A1.6881,1.6881,0,0,0,466.2676,97.9471ZM421.116,92.6607c2.9129-1.43,7.1119-.858,10.0933-.1765a64.3783,64.3783,0,0,0-5.6955,6.4054h-10.02C417.0424,96.2615,418.4029,93.9925,421.116,92.6607Zm-14.3395.3163a20.44,20.44,0,0,1,8.8274-2.1944c-1.2515,2.3511-2.52,4.9106-3.8633,7.78-.0666.109-.1322.2181-.2.3269h-9.6032A12.0749,12.0749,0,0,1,406.7765,92.977Zm-13.7072.6524c2.1222-1.4815,5.2165-1.98,8.153-2.2223q-1.2729,3.2307-2.53,6.4636c-.1481.3418-.2625.6778-.3966,1.0189h-9.32A13.4048,13.4048,0,0,1,393.0693,93.6294Zm-13.6835,11.0343a8.3471,8.3471,0,0,1-1.18-2.4h6.9079l.0053.0041c.65,2.3055,1.2967,4.7165,1.9615,7.3252C383.8724,108.3448,380.4505,106.34,379.3858,104.6637Zm7.6363-10.8432q-.9957,2.5389-2.0064,5.0691H378.049c.7825-2.4785,1.9833-3.3189,3.8305-4.6038l.5586-.3927a13.247,13.247,0,0,1,5.28-1.8373Zm4.6525,13.8506a10.8269,10.8269,0,0,1-2.881-5.111c-.028-.089-.0685-.2046-.0984-.2965h9.4695a1.67,1.67,0,0,0,.137.6q.3278.7254.646,1.4352c.0608.1358.1186.27.1736.4021.2823.6575.5563,1.2914.8621,1.91.7092,1.5908,1.3841,3.1263,2.0272,4.6315C397.8376,110.7594,393.4172,109.5639,391.6746,107.6711Zm14.7063,1.2179a9.0433,9.0433,0,0,1-3.3582-3.7482c-.3242-.7236-.6508-1.4591-.9885-2.2078-.0926-.213-.2026-.4475-.3015-.6694h9.1482a1.6406,1.6406,0,0,0,.5722.5645,1.496,1.496,0,0,0,.0945.1814c.2451.3.4849.6.7222.8963.1264.158.25.3162.3739.473.2243.2808.4458.5616.6672.84,1.5553,1.9757,2.9867,3.8695,4.3177,5.7121C411.0623,110.9055,407.8542,109.88,406.3809,108.889Zm15.1172-1.02a15.2329,15.2329,0,0,1-5.5406-4.7446c-.2234-.2844-.4549-.5729-.6836-.8607h10.0373c.0232.0237.0323.055.0569.0777a87.4325,87.4325,0,0,1,6.424,6.4411C428.1884,109.0038,424.0815,109.1172,421.4981,107.8689Zm17.4792-3.0918a18.904,18.904,0,0,1-9.7068-4.1593c2.1887-1.7748,7.5494-5.5254,13.1258-4.8626,3.5255.4178,7.3184,2.7325,9.3653,4.1465C449.2235,102.0236,444.2184,105.4529,438.9773,104.7771Z" style="fill: #fff"/>
    </g>
  </g>
</svg>
