<svg xmlns="http://www.w3.org/2000/svg" viewBox="0 0 119.8061 95.7316">
  <title>birdsnest-logo-one-color-rgb</title>
  <g id="black-rgb">
    <g>
      <path id="logoMark" d="M118.6844,20.5216a.4394.4394,0,0,0-.3176-.1358h-.0016l-42.589.1475a3.2275,3.2275,0,0,0-2.0079.622,3.808,3.808,0,0,0-1.1023,1.7758.4383.4383,0,0,0,.0307.3062,12.27,12.27,0,0,1,.3836,8.3633,10.7891,10.7891,0,0,1-4.9884,6.1532c-.16-.6774-.297-1.1987-.3822-1.5126a5.3535,5.3535,0,0,0-.2168-3.9683,4.4027,4.4027,0,0,0,.7429-1.8449,3.5282,3.5282,0,0,0-.3333-1.811,9.2075,9.2075,0,0,1-.5061-1.6394,1.4768,1.4768,0,0,1,.657-1.6286,3.2683,3.2683,0,0,1,1.0422-.4761.4393.4393,0,0,0-.1066-.8682,5.2637,5.2637,0,0,0-3.8707,1.8728,14.8736,14.8736,0,0,0-1.3677,2.7248l-3.868-3.57a.4351.4351,0,0,0-.1351-.0817l-.016-.01a.4392.4392,0,0,0-.475.0791l-3.9153,3.6131a15.1307,15.1307,0,0,0-1.3975-2.7969,5.2636,5.2636,0,0,0-3.8707-1.8729.4341.4341,0,0,0-.4479.3856.4394.4394,0,0,0,.3413.4826c.0838.0185,2.0452.4712,1.6994,2.1047a9.2254,9.2254,0,0,1-.5061,1.6393,3.5272,3.5272,0,0,0-.3333,1.8111,4.5393,4.5393,0,0,0,.7974,1.9269,5.5331,5.5331,0,0,0-.3137,3.5833c-.0822.2932-.2777,1.0124-.511,2.0229a10.7549,10.7549,0,0,1-5.0734-6.2016,12.3268,12.3268,0,0,1,.3834-8.3633.4385.4385,0,0,0,.0307-.3062,3.808,3.808,0,0,0-1.1021-1.7756,3.2268,3.2268,0,0,0-2.008-.6222L.4409,20.5034H.4393a.4394.4394,0,0,0-.4388.4609,4.9472,4.9472,0,0,0,2.0874,3.4915,8.2956,8.2956,0,0,0,2.2766,1.257v.006h.0183c.1191.0379.2251.0659.3183.0864a6.4505,6.4505,0,0,0,1.7751,3.61,9.954,9.954,0,0,0,3.7071,2.849,5.2244,5.2244,0,0,0,1.6391,4.7221,9.2515,9.2515,0,0,0,4.4053,2.4157,6.7048,6.7048,0,0,0,1.5739,4.5648,5.1877,5.1877,0,0,0,3.1829,2.01A8.9851,8.9851,0,0,0,24.2355,50.33a11.23,11.23,0,0,0,4.5687,2.0233.4356.4356,0,0,0,.3793-.1556c.0384-.0457,3.9066-4.5742,9.8007-3.6443,6.1966.9776,9.1147,4.0664,9.8329,4.9452l-4.0775,3.46a.4393.4393,0,0,0-.149.4088,6.0758,6.0758,0,0,0,.53,1.6059,1.9439,1.9439,0,0,1-.2965.4276c-.2339.2524-.54.5448-.7114.7062l-.1937.0108a.26.26,0,0,0-.1155.0381l-.0017-.3549a.2635.2635,0,0,0-.2789-.2619l-.6486.0377c.0509-.0457.0821-.0766.0836-.0782a2.6423,2.6423,0,0,0,.4881-1.3381.2443.2443,0,0,0-.3046-.26c-.01.0026-.04.0107-.08.0227a2.9142,2.9142,0,0,0,.1922-1.2671.2442.2442,0,0,0-.1171-.1928.2416.2416,0,0,0-.0993-.0338l.0061-.0157.0151-.0392.0208-.0563.0149-.0435.021-.0642.0141-.0456.0212-.0712.0136-.048.0207-.0752.0132-.05.02-.0776.0131-.0523.0185-.0758.0132-.0556.0166-.0717.0132-.0581.0144-.065.0137-.0625.0112-.0522.0146-.0692.008-.0387L43.37,55.17l.0048-.0238c.0321-.16.0541-.2792.0606-.3155a.2419.2419,0,0,0-.0008-.091.2446.2446,0,0,0-.1737-.1877.2679.2679,0,0,0-.0282-.0023.2384.2384,0,0,0-.1135.0094c.1217-.5373.2315-1.2065.2484-1.311a.2443.2443,0,0,0-.4774-.1013l-.1733.66-.0676.0516c.0038-.0174.008-.0349.01-.0523a1.7714,1.7714,0,0,0-.29-1.0441c-.0288-.0554-.0576-.1105-.0847-.1654a.3939.3939,0,0,1-.0223-.0574,2.8615,2.8615,0,0,1-.0682-.7048c.0108-.1838.0137-.3518.0139-.4675h0v0a.2442.2442,0,0,0-.4879-.0175c-.0048.069-.0156.248-.0156.4637a2.4013,2.4013,0,0,1-.1224.75c-.0221.0276-.0446.0544-.0671.0813a1.6225,1.6225,0,0,0-.44,1.0047c-.0027.027-.0024.0529-.0029.0792l-.012-.01-.1421-.6671a.2443.2443,0,0,0-.4816.0786c.0134.1173.1087.9393.22,1.5a.2443.2443,0,0,0-.3437.2795,10.1244,10.1244,0,0,0,.5317,1.6134.2464.2464,0,0,0-.1157.0455.2439.2439,0,0,0-.1.2022c.0006.03.004.1371.02.2825a5.8006,5.8006,0,0,0-.41-.7522.244.244,0,0,0-.1977-.109.2487.2487,0,0,0-.2025.0995c-.0043.006-.0352.0481-.0805.1157-.0038-.07-.0084-.1425-.0142-.2166a16.3218,16.3218,0,0,0-.7258-2.6014.2443.2443,0,0,0-.4716.1193l.135.8761-.043.0745-.0118.02-.0076.0133c-.0078-.1418-.02-.2545-.0275-.3172a23.5178,23.5178,0,0,0-.9293-2.9286.2443.2443,0,0,0-.4644.15L37.4952,52.7c-.0549.1323-.1727.4144-.2839.6686v-.003c.0009-.047,0-.0935-.002-.14l-.0027-.0386c-.0022-.0335-.0052-.0666-.0093-.0993l-.0064-.0452c-.0049-.0312-.0109-.0617-.0178-.0918l-.0091-.04a1.0375,1.0375,0,0,0-.0393-.1214h0a2.6842,2.6842,0,0,0-1.1777-1.1488c-.0856-.0549-.1707-.1095-.2536-.1651a.7828.7828,0,0,1-.091-.0728,3.7217,3.7217,0,0,1-.5494-.7306c-.05-.0806-.0986-.1618-.1446-.2416-.087-.1744-.1718-.3337-.2416-.4608-.0419-.0763-.0784-.141-.1066-.1905a.2443.2443,0,0,0-.432.2277c.03.0627.16.3259.34.64a3.5891,3.5891,0,0,1,.45,1.2429c-.0089.0568-.0189.1129-.0288.1692a2.4708,2.4708,0,0,0,.1795,1.6606,1.4958,1.4958,0,0,0,.2457.3792c-.173-.03-.33-.0588-.421-.0754l-.7628-.8506a.2443.2443,0,0,0-.3786.3079,23.523,23.523,0,0,0,1.9511,2.3738,4.8286,4.8286,0,0,0,.4222.3148l-.0973.0063-.7258-.5088a.2442.2442,0,0,0-.3157.37A16.2947,16.2947,0,0,0,36.9977,57.84q.1454.0863.2821.1606c-.1078.0151-.1785.0287-.1871.03a.2443.2443,0,0,0-.1627.3657,5.7359,5.7359,0,0,0,.7115.921L37.626,59.31a.2431.2431,0,0,0-.2255.01.246.246,0,0,0-.0881.0877,10.1091,10.1091,0,0,0-1.264-1.1349.2442.2442,0,0,0-.394.2022c-.4692-.3269-1.1835-.7443-1.2854-.8035a.2443.2443,0,0,0-.2655.4094l.5536.398.0044.0149c-.0242-.01-.0479-.0207-.0737-.0291a1.62,1.62,0,0,0-1.0972,0c-.0336.01-.0671.02-.099.0282a2.4375,2.4375,0,0,1-.7392-.19c-.1972-.0865-.365-.1483-.43-.1716a.2442.2442,0,0,0-.18.4539c.1059.0462.26.1109.4328.1746a2.3014,2.3014,0,0,1,.6626.39c.04.0472.0788.096.1183.145a1.7716,1.7716,0,0,0,.8385.6843h0c.0171.0048.0355.007.0532.0105l-.0757.0418-.6736-.106a.2443.2443,0,0,0-.0992.4778c.1025.0264.76.1947,1.3.2991a.238.238,0,0,0-.0632.127.2442.2442,0,0,0,.185.2717,10.8583,10.8583,0,0,0,1.6249.2779.2413.2413,0,0,0,.1194.29,3.0006,3.0006,0,0,0,1.1839.3352c.0182,0,.036-.0014.054-.0021-.0272.0319-.0466.056-.053.0641a.2441.2441,0,0,0,.1155.3832,3.3821,3.3821,0,0,0,.95.1613,1.4257,1.4257,0,0,0,.4717-.07,2.9648,2.9648,0,0,0,.61-.3357l-.0126.0136a.2637.2637,0,0,0-.0577.26,1.8222,1.8222,0,0,0,.3853.6769,2.8391,2.8391,0,0,0,.4336.338l-.011.0114a.2636.2636,0,0,0-.0708.2282,3.1436,3.1436,0,0,0,.8279,1.0381c.6905.6852,1.09.7418,1.2022.7418h.0038a.2631.2631,0,0,0,.1771-.0724,1.53,1.53,0,0,0,.3616.42,1.35,1.35,0,0,0,.8324.342l.0341-.001a.2649.2649,0,0,0,.1727-.0826l.2278-.243.6993-.111-.3524,1.5339.4761.11.35-1.5234L47.57,67.983l.3459-.3449-2.0115-2.0165,1.0041-.1593-.0765-.4826-1.1907.189.2189-.9532.4715-.5029a.2638.2638,0,0,0,.0711-.1723l.0395-1.2955a.2635.2635,0,0,0-.298-.27l-.3467.0458.001-.3337a3.0277,3.0277,0,0,1,.5175-.6423,3.4944,3.4944,0,0,1,.6283-.42,5.5189,5.5189,0,0,0,1.38.4946.4451.4451,0,0,0,.0777.0068.4391.4391,0,0,0,.3353-.1555l2.6614-3.1441a30.8222,30.8222,0,0,0,2.3633,5.5059,14.7884,14.7884,0,0,1-1.34,2.8754c-.295.5186-1.4938,2.0441-1.9307,2.5881a.4394.4394,0,0,0-.0862.3716,2.8236,2.8236,0,0,0,.61,1.1548,4.0564,4.0564,0,0,0,.8583.6852,25.8455,25.8455,0,0,1-2.2534,3.137.439.439,0,0,0-.0931.3993,3.7652,3.7652,0,0,0,.9953,1.6235A5.3678,5.3678,0,0,0,51.91,77.1752a21.1151,21.1151,0,0,1-2.5172,3.3417.4392.4392,0,0,0-.1094.433,6.0386,6.0386,0,0,0,1.6887,2.5739,4.1644,4.1644,0,0,0,2.0631,1.061c-.4155.8074-.7016,1.3091-.7094,1.3226a.44.44,0,0,0-.0142.41,49.0058,49.0058,0,0,0,2.7294,4.9847,25.2568,25.2568,0,0,0,4.1177,4.2788.4393.4393,0,0,0,.59.0657,21.43,21.43,0,0,0,4.123-4.17A49.1284,49.1284,0,0,0,66.6,86.476a.44.44,0,0,0-.0142-.4093c-.0082-.0142-.3217-.5655-.77-1.4454a4.0385,4.0385,0,0,0,2.166-1.082A6.0649,6.0649,0,0,0,69.66,80.9581a.4386.4386,0,0,0-.1084-.43,20.9243,20.9243,0,0,1-2.4629-3.2906,5.5615,5.5615,0,0,0,1.3237-.9771,3.7646,3.7646,0,0,0,.9955-1.6237.4391.4391,0,0,0-.0933-.3991,25.7706,25.7706,0,0,1-2.23-3.098,4.0494,4.0494,0,0,0,.8574-.6845,2.8225,2.8225,0,0,0,.61-1.1547.439.439,0,0,0-.086-.3717c-.4371-.544-1.6359-2.0694-1.9309-2.588a14.0854,14.0854,0,0,1-1.3613-2.9489,30.7954,30.7954,0,0,0,2.4721-5.761l2.6872,3.1745a.44.44,0,0,0,.3353.1555.4452.4452,0,0,0,.0777-.0069,5.5386,5.5386,0,0,0,1.4-.5053,3.4857,3.4857,0,0,1,.62.4164,2.9768,2.9768,0,0,1,.5047.62l.0012.37-.3466-.0458a.2635.2635,0,0,0-.2979.27l.04,1.2954a.2636.2636,0,0,0,.071.1723l.4715.5029.2189.9533-1.1907-.189-.0765.4826,1.0041.1594-2.0113,2.0162.3459.345,2.093-2.0981.35,1.5233.476-.1095-.3522-1.5339.7.111.2277.2429a.2643.2643,0,0,0,.1726.0825l.0343.001a1.349,1.349,0,0,0,.8322-.342,1.5266,1.5266,0,0,0,.3617-.42.2629.2629,0,0,0,.1769.0722h.0037c.1119,0,.5118-.0566,1.2022-.7417a3.1328,3.1328,0,0,0,.8279-1.0385.2628.2628,0,0,0-.0707-.2279l-.011-.0113a2.8311,2.8311,0,0,0,.4337-.3383,1.819,1.819,0,0,0,.3851-.6767.2635.2635,0,0,0-.0576-.26l-.0128-.0138a2.9582,2.9582,0,0,0,.61.3359,1.4255,1.4255,0,0,0,.4718.0706,3.3826,3.3826,0,0,0,.95-.1614.2441.2441,0,0,0,.1155-.3832c-.0064-.0081-.0258-.0321-.0529-.0641.0179.0007.0356.0022.0538.0022a3.0027,3.0027,0,0,0,1.1836-.3352.2444.2444,0,0,0,.13-.1847.2419.2419,0,0,0-.01-.1051,10.8684,10.8684,0,0,0,1.625-.2779.244.244,0,0,0,.185-.2715.2382.2382,0,0,0-.0634-.1271c.5411-.1045,1.1982-.2728,1.3007-.2994a.2443.2443,0,0,0-.0991-.4778l-.6737.1062-.0758-.0418c.0177-.0035.0361-.0057.0532-.0105h0a1.772,1.772,0,0,0,.8387-.6846c.0394-.0489.0786-.0976.1184-.1448a2.2933,2.2933,0,0,1,.6612-.3891c.1727-.0638.3278-.1289.4341-.175a.2443.2443,0,0,0-.18-.454c-.065.0234-.2335.0855-.4312.1722a2.3657,2.3657,0,0,1-.7358.1892c-.034-.0092-.0674-.019-.1009-.0288a1.6227,1.6227,0,0,0-1.0972.0009c-.0259.0084-.05.0191-.074.0292l.0045-.0153.5539-.398a.2443.2443,0,0,0-.2655-.41c-.102.0592-.8163.4768-1.2855.8037a.2441.2441,0,0,0-.394-.2023,10.1039,10.1039,0,0,0-1.2642,1.1352.2438.2438,0,0,0-.3133-.0981l-.0157.0073a5.7329,5.7329,0,0,0,.7116-.9212.2443.2443,0,0,0-.1629-.3657c-.0086-.0018-.0793-.0153-.187-.03q.1366-.0741.2821-.16a16.323,16.323,0,0,0,2.0114-1.8028.2442.2442,0,0,0-.3156-.37l-.726.509-.0975-.0063a4.85,4.85,0,0,0,.4222-.3149,23.5144,23.5144,0,0,0,1.9512-2.3739.2442.2442,0,0,0-.3786-.3078l-.7627.8507c-.0912.0166-.25.0454-.4241.0758a1.4906,1.4906,0,0,0,.2487-.38,2.47,2.47,0,0,0,.18-1.6609c-.01-.0561-.02-.1122-.0288-.1689a3.59,3.59,0,0,1,.45-1.2432c.18-.3144.31-.5775.34-.64a.2443.2443,0,0,0-.4318-.228c-.0753.132-.2088.3719-.348.651a3.7334,3.7334,0,0,1-.785,1.0453c-.0829.0556-.168.11-.2536.165a2.6857,2.6857,0,0,0-1.178,1.1489v0a1.4917,1.4917,0,0,0-.0858.581c-.1115-.2549-.23-.5381-.2849-.6707l.2982-1.1032a.2443.2443,0,0,0-.4644-.15,23.5343,23.5343,0,0,0-.9293,2.9288c-.0077.0625-.02.1761-.0273.3176l-.0626-.1087.1352-.8763a.2443.2443,0,0,0-.4716-.1193,16.3209,16.3209,0,0,0-.7261,2.6018q-.0085.111-.0141.2164c-.0454-.0676-.0763-.11-.0808-.1158a.238.238,0,0,0-.2025-.0994.2445.2445,0,0,0-.1975.1088,5.8222,5.8222,0,0,0-.41.7523c.0159-.1453.0193-.2523.02-.2824a.2444.2444,0,0,0-.2157-.2477,10.1442,10.1442,0,0,0,.5315-1.6135.2444.2444,0,0,0-.3438-.28c.1109-.5608.2062-1.3829.22-1.5a.2442.2442,0,0,0-.4815-.0784l-.1421.667-.0118.01c-.0006-.0263,0-.0523-.003-.0793a1.6187,1.6187,0,0,0-.44-1.005c-.0223-.0268-.0448-.0535-.0655-.0793a2.3862,2.3862,0,0,1-.1232-.7524c0-.2155-.0109-.3943-.0157-.4632a.2442.2442,0,0,0-.4879.0174c0,.1162.0031.2849.0139.4692a2.29,2.29,0,0,1-.0906.7606c-.0273.0554-.0563.1109-.0853.1666a1.7709,1.7709,0,0,0-.29,1.0431c.0024.0173.0067.0347.01.0521l-.0675-.0517-.1734-.66a.2443.2443,0,0,0-.4774.1012c.0169.1045.1267.7739.2484,1.3113a.2405.2405,0,0,0-.1415-.0072.2446.2446,0,0,0-.1745.2788,10.8242,10.8242,0,0,0,.3984,1.6.241.241,0,0,0-.2175.2257,2.9084,2.9084,0,0,0,.1921,1.2671c-.04-.012-.07-.02-.08-.0227a.2443.2443,0,0,0-.3046.26,2.6436,2.6436,0,0,0,.4879,1.3383c.0015.0016.0329.0325.0836.0781l-.6486-.0376a.2672.2672,0,0,0-.1956.0709.2635.2635,0,0,0-.0833.1908l-.0018.3551a.2609.2609,0,0,0-.1154-.0381l-.2238-.0125c-.1744-.1642-.4683-.4462-.6955-.6916a1.96,1.96,0,0,1-.2932-.42,6.0505,6.0505,0,0,0,.5412-1.6268.44.44,0,0,0-.149-.4088l-4.2075-3.57c.9073-1.0455,3.8372-3.8617,9.6991-4.7866,5.8926-.93,9.7624,3.5987,9.8007,3.6442a.4376.4376,0,0,0,.3794.156,11.2338,11.2338,0,0,0,4.5689-2.0236,8.9857,8.9857,0,0,0,3.2511-4.3534,5.1873,5.1873,0,0,0,3.1825-2.01,6.7045,6.7045,0,0,0,1.5743-4.5649,9.2512,9.2512,0,0,0,4.4051-2.4157,5.2245,5.2245,0,0,0,1.6392-4.7221,9.9546,9.9546,0,0,0,3.7069-2.849,6.4508,6.4508,0,0,0,1.7753-3.61c.093-.02.1989-.0484.3177-.0863h.0188v-.0061a8.294,8.294,0,0,0,2.2765-1.257,4.9478,4.9478,0,0,0,2.0876-3.4913A.44.44,0,0,0,118.6844,20.5216ZM93.42,35.6a7.2034,7.2034,0,0,1-4.0526,2.847l-14.7-.0421a13.8675,13.8675,0,0,0,2.0673-3.253,17.0377,17.0377,0,0,0,1.009-2.9494l16.5562.088A4.8743,4.8743,0,0,1,93.42,35.6Zm-5.4832,6.5712a12.4585,12.4585,0,0,1-3.4618,2.812l-15.1732-.0163q-.0247-.2733-.0536-.5517c-.0586-.5625-.1278-1.117-.2043-1.6566a17.8285,17.8285,0,0,0,4.8274-3.4773l14.9865.0429A4.606,4.606,0,0,1,87.9368,42.1712Zm-22.21,28.3605c.11.208.2238.4117.339.6117l-.3629,1.9058-.7208-.0238a53.2929,53.2929,0,0,1-1.8-6.7505c.2146-.2522.4332-.5256.6548-.8233A26.1848,26.1848,0,0,0,65.7269,70.5317Zm-12.52-.0923A26.1,26.1,0,0,0,55.0863,65.4c.2431.3311.4829.6327.7176.9086A53.5578,53.5578,0,0,1,54.032,72.93l-.8009.0264-.363-1.9056C52.9833,70.851,53.097,70.6474,53.2071,70.4394ZM34.3307,45.1009a12.46,12.46,0,0,1-3.4614-2.8121,4.6067,4.6067,0,0,1-.9212-2.847l14.9865-.043A17.7142,17.7142,0,0,0,49.88,42.9316c-.0935.6982-.1744,1.42-.2356,2.1529Zm6.3429-20.0623L19.0077,24.92a6.7642,6.7642,0,0,1-2.9261-1.5774,17.8716,17.8716,0,0,1-1.6322-1.9121l26.9179.0932A22.0462,22.0462,0,0,0,40.6736,25.0386Zm-.0858.8782a20.7833,20.7833,0,0,0,.2827,5.5256l-16.7219.0888A9.46,9.46,0,0,1,20.2574,28.46a4.7335,4.7335,0,0,1-.687-2.6577ZM24.5056,32.4081l16.5567-.088a17.041,17.041,0,0,0,1.0089,2.95,13.8661,13.8661,0,0,0,2.0673,3.2528l-14.7.0421a7.2034,7.2034,0,0,1-4.0529-2.8467A4.8788,4.8788,0,0,1,24.5056,32.4081Zm28.0354.0049.1065-.0983a3.886,3.886,0,0,0-.0939.6861c-.06,1.3162.1812,3.6565,2.4673,4.542a3.7622,3.7622,0,0,0,1.3622.2752,2.9039,2.9039,0,0,0,1.237-.275,2.4374,2.4374,0,0,1-1.693,1.185H55.91c-1.1181-.0229-2.1287-.4372-3.4275-2.3855C51.48,34.8372,52.3605,32.795,52.541,32.413Zm6.94-3.1334a.4361.4361,0,0,0,.1193.0185h.0019a.4381.4381,0,0,0,.4316-.3813l2.698,2.3921c-.3184.8791-.595,1.636-.8208,2.1113a4.2176,4.2176,0,0,1-1.89,2.2075l-.0428-2.56a.4394.4394,0,0,0-.8787.0148l.0426,2.5433a4.057,4.057,0,0,1-1.991-2.2467c-.2256-.4753-.5022-1.2324-.8205-2.1115L59.1,28.8123l0,.0319A.4381.4381,0,0,0,59.4808,29.28Zm7.2979,6.8692-.0061.0018.0018.0063c-.0365.0668-.0751.133-.1184.198-1.2991,1.9483-2.31,2.3628-3.4274,2.3855l-.0166,0a2.3755,2.3755,0,0,1-1.63-1.0951,2.8959,2.8959,0,0,0,1.0971.2137,3.7617,3.7617,0,0,0,1.3622-.2753c2.2865-.8851,2.5276-3.2255,2.4677-4.5419a4.2939,4.2939,0,0,0-.1127-.8026l.2016.186A4.5125,4.5125,0,0,1,66.7787,36.1488Zm1.0618,17.4626a3.2127,3.2127,0,0,1-1.8541-1.1009l-.0134-.0194-.0023.0016-.0543-.0615a3.4454,3.4454,0,0,0,1.0611-1.84A4.7657,4.7657,0,0,0,66.71,47.998a4.05,4.05,0,0,0,1.8549.4155,18.86,18.86,0,0,1-.32,3.318Q68.0518,52.7094,67.8405,53.6114Zm-2.8747,4.2837c-1.4638,1.2521-3.5963.0431-4.655-.7132a4.4717,4.4717,0,0,0,3.3557-3.6079,4.0053,4.0053,0,0,0,1.2981-.4611c.0862-.048.1689-.0978.25-.1485.026.0306.0535.0625.0836.0964C65.5813,53.4879,67.13,56.0438,64.9658,57.8951ZM59.4672,68.17a9.3446,9.3446,0,0,1-3.2441-2.7743A4.7136,4.7136,0,0,0,59.48,63.6925a4.044,4.044,0,0,0,3.149,1.7133c.0336,0,.0684-.0034.1022-.0044A9.3521,9.3521,0,0,1,59.4672,68.17Zm.1075-5.6994h-.0131a2.9,2.9,0,0,1-2.658-1.7212,5.7825,5.7825,0,0,1-.517-1.4515,4.494,4.494,0,0,0,3.0566-1.6649,9.8377,9.8377,0,0,0,1.8073,1.1266,6.0762,6.0762,0,0,0,1.38.4707C62.3047,60.19,61.3448,62.47,59.5747,62.47Zm-6.3961-5.8684a5.3262,5.3262,0,0,1,.7162-3.6921,5.1821,5.1821,0,0,0,.59.3274,3.6948,3.6948,0,0,0,.9244.3016,7.3742,7.3742,0,0,0,.7763,1.7264,3.9894,3.9894,0,0,0,2.4949,1.9227,3.3058,3.3058,0,0,1-3.907.96A2.49,2.49,0,0,1,53.1786,56.6019ZM50.7257,51.66a18.9355,18.9355,0,0,1-.3138-3.2138,4.1818,4.1818,0,0,0,2.1528-.4945,4.9984,4.9984,0,0,0-.2214,2.9111A3.3346,3.3346,0,0,0,53.2,52.3477l-.019.0332a3.105,3.105,0,0,1-2.0369,1.2372Q50.9253,52.6788,50.7257,51.66Zm.06-8.81c.0288.0007.0586.0031.087.0031a3.1969,3.1969,0,0,0,1.554-.3952,4.4038,4.4038,0,0,0-.0283,2.5547,3.24,3.24,0,0,0,.8634,1.3488,3.9226,3.9226,0,0,1-2.8522,1.2038A38.0065,38.0065,0,0,1,50.7854,42.85Zm2.6458-9.8089a2.8791,2.8791,0,0,1,1.6963-2.5094c.1132.3077.2231.6108.3283.9015.0691.1907.1357.3744.201.5535a4.346,4.346,0,0,0-1.1245,1.6774,2.7168,2.7168,0,0,0,1.0126,2.9195,3.11,3.11,0,0,0,.694.35,3.0374,3.0374,0,0,1-.9006-.21C54.0046,36.2069,53.3453,34.9334,53.4312,33.0406ZM63.607,31.472c.1282-.354.2629-.7257.4027-1.1028a3.4092,3.4092,0,0,1,1.6214,2.7127c.086,1.8929-.5735,3.1662-1.9072,3.6825a3.0394,3.0394,0,0,1-.9006.21,3.11,3.11,0,0,0,.694-.35,2.7175,2.7175,0,0,0,1.0125-2.92,4.3453,4.3453,0,0,0-1.1245-1.6773C63.4709,31.8477,63.5378,31.6634,63.607,31.472Zm.9306,20.8731a3.07,3.07,0,0,1-3.3228-.1785,5.7694,5.7694,0,0,1-.9972-.8094A3.9839,3.9839,0,0,0,62.8583,49.41a7.2569,7.2569,0,0,0,.7846-1.7417,4.4843,4.4843,0,0,0,1.2539-.4227c.1292-.065.2522-.1337.37-.2051A5.0226,5.0226,0,0,1,66.118,50.41,2.925,2.925,0,0,1,64.5376,52.3451Zm-5.01,4.0445c-1.9148.0677-2.8417-1.8666-3.18-2.8149a4.6923,4.6923,0,0,0,3.0149-1.8313,5.384,5.384,0,0,0,3.3884,1.8679,4.69,4.69,0,0,1-.5071,1.1934A3.1312,3.1312,0,0,1,59.5277,56.39ZM53.192,50.6349a5.41,5.41,0,0,1,.8188-3.7163,5.582,5.582,0,0,0,.8782.4123,5.0352,5.0352,0,0,0,.5381.167,7.721,7.721,0,0,0,.7645,1.7667,4.2135,4.2135,0,0,0,2.41,2.0157,3.1043,3.1043,0,0,1-3.74,1.1629A2.8573,2.8573,0,0,1,53.192,50.6349Zm.6834-9.3765a2.7619,2.7619,0,0,0,1.2576.562c.1272.0219.25.0379.3712.051.3253,1.27,1.2762,3.1658,3.0826,3.6235a2.67,2.67,0,0,1-3.3913,1.0126,2.9771,2.9771,0,0,1-1.9621-1.7684A4.8057,4.8057,0,0,1,53.8754,41.2584ZM59.0737,36.89a1.4724,1.4724,0,0,1,.4526-.0916,1.13,1.13,0,0,1,.53.0913l-.4912,3.1564Zm.0568,6.0812a.4394.4394,0,0,0,.8684,0l.3149-2.0238a6.0363,6.0363,0,0,0,2.3438.9832,3.2358,3.2358,0,0,1-3.0513,2.7827,2.7394,2.7394,0,0,1-2.5934-1.5227,6.09,6.09,0,0,1-.5821-1.3,4.1184,4.1184,0,0,0,2.3857-.9376Zm.4435,7.5662-.0434,0c-1.8655-.0285-2.7849-1.9256-3.1377-2.9138a3.6046,3.6046,0,0,0,3.0037-1.7786,4.8174,4.8174,0,0,0,3.3061,1.87C62.3782,48.6265,61.4718,50.5374,59.574,50.5374Zm5.603-4.5051a.3729.3729,0,0,0-.1174.09,4.106,4.106,0,0,1-.5579.3377,3.4227,3.4227,0,0,1-4.2311-.9492,4.1828,4.1828,0,0,0,3.2814-3.5839c.0124-.0022.0251-.0029.0375-.0053a4.6274,4.6274,0,0,0,1.7169-.685,4.98,4.98,0,0,1,.8066,3.3973A2.5173,2.5173,0,0,1,65.177,46.0323Zm-1.7512-4.9735c-1.1264.2134-2.5342-.7593-2.9611-1.0805l.3058-1.9653a4.4009,4.4009,0,0,0,.4066.523,2.9615,2.9615,0,0,0,2.0369,1.0833l.0325,0a4.0537,4.0537,0,0,0,2.87-1.2158A3.1567,3.1567,0,0,1,63.4258,41.0588Zm-.7215-7.2616c.11-.2321.2294-.5209.3565-.8483a2.8073,2.8073,0,0,1,.612.95,1.8142,1.8142,0,0,1-.6429,1.9946,1.79,1.79,0,0,1-1.9517.1159A6.0644,6.0644,0,0,0,62.7043,33.7972Zm-6.672,2.0548a1.8133,1.8133,0,0,1-.6429-1.9944,2.7875,2.7875,0,0,1,.6115-.9513c.1272.328.2464.6172.3568.85a6.0625,6.0625,0,0,0,1.626,2.2118A1.79,1.79,0,0,1,56.0323,35.852Zm1.9295,2.6716a4.4072,4.4072,0,0,0,.3974-.51l.2891,1.858-.0062.0072a3.3084,3.3084,0,0,1-3.36,1.0758c-1.154-.199-1.7382-1.3888-2.0257-2.3525a3.9908,3.9908,0,0,0,2.636,1.0044l.0324,0A2.962,2.962,0,0,0,57.9618,38.5236Zm8.0651,7.938a3.2878,3.2878,0,0,0,.94-1.621,4.5193,4.5193,0,0,0-.149-2.387,3.3293,3.3293,0,0,0,1.3377.3031c.082.5685.1564,1.154.2184,1.7495q.1669,1.6056.19,3.03A3.7137,3.7137,0,0,1,66.0269,46.4616ZM68.02,41.87a2.9036,2.9036,0,0,1-2.036-1.2108l-.0016-.0025a4.7323,4.7323,0,0,0,1.1168-3.27C67.3559,38.42,67.719,40.0194,68.02,41.87ZM52.121,37.3528a.44.44,0,0,0-.0008.0488,7.17,7.17,0,0,0,1.06,3.106,2.8194,2.8194,0,0,1-2.2649,1.4642c.0253-.1621.05-.3236.0773-.4876.3083-1.8538.6742-3.44.92-4.4208Q52.0171,37.2131,52.121,37.3528ZM51.0411,56.68a3.9341,3.9341,0,0,1-1.34-.7139,3.3006,3.3006,0,0,1-.78-1.4031L50.2088,53.47Q50.5981,55.1976,51.0411,56.68Zm-1.9323-.0645a4.5249,4.5249,0,0,0,1.4612.83l-.8.9453a3.16,3.16,0,0,1-1.774-.8909,3.5781,3.5781,0,0,1-.8165-1.46L48.2,55.174A3.8071,3.8071,0,0,0,49.1088,56.6155Zm3.3294-2.4983a4.7167,4.7167,0,0,0-.0973,2.75,3.0321,3.0321,0,0,0,.8079,1.287,3.9035,3.9035,0,0,0-.5146.5347,41.9567,41.9567,0,0,1-1.2825-4.2145A4.3344,4.3344,0,0,0,52.4382,54.1172Zm.629,5.6274a2.1074,2.1074,0,0,1,.8139-1.0559,4.6612,4.6612,0,0,0,.5661.2752,4.8249,4.8249,0,0,0,1.0316.2891c.2162,1.36,1.1076,3.5143,3.2132,3.9966A3.597,3.597,0,0,1,55.54,64.4808a24.1163,24.1163,0,0,1-2.5005-4.74Zm1.4334,14.386a43.61,43.61,0,0,0,2.0345-7.0254q.1993.2.39.3751a34.7985,34.7985,0,0,1-1.2928,10.9663c-.1108.3547-.2309.71-.3572,1.0622l-1.907.0856-.3811-2.4966A26.9777,26.9777,0,0,0,54.5006,74.1306Zm1.97,4.5783a34.7372,34.7372,0,0,0,1.3606-10.4826,5.6152,5.6152,0,0,0,1.5881.8669l.0489-.1674.0474.1655a5.61,5.61,0,0,0,1.5656-.8431A34.9879,34.9879,0,0,0,62.44,78.8422a39.1093,39.1093,0,0,0,2.1138,5.2194l-4.9992,6.1418-5.2126-6.2615A39.0108,39.0108,0,0,0,56.471,78.7089Zm6.8081-.1279A35.0655,35.0655,0,0,1,61.99,67.5121q.2238-.2027.46-.4393a44.0443,44.0443,0,0,0,2.02,7.0434A27.1941,27.1941,0,0,0,65.9123,76.99l-.3744,2.6032L63.5847,79.5C63.4774,79.1946,63.3746,78.8877,63.2791,78.581Zm.2062-14.191a2.9189,2.9189,0,0,1-3.2184-1.1255c2.0268-.494,2.99-3.0724,3.2615-3.95a3.1133,3.1133,0,0,0,1.6329-.4778,1.6289,1.6289,0,0,1,.6615,1.1818A23.8187,23.8187,0,0,1,63.4853,64.39Zm2.3576-6.1157a4.0173,4.0173,0,0,0,.9405-4.066,3.11,3.11,0,0,0,.8485.2631,41.4229,41.4229,0,0,1-1.33,4.3311A3.6065,3.6065,0,0,0,65.8429,58.2743ZM69.3692,55.8a3.9322,3.9322,0,0,1-1.3837.7266c.2952-1.005.5754-2.0879.8349-3.2574l1.33,1.1285A3.3223,3.3223,0,0,1,69.3692,55.8Zm1.5-.7921,1.022.8672a3.6247,3.6247,0,0,1-.8175,1.4592,3.1618,3.1618,0,0,1-1.7735.891l-.8-.9456a4.5206,4.5206,0,0,0,1.4611-.83A3.8048,3.8048,0,0,0,70.8692,55.008Zm7.0662-23.6832a20.7869,20.7869,0,0,0,.2828-5.5255l21.0192-.1149a4.7689,4.7689,0,0,1-.6889,2.6575,9.46,9.46,0,0,1-3.8909,3.0718Zm.1969-6.4037a22.0531,22.0531,0,0,0-.6936-3.5149l26.9179-.0932a17.88,17.88,0,0,1-1.6324,1.912,6.7631,6.7631,0,0,1-2.9265,1.5776ZM73.92,31.861a13.11,13.11,0,0,0-.3585-8.846,2.807,2.807,0,0,1,.7657-1.1812,2.364,2.364,0,0,1,1.4176-.4224.237.237,0,0,0,.0251.0006l.7512-.0026c.401,1.3248,2.0362,7.5471-.5873,13.3822a15.8439,15.8439,0,0,1-7.0279,7.052c-.1911-1.1909-.4084-2.2832-.61-3.1981A11.5062,11.5062,0,0,0,73.92,31.861ZM65.84,26.3786a2.9126,2.9126,0,0,1,.8716-.8083,2.3484,2.3484,0,0,0-.1749,1.5894,10.1115,10.1115,0,0,0,.548,1.7794,2.7131,2.7131,0,0,1,.2749,1.42,3.1418,3.1418,0,0,1-.4405,1.1675L64.4413,29.24A15.2274,15.2274,0,0,1,65.84,26.3786Zm-2.4347,3.1008c-.1208.3165-.238.6321-.3512.9414l-3.02-2.6774-.0061-1.38ZM59.1106,26.35l-.0056,1.283-3.0971,2.746c-.1044-.2852-.2123-.5758-.3232-.8675Zm-7.1335,2.5472a10.0869,10.0869,0,0,0,.5482-1.7793A2.3494,2.3494,0,0,0,52.35,25.529a2.915,2.915,0,0,1,.8715.8084A15.5234,15.5234,0,0,1,54.65,29.2713L52.18,31.55a3.2581,3.2581,0,0,1-.4778-1.2328A2.7156,2.7156,0,0,1,51.9771,28.8976Zm-8.94-7.368a.1836.1836,0,0,0,.0235,0,2.3646,2.3646,0,0,1,1.4191.4224,2.8085,2.8085,0,0,1,.7656,1.181,13.1112,13.1112,0,0,0-.3583,8.846,11.4931,11.4931,0,0,0,5.7148,6.83c-.1992.93-.409,2.0238-.59,3.2088a15.8945,15.8945,0,0,1-7.1383-7.1082c-2.6194-5.8259-.9871-12.0561-.5869-13.3823ZM.96,21.3839l12.4206.043a16.4459,16.4459,0,0,0,2.0716,2.5287,5.8543,5.8543,0,0,0,1.24.9519L4.5242,24.8409a7.8568,7.8568,0,0,1-1.917-1.0938A4.2474,4.2474,0,0,1,.96,21.3839Zm6.1916,7.4693a5.598,5.598,0,0,1-1.5727-3.1278l13.1123.0717a5.567,5.567,0,0,0,.8826,3.2144,12.24,12.24,0,0,0,2.71,2.53l-11.3788.0605a.4432.4432,0,0,0-.086-.0369A8.6747,8.6747,0,0,1,7.1515,28.8532Zm5.2729,7.4928A4.3554,4.3554,0,0,1,11.0379,32.48l12.5829-.0668a5.9181,5.9181,0,0,0,1.0132,3.76,6.9517,6.9517,0,0,0,2.5611,2.3984l-10.4209.03c-.0146-.0027-.0287-.0069-.0436-.0082A7.9848,7.9848,0,0,1,12.4244,36.346Zm6.041,7.045a5.8808,5.8808,0,0,1-1.3584-3.9124l11.9611-.0343a5.4387,5.4387,0,0,0,1.1161,3.3945,12.0619,12.0619,0,0,0,2.4873,2.2638l-11.3248.0121a.443.443,0,0,0-.0839-.0013C21.2513,45.1159,20.0288,45.1944,18.4654,43.391Zm20.6557,4.2943A11.9982,11.9982,0,0,0,28.68,51.4417a11.9423,11.9423,0,0,1-3.9584-1.8444,8.0312,8.0312,0,0,1-2.7876-3.6045l27.6472-.03a23.8329,23.8329,0,0,0,.2823,5.865q.0662.3387.1346.6682l-.5079.431C48.66,51.8988,45.6181,48.71,39.1211,47.6853Zm4.9305,12.9531,1.2236-.0683-.0045,1.4365-.31.32-1.3294-1.2551Zm-.6246,3.27L42.0758,62.674l1.1886-1.2246,1.33,1.2553Zm-.1478-3.2315-.819.8439-.6992-.6572.6811-.734.8343-.0486Zm-2.855.8522c-.0511-.0108-.0991-.02-.1435-.0291a1.7244,1.7244,0,0,1-.8155-.3651,2.2438,2.2438,0,0,1-.2055-.161c-.0228-.02-.0425-.0406-.064-.061-.0386-.0364-.0772-.0727-.1116-.11-.0223-.0238-.042-.0474-.0625-.0711-.0141-.0162-.0274-.0322-.0407-.0483s-.03-.0346-.0435-.0516c-.0183-.0232-.0348-.0456-.0515-.0682-.0153-.0208-.03-.0409-.0435-.0609l-.0207-.0581.0635-.0009.0293,0h.113l.0271,0,.0832.0012.0143,0c.0308.0008.0615.0016.0917.0028l.0175.0009c.0288.0013.0574.0026.0851.0044l.025.0019c.0243.0017.0486.0034.0717.0055l.0448.005.0449.0051c.0285.0039.0558.0082.0812.013a1.6107,1.6107,0,0,1,1.0946.64l.0023-.0014.0372.0574Zm.4668-2.248a3.6266,3.6266,0,0,1,.2574-.55c.0346-.0628.0692-.1238.1022-.18a2.54,2.54,0,0,1,.2816.9149,1.7225,1.7225,0,0,1-.0752.89l-.0289.091-.2377.2562-.4033-.6157A1.9636,1.9636,0,0,1,40.891,59.2814Zm1.68-3.0033a2.6436,2.6436,0,0,1-.3951.6388l-.0255-.5037a.93.93,0,0,1,.3432-.4631,2.7836,2.7836,0,0,1,.2353-.1629A3.1534,3.1534,0,0,1,42.5705,56.2781ZM41.3942,57.834a1.5517,1.5517,0,0,1-.2387-.6753,1.0273,1.0273,0,0,1,.1538.1026c.0381.0317.077.0624.116.0928a.846.846,0,0,1,.2993.32l.0243.4834A2.0518,2.0518,0,0,1,41.3942,57.834Zm.2228-2.2911a1.7361,1.7361,0,0,1-.3987-.6683,3.4191,3.4191,0,0,1-.11-.4812c.0369.03.0726.0586.1054.0844a2.1288,2.1288,0,0,1,.3685.3746Zm-.2877.4175a1.0225,1.0225,0,0,1,.3253.3285l.0295.5854a2.83,2.83,0,0,1-.409-.5813,3.1289,3.1289,0,0,1-.1917-.4786A2.8594,2.8594,0,0,1,41.3293,55.96Zm.9085,2.1907-.0213-.42.0066.0007c.0182-.1675.1159-.2659.287-.4255.036-.0336.0722-.0674.1074-.1024a1.024,1.024,0,0,1,.1435-.1147,1.56,1.56,0,0,1-.1787.6929A2.0853,2.0853,0,0,1,42.2378,58.1511Zm.2654-3.1972a1.8364,1.8364,0,0,1-.3957.6187l-.0286-.5671a1.7564,1.7564,0,0,1,.448-.4477c.0338-.0241.0709-.051.1091-.0792A3.41,3.41,0,0,1,42.5032,54.9539Zm-3.9526,5.0109-.0151-.0161.0455.0148Zm-.71.3106c-.0123-.0482-.0247-.0964-.0386-.1443a1.04,1.04,0,0,1-.0321-.1817,2.1879,2.1879,0,0,1,.3836.3041v0a.2428.2428,0,0,0,.0157.0567c.0029.007.0221.052.0577.1215l.0045.0089.0228.0426.0106.02.0037.0069.02.0353.0171.03.0253.0417.0234.0382.0275.0425.0227.035c.0161.0549.03.11.0417.1611l-.4326-.2164A.84.84,0,0,1,37.84,60.2754Zm4.7621-1.1115a1.908,1.908,0,0,1-.301.2458l-.0208-.4109a.7914.7914,0,0,1,.3263-.3157c.0413-.0276.0829-.0554.1234-.0844a1.0218,1.0218,0,0,1,.1608-.09A1.55,1.55,0,0,1,42.6024,59.1639Zm-.7131-6.2063.0189-.0227.0273.0524a1.3851,1.3851,0,0,1,.24.7518.3028.3028,0,0,1-.0142.0575,1.5746,1.5746,0,0,1-.3453.4811.762.762,0,0,1-.2549-.5808A1.1622,1.1622,0,0,1,41.8893,52.9576Zm-.9233,5.117-.0108.0175c-.0012-.0132-.0038-.0267-.0053-.04Zm-1.2609-.4013c.0229-.0744.0459-.1493.0666-.2248a2.4307,2.4307,0,0,1,.2534-.551,3.0774,3.0774,0,0,1,.4472,1.4316,3.4907,3.4907,0,0,1-.2308.9255l-.6586-1.0057,0-.0044a1.21,1.21,0,0,1,.0266-.2225C39.6324,57.91,39.6678,57.7945,39.7051,57.6733ZM39.256,56.228a3.6966,3.6966,0,0,1-.0858,1.3907l-.72-1.0988a1.8322,1.8322,0,0,1,.1528-.7279,5.6242,5.6242,0,0,1,.2744-.5618c.0351-.0647.07-.1272.1018-.1844.1014.34.1944.6843.2434.9482A2.3008,2.3008,0,0,1,39.256,56.228Zm-1.7128-2.4051c.0744-.1617.1641-.369.2429-.554a8.1709,8.1709,0,0,1,.32,1.1663,2.7493,2.7493,0,0,1-.1175,1.3785l-.7151-1.0921A3.38,3.38,0,0,1,37.5432,53.8229ZM35.37,52.1448c.0105-.0594.0209-.1188.03-.1785a.5879.5879,0,0,0,.0065-.0945l.0139.0094c.0856.0575.1739.1139.2624.1708.16.1026.3172.2031.4591.3092a1.5014,1.5014,0,0,1,.5291.6115,2.4426,2.4426,0,0,1-.1021,1.2665,1.4524,1.4524,0,0,1-1.0553-.72A1.98,1.98,0,0,1,35.37,52.1448Zm-.1574,2.4329c.1982.0346.421.0721.5969.0978.05.0072.1.0162.1505.026L36,54.71q.0612.0126.1222.0274l.0319.0076c.05.0126.1.026.1479.04l.0244.0075q.06.018.1161.0373l.0382.0133c.0373.0132.0732.0268.1073.04l.02.0078c.0342.0141.065.0285.0949.0428l.5345.8252.2121.3275-.0138.01-.0227.0124a.2439.2439,0,0,1-.0308.0112l-.0254.0065a.3271.3271,0,0,1-.0384.0049l-.0267.0017c-.0148,0-.03,0-.0463-.0017l-.0273-.0023c-.0174-.002-.0354-.0051-.0537-.0086l-.0273-.0053c-.02-.0044-.04-.01-.0612-.0157l-.0263-.0075c-.0222-.0068-.0451-.0147-.0682-.0231l-.025-.0089c-.0243-.0092-.0492-.02-.0743-.03l-.0239-.01c-.0259-.0114-.0522-.0239-.0788-.0368l-.0233-.0111c-.0269-.0133-.0541-.0277-.0815-.0424l-.0235-.0125c-.0276-.0151-.0554-.0312-.0833-.0475l-.0235-.0136c-.0275-.0164-.055-.0336-.0825-.051l-.0254-.0159c-.0268-.0172-.0534-.0352-.08-.0532l-.0276-.0185c-.0272-.0188-.0543-.0383-.0813-.0579l-.0246-.0176c-.0277-.02-.055-.0415-.0822-.0625l-.022-.0168q-.0512-.04-.1008-.0819A8.19,8.19,0,0,1,35.2128,54.5777ZM36.31,56.6486a7.1775,7.1775,0,0,1,.8359-.007c.043.0037.0849.0083.1262.0134l.0381.0053q.0432.0059.0853.0131l.0431.008q.04.0078.0792.0173l.0407.01c.03.0079.06.0169.0892.0266l.0257.008c.0371.0129.0736.0275.11.0436l.0321.0156c.0256.0122.051.025.0763.0391l.0408.024.037.0239.6973,1.0766-.01.0007a.6326.6326,0,0,1-.0749-.0007l-.0176-.0018c-.0243-.0021-.0509-.0057-.079-.01l-.0336-.0058c-.0339-.0065-.07-.0147-.1094-.025L38.3,57.9111c-.0313-.0089-.0644-.0193-.0988-.0308l-.05-.0168c-.0467-.0166-.0965-.0359-.1489-.0575l-.0575-.0245q-.07-.03-.1467-.0663l-.0444-.0208c-.0648-.0314-.1337-.067-.2053-.1052l-.0591-.0321c-.0773-.0422-.1568-.0869-.2419-.1374A6.9734,6.9734,0,0,1,36.31,56.6486Zm1.8579,1.8174c.0767.0136.1538.0248.2307.0357.04.0059.08.0116.119.0176l.0359.006c.0273.0044.0545.0088.081.0137l.0434.0089c.0231.0046.0461.0094.0685.0147l.0456.0122c.0208.0056.0415.0113.0618.0178.0153.005.03.0106.0452.0161.0192.0071.0383.0145.057.0227.0148.0064.0293.0136.0438.0208q.027.0135.0531.0288.0211.0126.0418.0265c.0168.0114.0332.0237.0494.0365.0134.0106.0266.0215.04.0331l.0237.0236.5612.8665c-.0283.001-.0606.0006-.0938,0l-.0329-.0009c-.03-.0013-.0612-.0032-.0936-.0057l-.0593-.0054-.0544-.0058q-.05-.0056-.1017-.0129l-.0617-.009-.0639-.01c-.0366-.0064-.0732-.013-.11-.02l-.0408-.0087q-.05-.0108-.1-.0227l-.0311-.0076q-.0622-.0159-.1209-.0337l-.0246-.0077c-.0405-.0128-.08-.026-.1161-.04a3.0754,3.0754,0,0,1-1.103-1.0166A2.4208,2.4208,0,0,1,38.1674,58.466ZM36.929,59.7111a2.8256,2.8256,0,0,1,.3678.6081l-.5243-.2622a1.0191,1.0191,0,0,1-.17-.43c-.0142-.0722-.0259-.1762-.035-.284A3.1547,3.1547,0,0,1,36.929,59.7111Zm-2.0922.4492a1.7461,1.7461,0,0,1,.5894-.2306l.5075.2539a1.8824,1.8824,0,0,1-.7246.1141,3.4,3.4,0,0,1-.4886-.0693C34.7616,60.2047,34.8011,60.1816,34.8368,60.16Zm.8159-1.0711a1.7342,1.7342,0,0,1,.4517.6334l-.6178-.309a2.1229,2.1229,0,0,1-.1955-.4881c-.01-.04-.0222-.0846-.0349-.1306A3.4264,3.4264,0,0,1,35.6527,59.0892Zm-2.0157-.1-.0377-.0469.0279-.008a1.1486,1.1486,0,0,1,.8094-.0041.7612.7612,0,0,1,.43.4666,1.3086,1.3086,0,0,1-.6381.1131A1.3867,1.3867,0,0,1,33.637,58.9888Zm2.4887,1.7a.9309.9309,0,0,1,.5612-.1281l.45.2253a2.61,2.61,0,0,1-.7425.1053,3.0414,3.0414,0,0,1-.5128-.0525A2.83,2.83,0,0,1,36.1257,60.6885Zm.9344.7037a1.0366,1.0366,0,0,1,.1636-.0859c.0463-.0181.092-.0377.1375-.0574a.6836.6836,0,0,1,.5043-.0919l.002-.006.376.1881a2.0843,2.0843,0,0,1-.4763.1674A1.5608,1.5608,0,0,1,37.06,61.3922Zm1.9642.6878a1.5554,1.5554,0,0,1-.716.0009,1.02,1.02,0,0,1,.1474-.1111c.0426-.0254.0845-.052.126-.0786a.7911.7911,0,0,1,.4205-.1726l.3681.1841A1.9015,1.9015,0,0,1,39.0243,62.08Zm1.4464.6877a1.0365,1.0365,0,0,1-.1879-.3108l1.12-1.2065.6906.649L40.9276,63.1A1.7442,1.7442,0,0,1,40.4707,62.7677Zm1.9417,2.1878a2.48,2.48,0,0,1-.7486-.559,6.5017,6.5017,0,0,1-.61-.67l.109-.1123.0022-.0008,0-.001.5435-.56,1.3515,1.235Zm1.3673.7086a.977.977,0,0,1-.4083-.2116.9063.9063,0,0,1-.3025-.4168l1.1269-1.1627.6567.6467Zm1.0883-.39.0149.0149-.0339.0054Zm1.0111-1.85-.6659.71-.65-.6405.8651-.8926.4783-.0633Zm.0913-2.7773a2.3326,2.3326,0,0,0-.1688.1643l.0017-.52a.2637.2637,0,0,0-.2784-.2641l-.6066.0339c.1-.1.2009-.2036.2929-.3029a2.3567,2.3567,0,0,0,.2261-.2868,2.27,2.27,0,0,0,.206.2341,5.0994,5.0994,0,0,0,.7747.6141A3.5781,3.5781,0,0,0,45.97,60.6473Zm2.2723-.4518a4.8356,4.8356,0,0,1-1.987-1.1193,3.7088,3.7088,0,0,1-.7486-1.6167l.9543-.81a4.1167,4.1167,0,0,0,.9276,1.4858A4.218,4.218,0,0,0,49.1275,59.15Zm6.1839,4.2424c-.1156.4688-.3651,1.4242-.7285,2.5172l-.1743-.9267a18.0145,18.0145,0,0,0,.82-1.72C54.3713,64.3523,54.3989,64.3949,54.4266,64.4379ZM51.6726,69.74a1.9762,1.9762,0,0,1-.348-.5791c.3133-.3943,1.0462-1.3252,1.5188-1.9964l.2632,1.4c-.2058.504-.4317,1.002-.6763,1.4639q-.0576.109-.1168.2169A3.1734,3.1734,0,0,1,51.6726,69.74Zm-.5483,5.7876a2.9154,2.9154,0,0,1-.6755-1.0032,26.87,26.87,0,0,0,1.7364-2.3625l.253,1.3283a.44.44,0,0,0,.4315.3571l.0146,0,.7924-.026a25.8171,25.8171,0,0,1-1.31,2.5918A4.0144,4.0144,0,0,1,51.1243,75.5277Zm.4274,7.3361a5.2468,5.2468,0,0,1-1.3424-1.9325,21.9443,21.9443,0,0,0,2.0638-2.6881l.2861,1.8742a.44.44,0,0,0,.4342.3731l.02-.0006,1.9257-.0866c-.4859,1.2407-1.0229,2.4072-1.4835,3.3447A3.0084,3.0084,0,0,1,51.5517,82.8638Zm11.6124,8.0913a21.1488,21.1488,0,0,1-3.6612,3.7712A24.7232,24.7232,0,0,1,55.7467,90.78a45.3381,45.3381,0,0,1-2.5441-4.6392c.14-.2517.3954-.72.7116-1.34l5.2663,6.3262a.44.44,0,0,0,.3271.2081.4289.4289,0,0,0,.048.0026.4394.4394,0,0,0,.3407-.162l5.0865-6.2493c.3232.6364.5843,1.1167.7262,1.3726A45.4587,45.4587,0,0,1,63.1641,90.9551ZM67.399,82.882a2.7912,2.7912,0,0,1-2.0094.8823c-.464-.9545-.9971-2.1279-1.4751-3.369l1.9806.0946.0213.0006a.4394.4394,0,0,0,.4345-.3769l.28-1.95A22.11,22.11,0,0,0,68.734,80.94,5.2689,5.2689,0,0,1,67.399,82.882Zm.41-7.2618a4.3469,4.3469,0,0,1-1.175.8577,26.087,26.087,0,0,1-1.2926-2.5614l.708.0232.0146,0a.4394.4394,0,0,0,.4314-.3571l.253-1.3283a26.878,26.878,0,0,0,1.7361,2.3623A2.9082,2.9082,0,0,1,67.81,75.62Zm-.1773-6.3272a1.9768,1.9768,0,0,1-.3484.5792,3.1731,3.1731,0,0,1-.6411.5053q-.07-.1278-.1391-.257c-.2363-.4465-.4552-.9268-.6555-1.4136l.2652-1.41C66.5858,67.9678,67.3185,68.8985,67.6322,69.293Zm-2.1994-3.1324-.1776.9444c-.3823-1.1422-.6418-2.1425-.7555-2.6067q.042-.0647.0842-.13A17.688,17.688,0,0,0,65.4328,66.1606Zm8.209-3.7245.8651.8925-.65.64-.666-.71-.0271-.8859Zm3.352.0721-1.3512,1.2346-1.1669-1.2039,1.3295-1.2553Zm-2.8069,2.6151.0149-.015.0191.02Zm1.5114.1632a.9813.9813,0,0,1-.4079.212l-1.0732-1.1447.6566-.6466L76.0005,64.87A.9016.9016,0,0,1,75.6983,65.2865Zm1.7074-1.0559a2.5267,2.5267,0,0,1-.7472.56l-.6488-.6694,1.3515-1.2349.5434.56-.0005.001.0023.0008.1091.1124A6.4551,6.4551,0,0,1,77.4057,64.2306Zm1.1933-1.6289a1.7452,1.7452,0,0,1-.4571.3324l-1.1651-1.2.6905-.6492,1.12,1.2064A1.0327,1.0327,0,0,1,78.599,62.6017Zm.4941-3.0258.0616-.0939a.1356.1356,0,0,1,.0378.0525Zm-.3039,1.7584c-.0445.0087-.0926.0184-.1437.0293l-.4239-.4568.0186-.0285.1209.08a1.61,1.61,0,0,1,1.0946-.64,4.37,4.37,0,0,1,.7924-.0394l-.023.0643a2.51,2.51,0,0,1-.6207.6256A1.7231,1.7231,0,0,1,78.7892,61.3343Zm1.8342-.6061c.0115-.0514.0256-.1063.0417-.1612a2.6446,2.6446,0,0,0,.2355-.4223.2518.2518,0,0,0,.0158-.057,2.185,2.185,0,0,1,.3837-.3043,1.0165,1.0165,0,0,1-.0321.1821c-.0139.0475-.0262.0956-.0384.1435a.8486.8486,0,0,1-.1728.4026Zm-.1045-.9294-.0312-.0011.0462-.0149Zm-1.708.208.0778-.1187a.561.561,0,0,0,.1084.0484C78.9329,59.9579,78.871,59.9814,78.8109,60.0068Zm-.6325-.8915a1.9587,1.9587,0,0,1,.1041.8065l-.4033.6159-.2377-.2561-.0288-.091a1.7235,1.7235,0,0,1-.0752-.8905,2.538,2.538,0,0,1,.2817-.9149A4.5756,4.5756,0,0,1,78.1784,59.1153Zm-.8578-1.1233.0244-.4832a.842.842,0,0,1,.2991-.32c.039-.03.0783-.0613.1166-.0933a1.01,1.01,0,0,1,.1527-.102,1.5636,1.5636,0,0,1-.2377.675A2.0473,2.0473,0,0,1,77.3206,57.992Zm.474-1.8648a2.8176,2.8176,0,0,1-.4091.5813l.03-.5854a1.0218,1.0218,0,0,1,.3251-.3285,2.8444,2.8444,0,0,1,.2462-.146A3.1332,3.1332,0,0,1,77.7946,56.1272Zm.0567-1.4188a1.7352,1.7352,0,0,1-.3987.6685l.0348-.69a2.1371,2.1371,0,0,1,.3688-.3753c.0328-.0256.0683-.0541.1052-.0841A3.3992,3.3992,0,0,1,77.8513,54.7084ZM76.92,56.2472l-.0255.5036a2.6358,2.6358,0,0,1-.3947-.6385,3.17,3.17,0,0,1-.1579-.4908,2.7928,2.7928,0,0,1,.2352.1627A.9277.9277,0,0,1,76.92,56.2472Zm.0711-1.408-.0285.5654a1.8457,1.8457,0,0,1-.3958-.6167,3.421,3.421,0,0,1-.1329-.4752c.0383.0281.0754.0551.1093.0791A1.76,1.76,0,0,1,76.9907,54.8392Zm-.5385,2.1988c.0354.035.0718.069.108.103.1707.1592.2682.2576.2864.4247l.0064-.0007-.0212.42a2.0728,2.0728,0,0,1-.3444-.3689,1.5487,1.5487,0,0,1-.1795-.6933A1.0236,1.0236,0,0,1,76.4522,57.038Zm3.593,4.876a1.9032,1.9032,0,0,1-.3459-.1772l.3682-.1842a.7888.7888,0,0,1,.42.1727c.0417.0266.0834.0532.1263.0786a1.0415,1.0415,0,0,1,.1474.111A1.5558,1.5558,0,0,1,80.0452,61.914Zm1.2572-.5735a2.0791,2.0791,0,0,1-.4765-.1673l.3766-.1884.002.0066a.6832.6832,0,0,1,.5043.0917c.0454.02.0911.0391.1374.0573a1.0352,1.0352,0,0,1,.1625.0853A1.5743,1.5743,0,0,1,81.3024,61.3405Zm1.3724-.6153a2.6071,2.6071,0,0,1-.7423-.1055l.45-.2253a.9346.9346,0,0,1,.5611.1282,2.7935,2.7935,0,0,1,.2437.15A3.0822,3.0822,0,0,1,82.6748,60.7252Zm.9681-.9612a1.7664,1.7664,0,0,1,.59.23c.0357.0213.0751.0444.1163.0681a3.4176,3.4176,0,0,1-.4884.0694,1.8544,1.8544,0,0,1-.7248-.1143Zm.99-1a1.1457,1.1457,0,0,1,.8092.0039l.0282.0081-.0378.0468a1.3864,1.3864,0,0,1-.5914.5209,1.31,1.31,0,0,1-.6377-.1131A.7619.7619,0,0,1,84.6331,58.764Zm-1.2161.1594a3.4362,3.4362,0,0,1,.3963-.2941c-.0127.0458-.0245.09-.035.13a2.1163,2.1163,0,0,1-.1951.4881l-.6179.3091A1.7348,1.7348,0,0,1,83.417,58.9234Zm-1.2761.6218a3.1271,3.1271,0,0,1,.3612-.3678,2.825,2.825,0,0,1-.0348.2839,1.0176,1.0176,0,0,1-.17.43l-.5232.2617A2.867,2.867,0,0,1,82.1409,59.5452ZM80.4058,59.31a2.8572,2.8572,0,0,1-1.25.17l.5727-.8744.0872.0759a1.25,1.25,0,0,1,.8554-.3458c.077-.0112.1544-.0224.2313-.0359a2.4287,2.4287,0,0,1,.6069-.0065A3.0711,3.0711,0,0,1,80.4058,59.31Zm1.4166-2.0562c-.9877.5863-1.4389.5911-1.5393.5121l-.0281.0357.6461-.9866.03.0346c.0227-.02.0456-.0364.0684-.0541l.0432.0114c.0048-.0182.007-.0354.0112-.0533a1.6677,1.6677,0,0,1,.87-.2779,7.1758,7.1758,0,0,1,.8358.007A7.0016,7.0016,0,0,1,81.8224,57.2539Zm1.23-1.939c-.5333.4476-1.24.8013-1.4518.5918l-.1445.1464c-.0221.0051-.0444.0106-.0667.0166l.78-1.1907.0079.0079a.4263.4263,0,0,1,.0395-.03l.0614.0126c.0036-.0173.0035-.0381.0059-.0566a3.1531,3.1531,0,0,1,.9761-.3031c.1761-.0256.3989-.063.5969-.0977A8.1846,8.1846,0,0,1,83.0524,55.3149Zm-.6543-2.5083h0a2.31,2.31,0,0,1,.9884-.9209c.0886-.0566.1768-.1131.2624-.1706l.0136-.0092a.5824.5824,0,0,0,.0065.0942c.0094.06.02.1191.03.1783a1.9815,1.9815,0,0,1-.144,1.3752,1.4536,1.4536,0,0,1-1.0553.72A2.4431,2.4431,0,0,1,82.3981,52.8066ZM80.9639,54.27a8.15,8.15,0,0,1,.32-1.1663c.0787.1848.1685.3921.2428.5535a3.4,3.4,0,0,1,.27.899l-.7149,1.0916A2.7409,2.7409,0,0,1,80.9639,54.27Zm-1.15,1.7926A6.9865,6.9865,0,0,1,80.09,54.88a7.2151,7.2151,0,0,1,.3766.7463,1.8251,1.8251,0,0,1,.1511.73l-.72,1.0992A3.6357,3.6357,0,0,1,79.8136,56.0622Zm-.7691.6695a2.4158,2.4158,0,0,1,.2535.5509c.0206.0753.0436.15.0666.2244a2.0941,2.0941,0,0,1,.1221.5761l-.6589,1.0061a3.4908,3.4908,0,0,1-.23-.9259A3.0733,3.0733,0,0,1,79.0445,56.7317Zm-.9285,1.1969-.0122-.02.0157-.0218Zm-.9824-5.1063.0278-.0532.0187.0225a1.1472,1.1472,0,0,1,.3288.7394.7615.7615,0,0,1-.2549.5811,1.3,1.3,0,0,1-.36-.5389v0A1.3853,1.3853,0,0,1,77.1336,52.8223Zm-.7941,5.61c.0406.0292.0822.057.1235.0848a.7918.7918,0,0,1,.326.3154l-.0208.41a1.9068,1.9068,0,0,1-.301-.2454,1.5519,1.5519,0,0,1-.2885-.6559A1.0242,1.0242,0,0,1,76.34,58.4326Zm.288,1.5313.6812.7342-.6991.6572-.8193-.844.0031-.5958Zm-1.19.9412L74.1086,62.16l-.31-.32-.0044-1.4365,1.2236.0685ZM73.8726,59.58c.0966.1042.2032.2133.3079.3177l-.6358-.0356a.2662.2662,0,0,0-.1962.0721.2634.2634,0,0,0-.0822.192l.0017.5479a2.2908,2.2908,0,0,0-.1816-.178,3.5576,3.5576,0,0,0-.4526-.33,5.1,5.1,0,0,0,.7926-.6258,2.2953,2.2953,0,0,0,.2185-.25A2.36,2.36,0,0,0,73.8726,59.58Zm-1.0585-.67A4.8333,4.8333,0,0,1,70.8274,60.03l-.885-1.0455A4.2189,4.2189,0,0,0,71.6805,57.97a4.12,4.12,0,0,0,.9277-1.486l.9543.81A3.7108,3.7108,0,0,1,72.8141,58.91ZM94.0849,49.48a11.9529,11.9529,0,0,1-3.9584,1.8447,12.0042,12.0042,0,0,0-10.4418-3.7568c-6.187.9762-9.2421,3.9159-10.2361,5.0826l-.4214-.3576c.0265-.13.0534-.2589.0794-.3911a23.6389,23.6389,0,0,0,.2639-6.0557l27.5032.0295A8.0071,8.0071,0,0,1,94.0849,49.48Zm6.2555-6.2061c-1.5626,1.8022-2.7848,1.7235-2.79,1.7232a.43.43,0,0,0-.0956.0005L86.1343,44.985a12.06,12.06,0,0,0,2.4876-2.2637,5.4374,5.4374,0,0,0,1.1159-3.3946l11.9613.0343A5.8811,5.8811,0,0,1,100.34,43.2735Zm6.0412-7.0451a7.9848,7.9848,0,0,1-4.3047,2.2464.4256.4256,0,0,0-.0464.0085l-10.42-.03a6.95,6.95,0,0,0,2.561-2.3985,5.9166,5.9166,0,0,0,1.0135-3.76l12.58.0668A4.3861,4.3861,0,0,1,106.3816,36.2284Zm5.2725-7.4927a8.6757,8.6757,0,0,1-3.6662,2.7111.4375.4375,0,0,0-.0869.0372l-11.3792-.06a12.24,12.24,0,0,0,2.71-2.53,5.5658,5.5658,0,0,0,.8825-3.2141l13.1111-.0717A5.5934,5.5934,0,0,1,111.6541,28.7357Zm4.5446-5.1064a7.8539,7.8539,0,0,1-1.9188,1.0941l-12.166.0665a5.8524,5.8524,0,0,0,1.24-.9521,16.4451,16.4451,0,0,0,2.0716-2.5285l12.4192-.043A4.2641,4.2641,0,0,1,116.1987,23.6293Z"/>
      <path id="fullLogo" d="M75.5781,76.0916a.0664.0664,0,0,1,.0693.06l1.01,6.8565a.0775.0775,0,0,1-.07.08h-.68a.0859.0859,0,0,1-.0693-.0595l-.22-1.5293a.076.076,0,0,0-.07-.0606h-.92a.0749.0749,0,0,0-.0693.0606l-.22,1.5293a.0872.0872,0,0,1-.07.0595h-.67a.0767.0767,0,0,1-.0693-.08l.999-6.8565a.0674.0674,0,0,1,.07-.06Zm-.8994,4.5176a.071.071,0,0,0,.0693.08h.68a.0717.0717,0,0,0,.07-.08l-.36-2.789c-.01-.0391-.02-.05-.05-.05s-.04.0107-.05.05Z"/>
      <path id="fullLogo-2" data-name="fullLogo" d="M78.667,72.2166a.0754.0754,0,0,1,.0693-.07h.66a.0747.0747,0,0,1,.0693.07v6.0567a.0745.0745,0,0,0,.07.0693h1.2793a.0688.0688,0,0,1,.07.07v.6592a.0688.0688,0,0,1-.07.07H78.7363a.0754.0754,0,0,1-.0693-.07Z"/>
      <path id="fullLogo-3" data-name="fullLogo" d="M83.3154,69.6014v1.97a.0753.0753,0,0,0,.07.0694h1.18a.0753.0753,0,0,1,.0693.07V72.37a.0754.0754,0,0,1-.0693.07h-1.18a.0754.0754,0,0,0-.07.07v2.3486a.0745.0745,0,0,0,.07.0694h1.3291a.0687.0687,0,0,1,.07.07v.6591a.0688.0688,0,0,1-.07.07H82.5859a.0754.0754,0,0,1-.0693-.07V68.8026a.0753.0753,0,0,1,.0693-.07h2.1289a.0687.0687,0,0,1,.07.07v.6592a.0688.0688,0,0,1-.07.07H83.3857A.0745.0745,0,0,0,83.3154,69.6014Z"/>
      <path id="fullLogo-4" data-name="fullLogo" d="M88.1035,65.2528a.07.07,0,0,0-.06.0293l-.06.0605a.0861.0861,0,0,0-.0293.06v1.999a.0845.0845,0,0,0,.0293.06l.06.06a.0709.0709,0,0,0,.06.03h1.23a.1506.1506,0,0,1,.11.04l.3692.3692a.15.15,0,0,1,.04.11V70.829a.15.15,0,0,1-.04.11l-.47.47a.1483.1483,0,0,1-.1094.04h-1.46a.1483.1483,0,0,1-.1094-.04l-.47-.47a.15.15,0,0,1-.04-.11V69.5a.0744.0744,0,0,1,.0693-.0693h.66a.068.068,0,0,1,.07.0693v1a.086.086,0,0,0,.0293.06l.06.0606a.07.07,0,0,0,.06.0293h.8a.07.07,0,0,0,.06-.0293l.06-.0606a.0864.0864,0,0,0,.0293-.06v-1.999a.0884.0884,0,0,0-.0293-.0605l-.06-.06a.0712.0712,0,0,0-.06-.03h-1.23a.15.15,0,0,1-.11-.04l-.3692-.3692a.15.15,0,0,1-.04-.11V65.0721a.15.15,0,0,1,.04-.1094l.47-.47a.1482.1482,0,0,1,.1094-.04h1.46a.1482.1482,0,0,1,.1094.04l.47.47a.15.15,0,0,1,.04.1094v1.33a.068.068,0,0,1-.07.0693H89.123a.0746.0746,0,0,1-.07-.0693v-1a.0866.0866,0,0,0-.0293-.06l-.06-.0605a.07.07,0,0,0-.06-.0293Z"/>
      <path id="fullLogo-5" data-name="fullLogo" d="M28.9551,64.9608v1.97a.0752.0752,0,0,0,.07.0693h1.18a.0754.0754,0,0,1,.0693.07v.6591a.0753.0753,0,0,1-.0693.07h-1.18a.0755.0755,0,0,0-.07.07v2.3486a.0745.0745,0,0,0,.07.0693h1.3291a.0688.0688,0,0,1,.07.07v.6592a.0688.0688,0,0,1-.07.07H28.2256a.0754.0754,0,0,1-.0694-.07V64.162a.0755.0755,0,0,1,.0694-.07h2.1289a.0689.0689,0,0,1,.07.07v.6591a.0688.0688,0,0,1-.07.07H29.0254A.0745.0745,0,0,0,28.9551,64.9608Z"/>
      <path id="fullLogo-6" data-name="fullLogo" d="M34.1611,67.9618a.0662.0662,0,0,1,.0693.0595l1.01,6.8565a.0776.0776,0,0,1-.07.08h-.68a.0861.0861,0,0,1-.0693-.06l-.22-1.5293a.0762.0762,0,0,0-.07-.0606h-.92a.075.075,0,0,0-.0693.0606l-.22,1.5293a.0876.0876,0,0,1-.07.06h-.67a.0768.0768,0,0,1-.0693-.08l.999-6.8565a.0673.0673,0,0,1,.07-.0595Zm-.8994,4.5175a.071.071,0,0,0,.0693.08h.68a.0717.0717,0,0,0,.07-.08l-.36-2.789c-.01-.0391-.02-.05-.05-.05s-.04.0107-.05.05Z"/>
      <path id="fullLogo-7" data-name="fullLogo" d="M39.1855,79.3241a.0688.0688,0,0,1-.07.07h-.66a.0754.0754,0,0,1-.0694-.07V73.2674a.068.068,0,0,0-.07-.0693h-.81a.0747.0747,0,0,1-.0693-.07v-.6592a.0747.0747,0,0,1,.0693-.07h2.5586a.0688.0688,0,0,1,.07.07v.6592a.0688.0688,0,0,1-.07.07h-.8095a.0744.0744,0,0,0-.0694.0693Z"/>
      <path id="fullLogo-8" data-name="fullLogo" d="M42.8906,77.1053a.07.07,0,0,0-.06.0293l-.0605.0606a.0864.0864,0,0,0-.0293.0595v1.999a.0846.0846,0,0,0,.0293.06l.0605.0606a.0711.0711,0,0,0,.06.03h1.23a.15.15,0,0,1,.11.04l.3692.3691a.15.15,0,0,1,.04.11v2.7578a.15.15,0,0,1-.04.11l-.47.47a.1486.1486,0,0,1-.1094.04h-1.46a.1483.1483,0,0,1-.1093-.04l-.47-.47a.1506.1506,0,0,1-.04-.11V81.3524a.0744.0744,0,0,1,.0693-.0694h.66a.0681.0681,0,0,1,.07.0694v1a.0867.0867,0,0,0,.0293.06l.0605.06a.07.07,0,0,0,.06.0293h.8a.07.07,0,0,0,.06-.0293l.06-.06a.0863.0863,0,0,0,.0293-.06v-1.999a.0882.0882,0,0,0-.0293-.0606l-.06-.06a.0711.0711,0,0,0-.06-.03H42.4609a.15.15,0,0,1-.11-.04l-.3692-.3691a.1508.1508,0,0,1-.04-.11V76.9246a.15.15,0,0,1,.04-.1093l.47-.47a.1483.1483,0,0,1,.1093-.04h1.46a.1486.1486,0,0,1,.1094.04l.47.47a.1493.1493,0,0,1,.04.1093v1.33a.068.068,0,0,1-.07.0694H43.91a.0746.0746,0,0,1-.07-.0694v-1a.0859.0859,0,0,0-.0293-.0595l-.06-.0606a.07.07,0,0,0-.06-.0293Z"/>
      <path id="fullLogo-9" data-name="fullLogo" d="M11.11,7.9022a.115.115,0,0,1-.024-.2112,3.87,3.87,0,0,0,2.0163-3.3062C13.1023,1.7119,11.0629,0,7.9445,0H.6754A.3594.3594,0,0,0,.4172.5862a3.6228,3.6228,0,0,1,.6567,2.392V13.4358a3.6219,3.6219,0,0,1-.6567,2.3917.3593.3593,0,0,0,.2582.5861H8.2959c3.0244,0,5.2989-1.97,5.2989-5.0411A3.559,3.559,0,0,0,11.11,7.9022ZM4.5908,3.4a.3608.3608,0,0,1,.3523-.3518H7.475a1.7825,1.7825,0,0,1,1.9231,1.829A1.7773,1.7773,0,0,1,7.475,6.6829H4.9431a.3609.3609,0,0,1-.3523-.3519Zm3.2365,9.9651H4.9431a.3608.3608,0,0,1-.3523-.3514V9.9185a.3608.3608,0,0,1,.3523-.3515H7.8273a1.9057,1.9057,0,1,1,0,3.7983Z"/>
      <path id="fullLogo-10" data-name="fullLogo" d="M20.6578,3.2429a.4134.4134,0,0,0,.0495-.4412.3893.3893,0,0,0-.3505-.2271H16.7483a.39.39,0,0,0-.3505.2266.4152.4152,0,0,0,.05.4438,2.8954,2.8954,0,0,1,.5242,1.93v8.7474a2.8944,2.8944,0,0,1-.5259,1.932.415.415,0,0,0-.0487.4421.39.39,0,0,0,.3505.2262h3.6085a.39.39,0,0,0,.3505-.2266.4143.4143,0,0,0-.0495-.4417l-.0018-.0021a2.8949,2.8949,0,0,1-.5233-1.93V5.1754A2.8953,2.8953,0,0,1,20.6578,3.2429Z"/>
      <path id="fullLogo-11" data-name="fullLogo" d="M36.4433,15.842a5.1377,5.1377,0,0,1-2.159-2.4361,4.7385,4.7385,0,0,0-2.2275-2.4182A3.9112,3.9112,0,0,0,35.3924,6.96a4.2134,4.2134,0,0,0-4.3266-4.3853H24.3192a.39.39,0,0,0-.3506.2266.4155.4155,0,0,0,.0505.4438,2.8954,2.8954,0,0,1,.5241,1.93v8.7474a2.8944,2.8944,0,0,1-.5258,1.932.4152.4152,0,0,0-.0488.4421.39.39,0,0,0,.3506.2262h3.6084a.39.39,0,0,0,.3506-.2266.4155.4155,0,0,0-.0513-.4438,2.8949,2.8949,0,0,1-.5233-1.93V11.4905a.1921.1921,0,0,1,.1847-.1847h.6866c.7593,0,1.2664.9641,1.853,2.0809.8448,1.6071,1.8957,3.6071,4.2275,3.6071a4.0654,4.0654,0,0,0,1.83-.4412l.0077-.0039a.3778.3778,0,0,0,.177-.3625A.3851.3851,0,0,0,36.4433,15.842ZM32.2116,7.0386a1.6773,1.6773,0,0,1-1.6751,1.6751H27.8883a.1921.1921,0,0,1-.1847-.1847V5.5281a.1921.1921,0,0,1,.1847-.1847h2.6482A1.7291,1.7291,0,0,1,32.2116,7.0386Z"/>
      <path id="fullLogo-12" data-name="fullLogo" d="M44.8145,2.5746h-5.57a.39.39,0,0,0-.3506.2266.4154.4154,0,0,0,.05.4438,2.8948,2.8948,0,0,1,.5242,1.93v8.7474a2.8938,2.8938,0,0,1-.5259,1.932.4152.4152,0,0,0-.0487.4421.39.39,0,0,0,.3506.2262h5.57a6.9747,6.9747,0,0,0,0-13.9485ZM48.53,9.5491a3.979,3.979,0,0,1-3.9308,4.1073H42.8137a.1919.1919,0,0,1-.1847-.1847V5.6264a.192.192,0,0,1,.1847-.1847h1.7854A3.9791,3.9791,0,0,1,48.53,9.5491Z"/>
      <path id="fullLogo-13" data-name="fullLogo" d="M61.4766,8.7436c-.2283-.1052-.4592-.2086-.6926-.313-.5447-.2432-1.1082-.4951-1.6563-.7836-1.4519-.7461-1.4519-1.1856-1.4519-1.3733,0-.8581,1.115-1.0872,1.7734-1.0872a5.2813,5.2813,0,0,1,3.6589,2.0346.3693.3693,0,0,0,.3232.1424.428.428,0,0,0,.3147-.1372.3528.3528,0,0,0,.0889-.2758l-.2942-3.3921c-.0256-.333-.177-.5323-.4036-.5323a.7944.7944,0,0,0-.3608.0988.5942.5942,0,0,1-.2668.0774,2.2376,2.2376,0,0,1-.5207-.1839,6.4338,6.4338,0,0,0-2.54-.62c-3.1014,0-4.9535,1.4925-4.9535,3.9928,0,2.6593,2.2292,3.6332,4.1959,4.4926l.2719.1133c.8106.3313,2.3181.9478,2.3181,1.7683,0,.8153-.773,1.342-1.9692,1.342a3.606,3.606,0,0,1-3.481-2.7089.4287.4287,0,0,0-.4421-.351.4429.4429,0,0,0-.2488.053,2.2685,2.2685,0,0,0-1.1159,2.0385c.02,2.0847,2.2223,3.7175,5.0133,3.7175,3.5742,0,5.464-1.4891,5.464-4.3066C64.5019,10.5581,63.3441,9.6166,61.4766,8.7436Z"/>
      <path id="fullLogo-14" data-name="fullLogo" d="M80.0865,2.5746H76.4781a.39.39,0,0,0-.3506.2266.4172.4172,0,0,0,.05.4438,2.8948,2.8948,0,0,1,.5242,1.93V10.04c0,.0179-.0094.0273-.0325.0179L68.572,2.4887a.4148.4148,0,0,0-.696.2937v11.14a2.8953,2.8953,0,0,1-.525,1.932.4146.4146,0,0,0-.05.4417.39.39,0,0,0,.3506.2266H71.26a.39.39,0,0,0,.3506-.2262.4162.4162,0,0,0-.05-.4442,2.8919,2.8919,0,0,1-.5233-1.93V8.98c0-.0107.0188-.0261.05-.0184l8.0975,7.647a.3993.3993,0,0,0,.2933.1107.3945.3945,0,0,0,.384-.4036V5.1754a2.8954,2.8954,0,0,1,.5241-1.93l.0017-.0021a.4145.4145,0,0,0,.0488-.4417A.39.39,0,0,0,80.0865,2.5746Z"/>
      <path id="fullLogo-15" data-name="fullLogo" d="M93.2684,13.1464a.3372.3372,0,0,0-.2164.0573,3.3743,3.3743,0,0,1-1.9017.4527h-3.59a.192.192,0,0,1-.1847-.1847v-2.53a.192.192,0,0,1,.1847-.1847h2.5105a2.4528,2.4528,0,0,1,1.57.419.3334.3334,0,0,0,.2351.0906.3493.3493,0,0,0,.3446-.3446V7.7248a.3493.3493,0,0,0-.3446-.3446.3227.3227,0,0,0-.2257.0833,2.4535,2.4535,0,0,1-1.5794.4267H87.5607a.1921.1921,0,0,1-.1847-.1851V5.6264a.1921.1921,0,0,1,.1847-.1847h3.2365a3.3745,3.3745,0,0,1,1.9017.4528A.3825.3825,0,0,0,93.235,5.82a.3889.3889,0,0,0,.0821-.3284l-.41-2.5657a.4044.4044,0,0,0-.4028-.351H83.9916a.39.39,0,0,0-.3506.2266.4155.4155,0,0,0,.05.4438,2.8954,2.8954,0,0,1,.5242,1.93v8.7474a2.8944,2.8944,0,0,1-.5259,1.932.4152.4152,0,0,0-.0488.4421.39.39,0,0,0,.3506.2262h8.8646a.4031.4031,0,0,0,.4028-.3472l.4113-2.5652a.3729.3729,0,0,0-.0753-.3155A.4233.4233,0,0,0,93.2684,13.1464Z"/>
      <path id="fullLogo-16" data-name="fullLogo" d="M103.5387,8.7436c-.2283-.1052-.4592-.2086-.6926-.313-.5447-.2432-1.1082-.4951-1.6563-.7836-1.4511-.7457-1.4511-1.1856-1.4511-1.3733,0-.8581,1.1151-1.0872,1.7735-1.0872a5.2813,5.2813,0,0,1,3.658,2.0346.3694.3694,0,0,0,.3232.1424.428.428,0,0,0,.3147-.1372.3528.3528,0,0,0,.0889-.2758l-.2941-3.3921c-.0257-.333-.177-.5323-.4036-.5323a.7953.7953,0,0,0-.3609.0988.5942.5942,0,0,1-.2668.0774,2.2376,2.2376,0,0,1-.5207-.1839,6.4327,6.4327,0,0,0-2.5387-.62c-3.1023,0-4.9544,1.4925-4.9544,3.9928,0,2.6593,2.2292,3.6332,4.1959,4.4926l.2719.1133c.8106.3313,2.3181.9478,2.3181,1.7683,0,.8153-.7729,1.342-1.9692,1.342a3.606,3.606,0,0,1-3.481-2.7089.4287.4287,0,0,0-.4421-.351.4431.4431,0,0,0-.2488.053,2.2685,2.2685,0,0,0-1.1159,2.0385c.02,2.0847,2.2223,3.7175,5.0133,3.7175,3.5742,0,5.464-1.4891,5.464-4.3066C106.564,10.5581,105.4062,9.6166,103.5387,8.7436Z"/>
      <path id="fullLogo-17" data-name="fullLogo" d="M119.3063.3048A.3521.3521,0,0,0,118.9549,0H107.8406a.3536.3536,0,0,0-.3523.3048l-.4917,3.0719a.3539.3539,0,0,0,.3515.422.3741.3741,0,0,0,.1872-.07,4.1888,4.1888,0,0,1,2.3447-.5631h1.4074a.3606.3606,0,0,1,.3514.3519v9.9184a3.6214,3.6214,0,0,1-.6567,2.3917.3594.3594,0,0,0,.2583.5861h4.3147a.3588.3588,0,0,0,.2574-.5861,3.6219,3.6219,0,0,1-.6567-2.3917V3.5174a.3609.3609,0,0,1,.3523-.3519h1.4066a4.1887,4.1887,0,0,1,2.3446.5631.3767.3767,0,0,0,.1881.07.3543.3543,0,0,0,.3515-.422Z"/>
    </g>
  </g>
</svg>
