<svg xmlns="http://www.w3.org/2000/svg" viewBox="0 0 118.8061 75.3458">
  <title>birdsnest-logo-mark-reverse-rgb</title>
  <g id="white-rgb">
    <path id="logoMark" d="M118.6844.1358A.4394.4394,0,0,0,118.3668,0h-.0016L75.7762.1475A3.2275,3.2275,0,0,0,73.7683.77,3.808,3.808,0,0,0,72.666,2.5453a.4384.4384,0,0,0,.0307.3062,12.27,12.27,0,0,1,.3836,8.3633,10.7894,10.7894,0,0,1-4.9884,6.1532c-.16-.6775-.297-1.1988-.3822-1.5126a5.3539,5.3539,0,0,0-.2168-3.9684,4.4022,4.4022,0,0,0,.7429-1.8448,3.5282,3.5282,0,0,0-.3333-1.811,9.2075,9.2075,0,0,1-.5061-1.6394,1.477,1.477,0,0,1,.657-1.6287,3.2694,3.2694,0,0,1,1.0422-.476.4394.4394,0,0,0-.1066-.8683,5.2643,5.2643,0,0,0-3.8707,1.8729,14.8736,14.8736,0,0,0-1.3677,2.7248l-3.868-3.57a.4348.4348,0,0,0-.1351-.0816l-.016-.01a.4392.4392,0,0,0-.475.0791L55.3412,8.2474a15.1307,15.1307,0,0,0-1.3975-2.7969A5.2632,5.2632,0,0,0,50.073,3.5776a.4341.4341,0,0,0-.4479.3856.4394.4394,0,0,0,.3413.4826c.0838.0184,2.0452.4712,1.6994,2.1046A9.23,9.23,0,0,1,51.16,8.19a3.5272,3.5272,0,0,0-.3333,1.8111,4.5393,4.5393,0,0,0,.7974,1.9269,5.5331,5.5331,0,0,0-.3137,3.5833c-.0822.2932-.2777,1.0124-.511,2.0229a10.7549,10.7549,0,0,1-5.0734-6.2016,12.3268,12.3268,0,0,1,.3834-8.3633.4387.4387,0,0,0,.0307-.3063A3.8084,3.8084,0,0,0,45.0377.8873,3.2261,3.2261,0,0,0,43.03.2651L.4409.1176H.4393A.4393.4393,0,0,0,.0005.5784,4.9472,4.9472,0,0,0,2.0879,4.07,8.2956,8.2956,0,0,0,4.3645,5.327v.006h.0183c.1191.0379.2251.0659.3183.0864a6.45,6.45,0,0,0,1.7751,3.61,9.9546,9.9546,0,0,0,3.7071,2.8491A5.2244,5.2244,0,0,0,11.8223,16.6a9.2534,9.2534,0,0,0,4.4053,2.4157,6.705,6.705,0,0,0,1.5739,4.5648,5.1877,5.1877,0,0,0,3.1829,2.01,8.985,8.985,0,0,0,3.2511,4.3535,11.23,11.23,0,0,0,4.5687,2.0234.4356.4356,0,0,0,.3793-.1556c.0384-.0457,3.9066-4.5742,9.8007-3.6444,6.1966.9777,9.1147,4.0665,9.8329,4.9452l-4.0775,3.46a.4392.4392,0,0,0-.149.4088,6.0758,6.0758,0,0,0,.53,1.6059,1.9439,1.9439,0,0,1-.2965.4276c-.2339.2524-.54.5448-.7114.7062l-.1937.0108a.26.26,0,0,0-.1155.0381l-.0017-.3549a.2635.2635,0,0,0-.2789-.2619l-.6486.0377c.0509-.0457.0821-.0766.0836-.0782a2.6426,2.6426,0,0,0,.4881-1.3381.2443.2443,0,0,0-.3046-.26c-.01.0026-.04.0106-.08.0227a2.9144,2.9144,0,0,0,.1922-1.2672.2442.2442,0,0,0-.1171-.1927.2416.2416,0,0,0-.0993-.0338l.0061-.0157.0151-.0392.0208-.0563.0149-.0435.021-.0642.0141-.0456.0212-.0712.0136-.0481.0207-.0751.0132-.05.02-.0776.0131-.0523.0185-.0758.0132-.0556.0166-.0717.0132-.0581.0144-.065.0137-.0625.0112-.0522.0146-.0692.008-.0387.0148-.0723.0048-.0238c.0321-.16.0541-.2792.0606-.3155a.2419.2419,0,0,0-.0008-.091.205.205,0,0,0-.2019-.19.2384.2384,0,0,0-.1135.0094c.1217-.5373.2315-1.2065.2484-1.311a.2443.2443,0,0,0-.4774-.1013l-.1733.66-.0676.0516c.0038-.0174.008-.0349.01-.0523a1.7714,1.7714,0,0,0-.29-1.0441c-.0288-.0554-.0576-.11-.0847-.1655a.388.388,0,0,1-.0223-.0573,2.8619,2.8619,0,0,1-.0682-.7049c.0108-.1838.0137-.3517.0139-.4674h0v0a.2442.2442,0,0,0-.4879-.0175c-.0048.069-.0156.248-.0156.4637a2.402,2.402,0,0,1-.1224.75c-.0221.0276-.0446.0544-.0671.0813a1.6225,1.6225,0,0,0-.44,1.0047c-.0027.027-.0024.0529-.0029.0792l-.012-.01-.1421-.6671a.2443.2443,0,0,0-.4816.0786c.0134.1173.1087.9393.22,1.5a.2443.2443,0,0,0-.3437.28,10.1244,10.1244,0,0,0,.5317,1.6134.2464.2464,0,0,0-.1157.0455.2439.2439,0,0,0-.1.2022c.0006.03.004.1371.02.2825a5.8138,5.8138,0,0,0-.41-.7523.2442.2442,0,0,0-.1977-.1089.2487.2487,0,0,0-.2025.0995c-.0043.006-.0352.0481-.0805.1157-.0038-.07-.0084-.1425-.0142-.2166a16.3218,16.3218,0,0,0-.7258-2.6014.2443.2443,0,0,0-.4716.1193l.135.8761-.043.0745-.0118.02-.0076.0133c-.0078-.1418-.02-.2545-.0275-.3172a23.52,23.52,0,0,0-.9293-2.9287.2443.2443,0,0,0-.4644.15l.2981,1.1029c-.0549.1323-.1727.4144-.2839.6686v-.003c.0009-.047,0-.0935-.002-.14l-.0027-.0386c-.0022-.0335-.0052-.0666-.0093-.0993l-.0064-.0452c-.0049-.0312-.0109-.0617-.0178-.0918l-.0091-.04a1.0375,1.0375,0,0,0-.0393-.1214h0a2.6842,2.6842,0,0,0-1.1777-1.1488c-.0856-.0549-.1707-.11-.2536-.1651a.7936.7936,0,0,1-.091-.0728,3.7217,3.7217,0,0,1-.5494-.7306c-.05-.0806-.0986-.1618-.1446-.2416-.087-.1744-.1718-.3337-.2416-.4608-.0419-.0763-.0784-.141-.1066-.1905a.2442.2442,0,0,0-.2351-.1221.2407.2407,0,0,0-.091.0272.2442.2442,0,0,0-.1059.3226c.03.0627.16.3259.34.6405a3.5885,3.5885,0,0,1,.45,1.2429c-.0089.0568-.0189.1129-.0288.1692a2.4708,2.4708,0,0,0,.1795,1.6606,1.4958,1.4958,0,0,0,.2457.3792c-.173-.03-.33-.0588-.421-.0755l-.7628-.85a.2443.2443,0,0,0-.3786.3079,23.523,23.523,0,0,0,1.9511,2.3738,4.8286,4.8286,0,0,0,.4222.3148l-.0973.0063-.7258-.5088a.2442.2442,0,0,0-.3157.37,16.3029,16.3029,0,0,0,2.0112,1.8027q.1454.0862.2821.1606c-.1078.0151-.1785.0287-.1871.03a.2443.2443,0,0,0-.1627.3657,5.7408,5.7408,0,0,0,.7115.921l-.0155-.0073a.2431.2431,0,0,0-.2255.01.246.246,0,0,0-.0881.0877,10.1091,10.1091,0,0,0-1.264-1.1349.2442.2442,0,0,0-.394.2022c-.4692-.327-1.1835-.7443-1.2854-.8035a.2443.2443,0,0,0-.2655.4094l.5536.398.0044.0149c-.0242-.01-.0479-.0207-.0737-.0291a1.62,1.62,0,0,0-1.0972,0c-.0336.01-.0671.02-.099.0282a2.4375,2.4375,0,0,1-.7392-.1895c-.1972-.0865-.365-.1483-.43-.1716a.2442.2442,0,0,0-.18.4539c.1059.0462.26.1109.4328.1746a2.3014,2.3014,0,0,1,.6626.39c.04.0472.0788.0959.1183.145a1.7716,1.7716,0,0,0,.8385.6843h0c.0171.0048.0355.0069.0532.0105l-.0757.0418-.6736-.106a.2442.2442,0,0,0-.0992.4777c.1025.0265.76.1948,1.3.2992a.238.238,0,0,0-.0632.127.2441.2441,0,0,0,.185.2716,10.8426,10.8426,0,0,0,1.6249.278.2413.2413,0,0,0,.1194.29,3.0006,3.0006,0,0,0,1.1839.3352c.0182,0,.036-.0014.054-.0022-.0272.032-.0466.0561-.053.0642a.2441.2441,0,0,0,.1155.3832,3.386,3.386,0,0,0,.95.1613,1.4257,1.4257,0,0,0,.4717-.0705,2.97,2.97,0,0,0,.61-.3357l-.0126.0135a.264.264,0,0,0-.0577.26,1.8213,1.8213,0,0,0,.3853.6768,2.8342,2.8342,0,0,0,.4336.3381l-.011.0114a.2636.2636,0,0,0-.0708.2282,3.1436,3.1436,0,0,0,.8279,1.0381c.6905.6851,1.09.7418,1.2022.7418h.0038a.2627.2627,0,0,0,.1771-.0725,1.5268,1.5268,0,0,0,.3616.42,1.35,1.35,0,0,0,.8324.3421l.0341-.001a.2649.2649,0,0,0,.1727-.0826l.2278-.243.6993-.111-.3524,1.5339.4761.11.35-1.5234L47.57,47.5972l.3459-.3449-2.0115-2.0165,1.0041-.1593-.0765-.4826-1.1907.189.2189-.9532.4715-.5029a.2638.2638,0,0,0,.0711-.1723l.0395-1.2956a.2635.2635,0,0,0-.298-.2694l-.3467.0458.001-.3337a3.0277,3.0277,0,0,1,.5175-.6423,3.4944,3.4944,0,0,1,.6283-.42,5.5114,5.5114,0,0,0,1.38.4945.44.44,0,0,0,.413-.1486l2.6614-3.1441a30.8177,30.8177,0,0,0,2.3633,5.5058,14.7827,14.7827,0,0,1-1.34,2.8754c-.295.5187-1.4938,2.0442-1.9307,2.5882a.4394.4394,0,0,0-.0862.3716,2.8236,2.8236,0,0,0,.61,1.1548,4.0564,4.0564,0,0,0,.8583.6852,25.8455,25.8455,0,0,1-2.2534,3.137.439.439,0,0,0-.0931.3993,3.7652,3.7652,0,0,0,.9953,1.6235A5.3678,5.3678,0,0,0,51.91,56.7894a21.1151,21.1151,0,0,1-2.5172,3.3417.4392.4392,0,0,0-.1094.433,6.0386,6.0386,0,0,0,1.6887,2.5739,4.1632,4.1632,0,0,0,2.0631,1.0609c-.4155.8075-.7016,1.3092-.7094,1.3227a.44.44,0,0,0-.0142.41,48.996,48.996,0,0,0,2.7294,4.9846,25.2548,25.2548,0,0,0,4.1177,4.2789.4393.4393,0,0,0,.59.0657,21.4338,21.4338,0,0,0,4.123-4.17A49.1392,49.1392,0,0,0,66.6,66.09a.44.44,0,0,0-.0142-.4093c-.0082-.0142-.3217-.5655-.77-1.4454a4.0385,4.0385,0,0,0,2.166-1.082A6.0655,6.0655,0,0,0,69.66,60.5723a.4386.4386,0,0,0-.1084-.43,20.9243,20.9243,0,0,1-2.4629-3.2906,5.5615,5.5615,0,0,0,1.3237-.9771,3.7646,3.7646,0,0,0,.9955-1.6237.4391.4391,0,0,0-.0933-.3991,25.7706,25.7706,0,0,1-2.23-3.098,4.0525,4.0525,0,0,0,.8574-.6845,2.8225,2.8225,0,0,0,.61-1.1547.439.439,0,0,0-.086-.3717c-.4371-.544-1.6359-2.0694-1.9309-2.588a14.0854,14.0854,0,0,1-1.3613-2.9489,30.7983,30.7983,0,0,0,2.4721-5.761l2.6872,3.1745a.44.44,0,0,0,.3353.1555.4452.4452,0,0,0,.0777-.0069,5.5386,5.5386,0,0,0,1.4-.5053,3.48,3.48,0,0,1,.62.4164,2.9768,2.9768,0,0,1,.5047.62l.0012.37-.3466-.0458a.2635.2635,0,0,0-.2979.27l.04,1.2953a.2636.2636,0,0,0,.071.1724l.4715.5029.2189.9533-1.1907-.189-.0765.4826,1.0041.1594-2.0113,2.0162.3459.345,2.093-2.0981.35,1.5233.476-.1095-.3522-1.5339.7.111.2277.2429a.2643.2643,0,0,0,.1726.0825l.0343.001a1.349,1.349,0,0,0,.8322-.342,1.5255,1.5255,0,0,0,.3617-.42.2625.2625,0,0,0,.1769.0723h.0037c.1119,0,.5118-.0566,1.2022-.7417A3.1328,3.1328,0,0,0,78.605,43.18a.2628.2628,0,0,0-.0707-.2279l-.011-.0113a2.8311,2.8311,0,0,0,.4337-.3383,1.819,1.819,0,0,0,.3851-.6767.2635.2635,0,0,0-.0576-.26l-.0128-.0138a2.9582,2.9582,0,0,0,.61.3359,1.4255,1.4255,0,0,0,.4718.0706,3.3826,3.3826,0,0,0,.95-.1614.2441.2441,0,0,0,.1155-.3832c-.0064-.0081-.0258-.0321-.0529-.0641.0179.0007.0356.0022.0538.0022a3.0027,3.0027,0,0,0,1.1836-.3352.2444.2444,0,0,0,.13-.1847.2418.2418,0,0,0-.01-.1051,10.8684,10.8684,0,0,0,1.625-.2779.244.244,0,0,0,.185-.2715.2382.2382,0,0,0-.0634-.1271c.5411-.1045,1.1982-.2728,1.3007-.2994a.2443.2443,0,0,0-.0991-.4778l-.6737.1062-.0758-.0418c.0177-.0035.0361-.0057.0532-.0105h0a1.772,1.772,0,0,0,.8387-.6846c.0394-.0489.0786-.0976.1184-.1448a2.291,2.291,0,0,1,.6612-.3891c.1727-.0638.3278-.1289.4341-.1751a.2443.2443,0,0,0-.18-.4539c-.065.0234-.2335.0855-.4312.1721a2.3639,2.3639,0,0,1-.7358.1893c-.034-.0092-.0674-.019-.1009-.0288a1.6227,1.6227,0,0,0-1.0972.0009c-.0259.0084-.05.0191-.074.0292l.0045-.0153.5539-.398a.2443.2443,0,0,0-.2655-.41c-.102.0592-.8163.4768-1.2855.8037a.2441.2441,0,0,0-.394-.2023,10.1039,10.1039,0,0,0-1.2642,1.1352.2437.2437,0,0,0-.3133-.0982l-.0157.0074a5.7329,5.7329,0,0,0,.7116-.9212.2443.2443,0,0,0-.1629-.3657c-.0086-.0018-.0793-.0153-.187-.03q.1366-.0741.2821-.16a16.323,16.323,0,0,0,2.0114-1.8028.2442.2442,0,0,0-.3156-.37l-.726.509-.0975-.0063a4.85,4.85,0,0,0,.4222-.3149,23.5144,23.5144,0,0,0,1.9512-2.3739.2443.2443,0,0,0-.3786-.3079l-.7627.8508c-.0912.0166-.25.0454-.4241.0758a1.4906,1.4906,0,0,0,.2487-.38,2.47,2.47,0,0,0,.18-1.6609c-.01-.0561-.02-.1122-.0288-.1689a3.5892,3.5892,0,0,1,.45-1.2432c.18-.3144.31-.5775.34-.64a.2443.2443,0,0,0-.4318-.2279c-.0753.132-.2088.3719-.348.651a3.7334,3.7334,0,0,1-.785,1.0453c-.0829.0556-.168.11-.2536.1649a2.6864,2.6864,0,0,0-1.178,1.149v0a1.4917,1.4917,0,0,0-.0858.581c-.1115-.2549-.23-.5381-.2849-.6708l.2982-1.1031a.2443.2443,0,0,0-.4644-.15,23.5343,23.5343,0,0,0-.9293,2.9288c-.0077.0625-.02.1761-.0273.3176l-.0626-.1087.1352-.8763a.2443.2443,0,0,0-.4716-.1193,16.3209,16.3209,0,0,0-.7261,2.6018q-.0085.111-.0141.2164c-.0454-.0676-.0763-.11-.0808-.1158a.238.238,0,0,0-.2025-.0994.2443.2443,0,0,0-.1975.1088,5.8222,5.8222,0,0,0-.41.7523c.0159-.1453.0193-.2523.02-.2824a.2444.2444,0,0,0-.2157-.2477,10.1442,10.1442,0,0,0,.5315-1.6135.2444.2444,0,0,0-.3438-.28c.1109-.5608.2062-1.3829.22-1.5a.2442.2442,0,0,0-.4815-.0784l-.1421.667-.0118.01c-.0006-.0263,0-.0523-.003-.0793a1.6187,1.6187,0,0,0-.44-1.005c-.0223-.0268-.0448-.0535-.0655-.0793a2.3862,2.3862,0,0,1-.1232-.7524c0-.2155-.0109-.3943-.0157-.4632a.2442.2442,0,0,0-.4879.0174c0,.1162.0031.2849.0139.4692a2.29,2.29,0,0,1-.0906.7606c-.0273.0554-.0563.1109-.0853.1666a1.7709,1.7709,0,0,0-.29,1.0431c.0024.0173.0067.0347.01.052l-.0675-.0516-.1734-.66a.2443.2443,0,0,0-.4774.1013c.0169.1045.1267.7739.2484,1.3113A.2405.2405,0,0,0,75.81,34a.2446.2446,0,0,0-.1745.2787,10.8248,10.8248,0,0,0,.3984,1.6.241.241,0,0,0-.2175.2257,2.9084,2.9084,0,0,0,.1921,1.2671c-.04-.012-.07-.02-.08-.0227a.2443.2443,0,0,0-.3046.26,2.6436,2.6436,0,0,0,.4879,1.3383c.0015.0016.0329.0325.0836.0781l-.6486-.0376a.2672.2672,0,0,0-.1956.0709.2635.2635,0,0,0-.0833.1908l-.0018.3551a.26.26,0,0,0-.1154-.0381l-.2238-.0125c-.1744-.1642-.4683-.4462-.6955-.6916a1.9577,1.9577,0,0,1-.2932-.42,6.05,6.05,0,0,0,.5412-1.6267.44.44,0,0,0-.149-.4088l-4.2075-3.57c.9073-1.0454,3.8372-3.8616,9.6991-4.7865,5.8926-.93,9.7624,3.5987,9.8007,3.6442a.4376.4376,0,0,0,.3794.156,11.2338,11.2338,0,0,0,4.5689-2.0236,8.9857,8.9857,0,0,0,3.2511-4.3534,5.1873,5.1873,0,0,0,3.1825-2.0095,6.7045,6.7045,0,0,0,1.5743-4.5649,9.2512,9.2512,0,0,0,4.4051-2.4157,5.2245,5.2245,0,0,0,1.6392-4.7221,9.9546,9.9546,0,0,0,3.7069-2.849,6.4507,6.4507,0,0,0,1.7753-3.61c.093-.02.1989-.0483.3177-.0862h.0188V5.2092a8.29,8.29,0,0,0,2.2765-1.2569A4.9479,4.9479,0,0,0,118.8056.461.44.44,0,0,0,118.6844.1358ZM93.42,15.2142a7.2034,7.2034,0,0,1-4.0526,2.847l-14.7-.0421a13.8675,13.8675,0,0,0,2.0673-3.253,17.0377,17.0377,0,0,0,1.009-2.9494l16.5562.088A4.8743,4.8743,0,0,1,93.42,15.2142Zm-5.4832,6.5712a12.4585,12.4585,0,0,1-3.4618,2.812l-15.1732-.0163q-.0247-.2733-.0536-.5517c-.0586-.5625-.1278-1.117-.2043-1.6566a17.8285,17.8285,0,0,0,4.8274-3.4773l14.9865.0429A4.606,4.606,0,0,1,87.9368,21.7854Zm-22.21,28.3605c.11.208.2238.4117.339.6117l-.3629,1.9058-.7208-.0238a53.2929,53.2929,0,0,1-1.8-6.7505c.2146-.2522.4332-.5257.6548-.8233A26.1848,26.1848,0,0,0,65.7269,50.1459Zm-12.52-.0923a26.1,26.1,0,0,0,1.8792-5.0393c.2431.3311.4829.6327.7176.9086a53.5578,53.5578,0,0,1-1.7719,6.6216l-.8009.0264-.363-1.9056C52.9833,50.4652,53.097,50.2616,53.2071,50.0536ZM34.3307,24.7151a12.46,12.46,0,0,1-3.4614-2.8121,4.6067,4.6067,0,0,1-.9212-2.847l14.9865-.043A17.7142,17.7142,0,0,0,49.88,22.5458c-.0935.6981-.1744,1.42-.2356,2.1529ZM40.6736,4.6528,19.0077,4.5343a6.7653,6.7653,0,0,1-2.9261-1.5774,17.8716,17.8716,0,0,1-1.6322-1.9121l26.9179.0932A22.0462,22.0462,0,0,0,40.6736,4.6528Zm-.0858.8782a20.7833,20.7833,0,0,0,.2827,5.5256l-16.7219.0888a9.4613,9.4613,0,0,1-3.8912-3.0716,4.7335,4.7335,0,0,1-.687-2.6577ZM24.5056,12.0222l16.5567-.0879a17.041,17.041,0,0,0,1.0089,2.95,13.8661,13.8661,0,0,0,2.0673,3.2528l-14.7.0421a7.2032,7.2032,0,0,1-4.0529-2.8468A4.8786,4.8786,0,0,1,24.5056,12.0222Zm28.0354.005.1065-.0983a3.886,3.886,0,0,0-.0939.6861c-.06,1.3162.1812,3.6565,2.4673,4.5419a3.7625,3.7625,0,0,0,1.3622.2753,2.9039,2.9039,0,0,0,1.237-.275,2.4377,2.4377,0,0,1-1.693,1.185H55.91c-1.1181-.0229-2.1287-.4372-3.4275-2.3855C51.48,14.4514,52.3605,12.4092,52.541,12.0272Zm6.94-3.1334a.4361.4361,0,0,0,.1193.0185h.0019a.4381.4381,0,0,0,.4316-.3813l2.698,2.3921c-.3184.8791-.595,1.636-.8208,2.1113a4.2176,4.2176,0,0,1-1.89,2.2075l-.0428-2.56a.4394.4394,0,0,0-.8787.0148l.0426,2.5433a4.0574,4.0574,0,0,1-1.991-2.2467c-.2256-.4754-.5022-1.2324-.8205-2.1115L59.1,8.4265l0,.0319A.4381.4381,0,0,0,59.4808,8.8938Zm7.2979,6.8692-.0061.0018.0018.0063c-.0365.0668-.0751.133-.1184.198-1.2991,1.9483-2.31,2.3627-3.4274,2.3855l-.0166,0a2.3755,2.3755,0,0,1-1.63-1.0951,2.8959,2.8959,0,0,0,1.0971.2137,3.762,3.762,0,0,0,1.3622-.2754c2.2865-.885,2.5276-3.2255,2.4677-4.5418a4.2962,4.2962,0,0,0-.1127-.8027l.2016.1861A4.5124,4.5124,0,0,1,66.7787,15.763Zm1.0618,17.4626a3.2122,3.2122,0,0,1-1.8541-1.101l-.0134-.0193-.0023.0016-.0543-.0616a3.4448,3.4448,0,0,0,1.0611-1.8395,4.7656,4.7656,0,0,0-.2679-2.5936,4.05,4.05,0,0,0,1.8549.4155,18.86,18.86,0,0,1-.32,3.318Q68.0518,32.3236,67.8405,33.2256Zm-2.8747,4.2837c-1.4638,1.2521-3.5963.0431-4.655-.7132a4.4717,4.4717,0,0,0,3.3557-3.6079,4.0077,4.0077,0,0,0,1.2981-.4611c.0862-.048.1689-.0978.25-.1485.026.0306.0535.0625.0836.0963C65.5813,33.1021,67.13,35.658,64.9658,37.5093ZM59.4672,47.7839A9.3446,9.3446,0,0,1,56.2231,45.01,4.7136,4.7136,0,0,0,59.48,43.3067a4.044,4.044,0,0,0,3.149,1.7133c.0336,0,.0684-.0034.1022-.0044A9.3521,9.3521,0,0,1,59.4672,47.7839Zm.1075-5.6994h-.0131a2.9,2.9,0,0,1-2.658-1.7212,5.7825,5.7825,0,0,1-.517-1.4515,4.494,4.494,0,0,0,3.0566-1.6649,9.8377,9.8377,0,0,0,1.8073,1.1266,6.0762,6.0762,0,0,0,1.38.4707C62.3047,39.8039,61.3448,42.0845,59.5747,42.0845Zm-6.3961-5.8684a5.3262,5.3262,0,0,1,.7162-3.6921,5.1664,5.1664,0,0,0,.59.3273,3.6911,3.6911,0,0,0,.9244.3017,7.3742,7.3742,0,0,0,.7763,1.7264,3.9894,3.9894,0,0,0,2.4949,1.9227,3.3058,3.3058,0,0,1-3.907.96A2.49,2.49,0,0,1,53.1786,36.2161ZM50.7257,31.274a18.9355,18.9355,0,0,1-.3138-3.2138,4.1818,4.1818,0,0,0,2.1528-.4945,4.9984,4.9984,0,0,0-.2214,2.9111A3.3346,3.3346,0,0,0,53.2,31.9619l-.019.0332a3.1046,3.1046,0,0,1-2.0369,1.2371Q50.9253,32.293,50.7257,31.274Zm.06-8.81c.0288.0008.0586.0032.087.0032a3.1969,3.1969,0,0,0,1.554-.3952,4.4038,4.4038,0,0,0-.0283,2.5547,3.24,3.24,0,0,0,.8634,1.3488,3.9222,3.9222,0,0,1-2.8522,1.2037A38.01,38.01,0,0,1,50.7854,22.4636Zm2.6458-9.8088a2.8791,2.8791,0,0,1,1.6963-2.5094c.1132.3077.2231.6108.3283.9015.0691.1907.1357.3744.201.5534a4.3475,4.3475,0,0,0-1.1245,1.6774,2.7169,2.7169,0,0,0,1.0126,2.92,3.11,3.11,0,0,0,.694.35,3.0347,3.0347,0,0,1-.9006-.21C54.0046,15.8211,53.3453,14.5476,53.4312,12.6548ZM63.607,11.0862c.1282-.354.2629-.7257.4027-1.1028a3.4092,3.4092,0,0,1,1.6214,2.7127c.086,1.8929-.5735,3.1662-1.9072,3.6825a3.0425,3.0425,0,0,1-.9006.21,3.1142,3.1142,0,0,0,.694-.35,2.7175,2.7175,0,0,0,1.0125-2.92,4.3453,4.3453,0,0,0-1.1245-1.6773C63.4709,11.4619,63.5378,11.2776,63.607,11.0862Zm.9306,20.8731a3.07,3.07,0,0,1-3.3228-.1785,5.7648,5.7648,0,0,1-.9972-.8095,3.9835,3.9835,0,0,0,2.6407-1.9475,7.2569,7.2569,0,0,0,.7846-1.7417,4.4875,4.4875,0,0,0,1.2539-.4227c.1292-.065.2522-.1337.37-.2051a5.0223,5.0223,0,0,1,.8511,3.3694A2.925,2.925,0,0,1,64.5376,31.9593Zm-5.01,4.0445c-1.9148.0677-2.8417-1.8667-3.18-2.8149a4.6923,4.6923,0,0,0,3.0149-1.8313,5.384,5.384,0,0,0,3.3884,1.8679,4.69,4.69,0,0,1-.5071,1.1934A3.1312,3.1312,0,0,1,59.5277,36.0038ZM53.192,30.2491a5.41,5.41,0,0,1,.8188-3.7163,5.582,5.582,0,0,0,.8782.4123,5.0352,5.0352,0,0,0,.5381.167,7.721,7.721,0,0,0,.7645,1.7667,4.2135,4.2135,0,0,0,2.41,2.0157,3.1043,3.1043,0,0,1-3.74,1.1629A2.8573,2.8573,0,0,1,53.192,30.2491Zm.6834-9.3765a2.7619,2.7619,0,0,0,1.2576.562c.1272.0219.25.0379.3712.0509.3253,1.27,1.2762,3.1659,3.0826,3.6236a2.67,2.67,0,0,1-3.3913,1.0125,2.9768,2.9768,0,0,1-1.9621-1.7683A4.8057,4.8057,0,0,1,53.8754,20.8726Zm5.1983-4.3684a1.4694,1.4694,0,0,1,.4526-.0916,1.1312,1.1312,0,0,1,.53.0912L59.5647,19.66Zm.0568,6.0812a.4394.4394,0,0,0,.8684,0l.3149-2.0238a6.0363,6.0363,0,0,0,2.3438.9832,3.2358,3.2358,0,0,1-3.0513,2.7827,2.74,2.74,0,0,1-2.5934-1.5227,6.0917,6.0917,0,0,1-.5821-1.3,4.1184,4.1184,0,0,0,2.3857-.9376Zm.4435,7.5662-.0434,0c-1.8655-.0285-2.7849-1.9256-3.1377-2.9138a3.6046,3.6046,0,0,0,3.0037-1.7786,4.8178,4.8178,0,0,0,3.3061,1.87C62.3782,28.2407,61.4718,30.1516,59.574,30.1516Zm5.603-4.5051a.3729.3729,0,0,0-.1174.09,4.106,4.106,0,0,1-.5579.3377,3.4227,3.4227,0,0,1-4.2311-.9492,4.1828,4.1828,0,0,0,3.2814-3.5839c.0124-.0022.0251-.0029.0375-.0053a4.6274,4.6274,0,0,0,1.7169-.685,4.98,4.98,0,0,1,.8066,3.3973A2.5173,2.5173,0,0,1,65.177,25.6465ZM63.4258,20.673c-1.1264.2134-2.5342-.7593-2.9611-1.08l.3058-1.9653a4.4009,4.4009,0,0,0,.4066.523,2.9613,2.9613,0,0,0,2.0369,1.0832l.0325,0a4.0537,4.0537,0,0,0,2.87-1.2158A3.1567,3.1567,0,0,1,63.4258,20.673Zm-.7215-7.2616c.11-.2321.2294-.5209.3565-.8483a2.8064,2.8064,0,0,1,.612.95,1.8142,1.8142,0,0,1-.6429,1.9946,1.79,1.79,0,0,1-1.9517.1158A6.0631,6.0631,0,0,0,62.7043,13.4114Zm-6.672,2.0548a1.8133,1.8133,0,0,1-.6429-1.9944,2.7875,2.7875,0,0,1,.6115-.9513c.1272.328.2464.6172.3568.85a6.0625,6.0625,0,0,0,1.626,2.2118A1.79,1.79,0,0,1,56.0323,15.4662Zm1.9295,2.6715a4.3977,4.3977,0,0,0,.3974-.51l.2891,1.858-.0062.0071a3.3081,3.3081,0,0,1-3.36,1.0759c-1.154-.199-1.7382-1.3888-2.0257-2.3525a3.9908,3.9908,0,0,0,2.636,1.0044l.0324,0A2.9621,2.9621,0,0,0,57.9618,18.1377Zm8.0651,7.9381a3.2878,3.2878,0,0,0,.94-1.621,4.5193,4.5193,0,0,0-.149-2.387,3.3293,3.3293,0,0,0,1.3377.3031c.082.5685.1564,1.154.2184,1.75q.1669,1.6056.19,3.03A3.7137,3.7137,0,0,1,66.0269,26.0758ZM68.02,21.484a2.9036,2.9036,0,0,1-2.036-1.2108l-.0016-.0025a4.7323,4.7323,0,0,0,1.1168-3.27C67.3559,18.0338,67.719,19.6336,68.02,21.484ZM52.121,16.967a.44.44,0,0,0-.0008.0488,7.17,7.17,0,0,0,1.06,3.1059,2.819,2.819,0,0,1-2.2649,1.4642c.0253-.162.05-.3235.0773-.4875.3083-1.8538.6742-3.44.92-4.4209Q52.0171,16.8274,52.121,16.967Zm-1.08,19.3272a3.9341,3.9341,0,0,1-1.34-.7139,3.3006,3.3006,0,0,1-.78-1.4031l1.2884-1.0933Q50.5981,34.8117,51.0411,36.2942ZM49.1088,36.23a4.5249,4.5249,0,0,0,1.4612.83l-.8.9453a3.16,3.16,0,0,1-1.774-.8909,3.5781,3.5781,0,0,1-.8165-1.46l1.021-.8664A3.8071,3.8071,0,0,0,49.1088,36.23Zm3.3294-2.4983a4.7167,4.7167,0,0,0-.0973,2.75,3.0321,3.0321,0,0,0,.8079,1.287,3.8977,3.8977,0,0,0-.5146.5347,41.9567,41.9567,0,0,1-1.2825-4.2145A4.3384,4.3384,0,0,0,52.4382,33.7314Zm.629,5.6274a2.1074,2.1074,0,0,1,.8139-1.0559,4.6612,4.6612,0,0,0,.5661.2752,4.8249,4.8249,0,0,0,1.0316.2891c.2162,1.36,1.1076,3.5143,3.2132,3.9966A3.597,3.597,0,0,1,55.54,44.095a24.1163,24.1163,0,0,1-2.5005-4.74Zm1.4334,14.386a43.61,43.61,0,0,0,2.0345-7.0254q.1993.2.39.3751a34.7985,34.7985,0,0,1-1.2928,10.9663c-.1108.3547-.2309.71-.3572,1.0622l-1.907.0856-.3811-2.4966A26.9777,26.9777,0,0,0,54.5006,53.7448Zm1.97,4.5783a34.7372,34.7372,0,0,0,1.3606-10.4826,5.6152,5.6152,0,0,0,1.5881.8669l.0489-.1674.0474.1655a5.61,5.61,0,0,0,1.5656-.8431A34.9882,34.9882,0,0,0,62.44,58.4564a39.1093,39.1093,0,0,0,2.1138,5.2194l-4.9992,6.1418L54.3422,63.556A39.0037,39.0037,0,0,0,56.471,58.3231Zm6.8081-.1279A35.0658,35.0658,0,0,1,61.99,47.1262q.2238-.2025.46-.4392A44.0443,44.0443,0,0,0,64.47,53.73a27.1941,27.1941,0,0,0,1.4425,2.8738l-.3744,2.6032-1.9532-.0934C63.4774,58.8088,63.3746,58.5019,63.2791,58.1952Zm.2062-14.191a2.9191,2.9191,0,0,1-3.2184-1.1255c2.0268-.494,2.99-3.0725,3.2615-3.95a3.1124,3.1124,0,0,0,1.6329-.4779,1.6293,1.6293,0,0,1,.6615,1.1819A23.8187,23.8187,0,0,1,63.4853,44.0042Zm2.3576-6.1157a4.0174,4.0174,0,0,0,.9405-4.066,3.1138,3.1138,0,0,0,.8485.2631,41.4229,41.4229,0,0,1-1.33,4.3311A3.6065,3.6065,0,0,0,65.8429,37.8885Zm3.5263-2.4742a3.9322,3.9322,0,0,1-1.3837.7266c.2952-1.005.5754-2.0879.8349-3.2574l1.33,1.1285A3.3229,3.3229,0,0,1,69.3692,35.4143Zm1.5-.7921,1.022.8672a3.6247,3.6247,0,0,1-.8175,1.4592A3.1607,3.1607,0,0,1,69.3,37.84l-.8-.9455a4.5206,4.5206,0,0,0,1.4611-.83A3.8048,3.8048,0,0,0,70.8692,34.6222ZM77.9354,10.939a20.7871,20.7871,0,0,0,.2828-5.5255l21.0192-.115a4.7692,4.7692,0,0,1-.6889,2.6576,9.4612,9.4612,0,0,1-3.8909,3.0718Zm.1969-6.4038A22.0537,22.0537,0,0,0,77.4387,1.02L104.3566.9272a17.88,17.88,0,0,1-1.6324,1.912,6.7631,6.7631,0,0,1-2.9265,1.5776Zm-4.2128,6.94a13.11,13.11,0,0,0-.3585-8.8459,2.8064,2.8064,0,0,1,.7657-1.1812,2.364,2.364,0,0,1,1.4176-.4224.237.237,0,0,0,.0251.0006l.7512-.0026c.401,1.3248,2.0362,7.5471-.5873,13.3822a15.8439,15.8439,0,0,1-7.0279,7.052c-.1911-1.1909-.4084-2.2832-.61-3.1981A11.5062,11.5062,0,0,0,73.92,11.4751ZM65.84,5.9928a2.9143,2.9143,0,0,1,.8716-.8084,2.3487,2.3487,0,0,0-.1749,1.59,10.1115,10.1115,0,0,0,.548,1.7794,2.7129,2.7129,0,0,1,.2749,1.42,3.1423,3.1423,0,0,1-.4405,1.1676l-2.478-2.2867A15.2274,15.2274,0,0,1,65.84,5.9928ZM63.4055,9.0936c-.1208.3165-.238.6321-.3512.9414l-3.02-2.6774-.0061-1.38Zm-4.2949-3.129-.0056,1.283-3.0971,2.746c-.1044-.2852-.2123-.5758-.3232-.8675ZM51.9771,8.5118a10.0857,10.0857,0,0,0,.5482-1.7794A2.3492,2.3492,0,0,0,52.35,5.1432a2.915,2.915,0,0,1,.8715.8084A15.5234,15.5234,0,0,1,54.65,8.8855l-2.47,2.2791a3.2581,3.2581,0,0,1-.4778-1.2328A2.7156,2.7156,0,0,1,51.9771,8.5118Zm-8.94-7.368a.1835.1835,0,0,0,.0235-.0006,2.3658,2.3658,0,0,1,1.4191.4225,2.8085,2.8085,0,0,1,.7656,1.181,13.1112,13.1112,0,0,0-.3583,8.846,11.4935,11.4935,0,0,0,5.7148,6.83c-.1992.93-.409,2.0238-.59,3.2088a15.8944,15.8944,0,0,1-7.1383-7.1083c-2.6194-5.8258-.9871-12.056-.5869-13.3822ZM.96.9981l12.4206.043A16.4459,16.4459,0,0,0,15.4521,3.57a5.8543,5.8543,0,0,0,1.24.9519L4.5242,4.4551a7.8547,7.8547,0,0,1-1.917-1.0939A4.2469,4.2469,0,0,1,.96.9981ZM7.1515,8.4674A5.5982,5.5982,0,0,1,5.5788,5.34l13.1123.0717a5.567,5.567,0,0,0,.8826,3.2144,12.2422,12.2422,0,0,0,2.71,2.53l-11.3788.06a.4432.4432,0,0,0-.086-.0369A8.6747,8.6747,0,0,1,7.1515,8.4674ZM12.4244,15.96a4.3554,4.3554,0,0,1-1.3865-3.8664l12.5829-.0668a5.9181,5.9181,0,0,0,1.0132,3.76,6.9517,6.9517,0,0,0,2.5611,2.3984l-10.4209.03c-.0146-.0027-.0287-.0069-.0436-.0082A7.9848,7.9848,0,0,1,12.4244,15.96Zm6.041,7.045a5.8808,5.8808,0,0,1-1.3584-3.9124l11.9611-.0343a5.4387,5.4387,0,0,0,1.1161,3.3945,12.0619,12.0619,0,0,0,2.4873,2.2638l-11.3248.0121a.443.443,0,0,0-.0839-.0013C21.2513,24.73,20.0288,24.8086,18.4654,23.0052ZM39.1211,27.3A11.9982,11.9982,0,0,0,28.68,31.0559a11.9446,11.9446,0,0,1-3.9584-1.8444,8.0317,8.0317,0,0,1-2.7876-3.6045l27.6472-.0295a23.8329,23.8329,0,0,0,.2823,5.865q.0662.3387.1346.6682l-.5079.431C48.66,31.513,45.6181,28.3245,39.1211,27.3Zm4.9305,12.9531,1.2236-.0683-.0045,1.4364-.31.32-1.3294-1.255Zm-.6246,3.27-1.3512-1.2347,1.1886-1.2246,1.33,1.2553Zm-.1478-3.2315-.819.8439-.6992-.6572.6811-.734.8343-.0486Zm-2.855.8522c-.0511-.0108-.0991-.02-.1435-.0291a1.7254,1.7254,0,0,1-.8155-.3651,2.2438,2.2438,0,0,1-.2055-.161c-.0228-.02-.0425-.0407-.064-.061-.0386-.0364-.0772-.0727-.1116-.1095-.0223-.0238-.042-.0474-.0625-.0711-.0141-.0162-.0274-.0322-.0407-.0483s-.03-.0346-.0435-.0516c-.0183-.0232-.0348-.0456-.0515-.0682-.0153-.0208-.03-.0409-.0435-.0609l-.0207-.0581.0635-.0009.0293,0h.0494c.0212,0,.0423,0,.0636,0l.0271,0,.0832.0012.0143,0c.0308.0007.0615.0016.0917.0028l.0175.0009c.0288.0013.0574.0026.0851.0044l.025.0019c.0243.0017.0486.0034.0717.0055l.0448.005.0449.0051c.0285.0039.0558.0081.0812.013a1.6107,1.6107,0,0,1,1.0946.64l.0023-.0015.0372.0574Zm.4668-2.248a3.6317,3.6317,0,0,1,.2574-.55c.0346-.0627.0692-.1237.1022-.18a2.54,2.54,0,0,1,.2816.9149,1.7225,1.7225,0,0,1-.0752.89l-.0289.091-.2377.2562-.4033-.6157A1.9636,1.9636,0,0,1,40.891,38.8956Zm1.68-3.0033a2.6436,2.6436,0,0,1-.3951.6388l-.0255-.5037a.93.93,0,0,1,.3432-.4631,2.7836,2.7836,0,0,1,.2353-.1629A3.1534,3.1534,0,0,1,42.5705,35.8923Zm-1.1763,1.5559a1.5517,1.5517,0,0,1-.2387-.6754,1.0353,1.0353,0,0,1,.1538.1027c.0381.0317.077.0624.116.0928a.846.846,0,0,1,.2993.32l.0243.4834A2.0518,2.0518,0,0,1,41.3942,37.4482Zm.2228-2.2912a1.7346,1.7346,0,0,1-.3987-.6682,3.4177,3.4177,0,0,1-.11-.4813c.0369.03.0726.0587.1054.0845a2.1254,2.1254,0,0,1,.3685.3746Zm-.2877.4176a1.0225,1.0225,0,0,1,.3253.3285l.0295.5854a2.83,2.83,0,0,1-.409-.5813,3.1265,3.1265,0,0,1-.1917-.4787C41.1785,35.48,41.2689,35.5326,41.3293,35.5746Zm.9085,2.1907-.0213-.42.0066.0007c.0182-.1675.1159-.2659.287-.4255.036-.0336.0722-.0674.1074-.1024a1.024,1.024,0,0,1,.1435-.1147,1.56,1.56,0,0,1-.1787.6929A2.0853,2.0853,0,0,1,42.2378,37.7653Zm.2654-3.1972a1.8364,1.8364,0,0,1-.3957.6187l-.0286-.5671a1.7564,1.7564,0,0,1,.448-.4477c.0338-.0241.0709-.051.1091-.0792A3.41,3.41,0,0,1,42.5032,34.5681ZM38.5506,39.579l-.0151-.0162.0455.0149Zm-.71.3106c-.0123-.0482-.0247-.0964-.0386-.1443a1.04,1.04,0,0,1-.0321-.1818,2.1931,2.1931,0,0,1,.3836.3042v0a.2428.2428,0,0,0,.0157.0567c.0029.007.0221.052.0577.1214l.0045.009.0228.0426.0106.02.0037.0069.02.0353.0171.03.0253.0417.0234.0382.0275.0425.0227.035c.0161.0549.03.11.0417.1611l-.4326-.2164A.84.84,0,0,1,37.84,39.89Zm4.7621-1.1116a1.9027,1.9027,0,0,1-.301.2459l-.0208-.4109a.7914.7914,0,0,1,.3263-.3157c.0413-.0276.0829-.0554.1234-.0844a1.0218,1.0218,0,0,1,.1608-.09A1.55,1.55,0,0,1,42.6024,38.778Zm-.7131-6.2062.0189-.0227.0273.0524a1.3848,1.3848,0,0,1,.24.7518.3046.3046,0,0,1-.0142.0575,1.5746,1.5746,0,0,1-.3453.4811.762.762,0,0,1-.2549-.5808A1.1622,1.1622,0,0,1,41.8893,32.5718Zm-.9233,5.117-.0108.0175c-.0012-.0133-.0038-.0267-.0053-.04Zm-1.2609-.4013c.0229-.0745.0459-.1493.0666-.2248a2.4307,2.4307,0,0,1,.2534-.551,3.0774,3.0774,0,0,1,.4472,1.4316,3.4907,3.4907,0,0,1-.2308.9255l-.6586-1.0058,0-.0043a1.21,1.21,0,0,1,.0266-.2225C39.6324,37.5237,39.6678,37.4086,39.7051,37.2875Zm-.4491-1.4453a3.6957,3.6957,0,0,1-.0858,1.3906l-.72-1.0987a1.8322,1.8322,0,0,1,.1528-.7279,5.6242,5.6242,0,0,1,.2744-.5618c.0351-.0648.07-.1272.1018-.1844.1014.34.1944.6843.2434.9482A2.3008,2.3008,0,0,1,39.256,35.8422Zm-1.7128-2.4051c.0744-.1617.1641-.369.2429-.554a8.1674,8.1674,0,0,1,.32,1.1663,2.7493,2.7493,0,0,1-.1175,1.3785l-.7151-1.0921A3.38,3.38,0,0,1,37.5432,33.4371ZM35.37,31.759c.0105-.0594.0209-.1188.03-.1785a.5883.5883,0,0,0,.0065-.0946l.0139.0095c.0856.0575.1739.1139.2624.1707.16.1027.3172.2032.4591.3093a1.5008,1.5008,0,0,1,.5291.6115,2.4426,2.4426,0,0,1-.1021,1.2665,1.4527,1.4527,0,0,1-1.0553-.72A1.98,1.98,0,0,1,35.37,31.759Zm-.1574,2.4329c.1982.0346.421.072.5969.0978.05.0072.1.0162.1505.026L36,34.3238q.0612.0126.1222.0274l.0319.0076c.05.0126.1.026.1479.04l.0244.0076q.06.018.1161.0373l.0382.0133c.0373.0132.0732.0268.1073.0405l.02.0078c.0342.0141.065.0284.0949.0428l.5345.8252.2121.3275-.0138.01-.0227.0124a.2439.2439,0,0,1-.0308.0112l-.0254.0065a.3271.3271,0,0,1-.0384.0049l-.0267.0017c-.0148,0-.03-.0005-.0463-.0017l-.0273-.0023c-.0174-.002-.0354-.0051-.0537-.0086l-.0273-.0053c-.02-.0044-.04-.01-.0612-.0158l-.0263-.0074c-.0222-.0068-.0451-.0147-.0682-.0231l-.025-.0089c-.0243-.0092-.0492-.02-.0743-.03l-.0239-.01c-.0259-.0114-.0522-.0239-.0788-.0368l-.0233-.0111c-.0269-.0133-.0541-.0277-.0815-.0424l-.0235-.0125c-.0276-.0151-.0554-.0312-.0833-.0475l-.0235-.0136c-.0275-.0164-.055-.0336-.0825-.051l-.0254-.0159c-.0268-.0172-.0534-.0352-.08-.0532l-.0276-.0185c-.0272-.0188-.0543-.0383-.0813-.0579l-.0246-.0176c-.0277-.02-.055-.0415-.0822-.0626l-.022-.0167q-.0512-.04-.1008-.0819A8.19,8.19,0,0,1,35.2128,34.1919ZM36.31,36.2628a7.1775,7.1775,0,0,1,.8359-.007c.043.0037.0849.0083.1262.0134l.0381.0053q.0432.0058.0853.0131l.0431.008q.04.0078.0792.0173l.0407.01c.03.0079.06.0169.0892.0266l.0257.008c.0371.0129.0736.0275.11.0436l.0321.0156c.0256.0122.051.025.0763.039l.0408.0241.037.0239.6973,1.0766-.01.0007a.6326.6326,0,0,1-.0749-.0007l-.0176-.0018c-.0243-.0021-.0509-.0057-.079-.01l-.0336-.0057c-.0339-.0065-.07-.0147-.1094-.025L38.3,37.5253c-.0313-.0089-.0644-.0193-.0988-.0308l-.05-.0168c-.0467-.0167-.0965-.0359-.1489-.0575l-.0575-.0245q-.07-.03-.1467-.0663l-.0444-.0208c-.0648-.0314-.1337-.067-.2053-.1052l-.0591-.0321c-.0773-.0422-.1568-.0869-.2419-.1374A6.9734,6.9734,0,0,1,36.31,36.2628ZM38.1674,38.08c.0767.0136.1538.0248.2307.0357.04.0059.08.0116.119.0176l.0359.006c.0273.0043.0545.0088.081.0137l.0434.0088c.0231.0047.0461.0094.0685.0148l.0456.0122c.0208.0056.0415.0113.0618.0178.0153.005.03.0106.0452.0161.0192.0071.0383.0145.057.0226.0148.0065.0293.0137.0438.0209q.027.0135.0531.0288.0211.0126.0418.0265c.0168.0114.0332.0237.0494.0365.0134.0106.0266.0215.04.0331l.0237.0236.5612.8665c-.0283.001-.0606.0006-.0938,0l-.0329-.0009c-.03-.0013-.0612-.0032-.0936-.0057l-.0593-.0054-.0544-.0058q-.05-.0055-.1017-.0129l-.0617-.009-.0639-.01c-.0366-.0064-.0732-.013-.11-.02l-.0408-.0087c-.0336-.0072-.0668-.0147-.1-.0228l-.0311-.0075q-.0622-.0159-.1209-.0337L38.78,39.13c-.0405-.0128-.08-.026-.1161-.04a3.0748,3.0748,0,0,1-1.103-1.0167A2.4255,2.4255,0,0,1,38.1674,38.08ZM36.929,39.3253a2.8256,2.8256,0,0,1,.3678.6081l-.5243-.2623a1.0187,1.0187,0,0,1-.17-.43c-.0142-.0722-.0259-.1762-.035-.284A3.1547,3.1547,0,0,1,36.929,39.3253Zm-2.0922.4492a1.7461,1.7461,0,0,1,.5894-.2306l.5075.2539a1.8843,1.8843,0,0,1-.7246.1141,3.4,3.4,0,0,1-.4886-.0693C34.7616,39.8189,34.8011,39.7957,34.8368,39.7745Zm.8159-1.0711a1.7342,1.7342,0,0,1,.4517.6334l-.6178-.3091a2.12,2.12,0,0,1-.1955-.488c-.01-.04-.0222-.0846-.0349-.1306A3.4264,3.4264,0,0,1,35.6527,38.7034Zm-2.0157-.1-.0377-.0469.0279-.008a1.1486,1.1486,0,0,1,.8094-.0041.7612.7612,0,0,1,.43.4666,1.3086,1.3086,0,0,1-.6381.1131A1.3867,1.3867,0,0,1,33.637,38.603Zm2.4887,1.7a.9309.9309,0,0,1,.5612-.1281l.45.2253a2.61,2.61,0,0,1-.7425.1053,3.0414,3.0414,0,0,1-.5128-.0525A2.83,2.83,0,0,1,36.1257,40.3027Zm.9344.7036a1.044,1.044,0,0,1,.1636-.0858c.0463-.0182.092-.0377.1375-.0575a.6839.6839,0,0,1,.5043-.0918l.002-.006.376.1881a2.0791,2.0791,0,0,1-.4763.1673A1.5581,1.5581,0,0,1,37.06,41.0063Zm1.9642.6879a1.5554,1.5554,0,0,1-.716.0009,1.02,1.02,0,0,1,.1474-.1111c.0426-.0254.0845-.052.126-.0786a.7911.7911,0,0,1,.4205-.1726l.3681.1841A1.9015,1.9015,0,0,1,39.0243,41.6942Zm1.4464.6877a1.0378,1.0378,0,0,1-.1879-.3108l1.12-1.2066.6906.6491-1.1654,1.2006A1.7442,1.7442,0,0,1,40.4707,42.3819ZM42.4124,44.57a2.4821,2.4821,0,0,1-.7486-.559,6.5017,6.5017,0,0,1-.61-.67l.109-.1123.0022-.0008,0-.001.5435-.56L43.06,43.9016Zm1.3673.7086a.977.977,0,0,1-.4083-.2116.9063.9063,0,0,1-.3025-.4168l1.1269-1.1627.6567.6467Zm1.0883-.39.0149.0149-.0339.0053Zm1.0111-1.85-.6659.71-.65-.6405.8651-.8926.4783-.0633Zm.0913-2.7773a2.3118,2.3118,0,0,0-.1688.1643l.0017-.52a.2639.2639,0,0,0-.2784-.2642l-.6066.034c.1-.1.2009-.2037.2929-.3029a2.3644,2.3644,0,0,0,.2261-.2868,2.27,2.27,0,0,0,.206.2341,5.0994,5.0994,0,0,0,.7747.6141A3.5781,3.5781,0,0,0,45.97,40.2615Zm2.2723-.4519a4.8333,4.8333,0,0,1-1.987-1.1193,3.7079,3.7079,0,0,1-.7486-1.6166l.9543-.81A4.1167,4.1167,0,0,0,47.389,37.75a4.218,4.218,0,0,0,1.7385,1.0145Zm6.1839,4.2425c-.1156.4688-.3651,1.4242-.7285,2.5172l-.1743-.9267a18.0145,18.0145,0,0,0,.82-1.72C54.3713,43.9665,54.3989,44.0091,54.4266,44.0521Zm-2.754,5.3021a1.9759,1.9759,0,0,1-.348-.579c.3133-.3944,1.0462-1.3252,1.5188-1.9964l.2632,1.4c-.2058.504-.4317,1.002-.6763,1.4639q-.0576.109-.1168.2168A3.17,3.17,0,0,1,51.6726,49.3542Zm-.5483,5.7877a2.9147,2.9147,0,0,1-.6755-1.0033,26.848,26.848,0,0,0,1.7364-2.3624l.253,1.3283a.44.44,0,0,0,.4315.3571l.0146,0,.7924-.026a25.8171,25.8171,0,0,1-1.31,2.5918A4.0144,4.0144,0,0,1,51.1243,55.1419Zm.4274,7.3361a5.2468,5.2468,0,0,1-1.3424-1.9325,21.9526,21.9526,0,0,0,2.0638-2.6881l.2861,1.8741a.44.44,0,0,0,.4342.3731l.02,0,1.9257-.0866c-.4859,1.2407-1.0229,2.4072-1.4835,3.3446A3.0075,3.0075,0,0,1,51.5517,62.478Zm11.6124,8.0913a21.1488,21.1488,0,0,1-3.6612,3.7712,24.7232,24.7232,0,0,1-3.7562-3.9466,45.3381,45.3381,0,0,1-2.5441-4.6392c.14-.2517.3954-.72.7116-1.34l5.2663,6.3262a.44.44,0,0,0,.3271.2081.4541.4541,0,0,0,.048.0026.4394.4394,0,0,0,.3407-.162l5.0865-6.2493c.3232.6364.5843,1.1167.7262,1.3726A45.4692,45.4692,0,0,1,63.1641,70.5693Zm4.2349-8.0731a2.7912,2.7912,0,0,1-2.0094.8823c-.464-.9545-.9971-2.1279-1.4751-3.369l1.9806.0946.0213,0a.4394.4394,0,0,0,.4345-.3768l.28-1.95a22.11,22.11,0,0,0,2.1027,2.777A5.2689,5.2689,0,0,1,67.399,62.4962Zm.41-7.2618a4.3469,4.3469,0,0,1-1.175.8577,26.087,26.087,0,0,1-1.2926-2.5614l.708.0232.0146,0a.4394.4394,0,0,0,.4314-.3571l.253-1.3283A26.878,26.878,0,0,0,68.485,54.231,2.9082,2.9082,0,0,1,67.81,55.2344Zm-.1773-6.3272a1.9768,1.9768,0,0,1-.3484.5792,3.1692,3.1692,0,0,1-.6411.5052q-.07-.1276-.1391-.2569c-.2363-.4465-.4552-.9268-.6555-1.4136l.2652-1.41C66.5858,47.582,67.3185,48.5127,67.6322,48.9072Zm-2.1994-3.1324-.1776.9444c-.3823-1.1422-.6418-2.1425-.7555-2.6067q.042-.0646.0842-.13A17.688,17.688,0,0,0,65.4328,45.7748Zm8.209-3.7245.8651.8925-.65.64-.666-.71-.0271-.8859Zm3.352.072L75.6426,43.357l-1.1669-1.2039,1.3295-1.2553Zm-2.8069,2.6152.0149-.015.0191.02Zm1.5114.1632a.9813.9813,0,0,1-.4079.212L74.2172,43.968l.6566-.6467,1.1267,1.1625A.9016.9016,0,0,1,75.6983,44.9007Zm1.7074-1.0559a2.5267,2.5267,0,0,1-.7472.56l-.6488-.6694,1.3515-1.2349.5434.56-.0005.001.0023.0008.1091.1124A6.4551,6.4551,0,0,1,77.4057,43.8448Zm1.1933-1.6289a1.7412,1.7412,0,0,1-.4571.3323l-1.1651-1.2.6905-.6491,1.12,1.2064A1.0327,1.0327,0,0,1,78.599,42.2159Zm.4941-3.0258.0616-.0939a.1356.1356,0,0,1,.0378.0525Zm-.3039,1.7584c-.0445.0087-.0926.0184-.1437.0293l-.4239-.4568.0186-.0285.1209.08a1.61,1.61,0,0,1,1.0946-.64,4.3609,4.3609,0,0,1,.7924-.0394l-.023.0643a2.51,2.51,0,0,1-.6207.6256A1.7231,1.7231,0,0,1,78.7892,40.9485Zm1.8342-.6062c.0115-.0513.0256-.1062.0417-.1611a2.638,2.638,0,0,0,.2355-.4224.25.25,0,0,0,.0158-.0569,2.185,2.185,0,0,1,.3837-.3043,1.0165,1.0165,0,0,1-.0321.1821c-.0139.0475-.0262.0956-.0384.1434a.8486.8486,0,0,1-.1728.4027Zm-.1045-.9293-.0312-.0011.0462-.0149Zm-1.708.208.0778-.1187a.561.561,0,0,0,.1084.0484C78.9329,39.5721,78.871,39.5956,78.8109,39.621Zm-.6325-.8915a1.9587,1.9587,0,0,1,.1041.8065l-.4033.6159-.2377-.2561-.0288-.091a1.7236,1.7236,0,0,1-.0752-.8905,2.5374,2.5374,0,0,1,.2817-.9149A4.5756,4.5756,0,0,1,78.1784,38.73Zm-.8578-1.1233.0244-.4833a.8426.8426,0,0,1,.2991-.32c.039-.0305.0783-.0613.1166-.0934a1.0176,1.0176,0,0,1,.1527-.1019,1.5636,1.5636,0,0,1-.2377.675A2.0473,2.0473,0,0,1,77.3206,37.6062Zm.474-1.8648a2.8176,2.8176,0,0,1-.4091.5813l.03-.5854a1.0218,1.0218,0,0,1,.3251-.3285,2.8444,2.8444,0,0,1,.2462-.146A3.1332,3.1332,0,0,1,77.7946,35.7414Zm.0567-1.4188a1.7352,1.7352,0,0,1-.3987.6685l.0348-.69a2.1371,2.1371,0,0,1,.3688-.3753c.0328-.0256.0683-.0541.1052-.0841A3.3992,3.3992,0,0,1,77.8513,34.3226ZM76.92,35.8614l-.0255.5036a2.6358,2.6358,0,0,1-.3947-.6385,3.1679,3.1679,0,0,1-.1579-.4909,2.8408,2.8408,0,0,1,.2352.1627A.9284.9284,0,0,1,76.92,35.8614Zm.0711-1.408-.0285.5654a1.8457,1.8457,0,0,1-.3958-.6167,3.421,3.421,0,0,1-.1329-.4752c.0383.0281.0754.0551.1093.0791A1.76,1.76,0,0,1,76.9907,34.4534Zm-.5385,2.1988c.0354.035.0718.069.108.103.1707.1592.2682.2576.2864.4247l.0064-.0007-.0212.42a2.0728,2.0728,0,0,1-.3444-.3689,1.5487,1.5487,0,0,1-.1795-.6933A1.0236,1.0236,0,0,1,76.4522,36.6522Zm3.593,4.876a1.9032,1.9032,0,0,1-.3459-.1772l.3682-.1842a.7888.7888,0,0,1,.42.1727c.0417.0266.0834.0532.1263.0786a1.0265,1.0265,0,0,1,.1474.111A1.5558,1.5558,0,0,1,80.0452,41.5282Zm1.2572-.5735a2.0839,2.0839,0,0,1-.4765-.1673l.3766-.1884.002.0066a.6828.6828,0,0,1,.5043.0917c.0454.02.0911.0391.1374.0573a1.0352,1.0352,0,0,1,.1625.0853A1.5743,1.5743,0,0,1,81.3024,40.9547Zm1.3724-.6153a2.6108,2.6108,0,0,1-.7423-.1055l.45-.2253a.9352.9352,0,0,1,.5611.1281,2.8223,2.8223,0,0,1,.2437.15A3.0822,3.0822,0,0,1,82.6748,40.3394Zm.9681-.9612a1.762,1.762,0,0,1,.59.23c.0357.0213.0751.0444.1163.0681a3.4,3.4,0,0,1-.4884.0693,1.8529,1.8529,0,0,1-.7248-.1142Zm.99-1a1.1457,1.1457,0,0,1,.8092.0039l.0282.0081-.0378.0468a1.3864,1.3864,0,0,1-.5914.5209,1.31,1.31,0,0,1-.6377-.1131A.7619.7619,0,0,1,84.6331,38.3782Zm-1.2161.1594a3.4462,3.4462,0,0,1,.3963-.2942c-.0127.0459-.0245.09-.035.13a2.1181,2.1181,0,0,1-.1951.4881l-.6179.309A1.7355,1.7355,0,0,1,83.417,38.5376Zm-1.2761.6218a3.1271,3.1271,0,0,1,.3612-.3678,2.825,2.825,0,0,1-.0348.2839,1.0176,1.0176,0,0,1-.17.43l-.5232.2617A2.867,2.867,0,0,1,82.1409,39.1594Zm-1.7351-.2351a2.8572,2.8572,0,0,1-1.25.17l.5727-.8744.0872.0759a1.2509,1.2509,0,0,1,.8554-.3459c.077-.0111.1544-.0223.2313-.0358a2.4287,2.4287,0,0,1,.6069-.0065A3.0711,3.0711,0,0,1,80.4058,38.9243Zm1.4166-2.0562c-.9877.5862-1.4389.591-1.5393.5121l-.0281.0357.6461-.9866.03.0346c.0227-.02.0456-.0364.0684-.0541l.0432.0114c.0048-.0182.007-.0354.0112-.0534a1.6685,1.6685,0,0,1,.87-.2778,7.1758,7.1758,0,0,1,.8358.007A7.0016,7.0016,0,0,1,81.8224,36.8681Zm1.23-1.939c-.5333.4476-1.24.8013-1.4518.5918l-.1445.1464c-.0221.0051-.0444.0106-.0667.0166l.78-1.1907.0079.0079a.4263.4263,0,0,1,.0395-.03l.0614.0126c.0036-.0173.0035-.0381.0059-.0566a3.1531,3.1531,0,0,1,.9761-.3031c.1761-.0256.3989-.063.5969-.0977A8.1846,8.1846,0,0,1,83.0524,34.9291Zm-.6543-2.5083h0a2.31,2.31,0,0,1,.9884-.9209c.0886-.0566.1768-.1131.2624-.1706l.0136-.0092a.5824.5824,0,0,0,.0065.0942c.0094.06.02.1191.03.1783a1.9815,1.9815,0,0,1-.144,1.3752,1.4536,1.4536,0,0,1-1.0553.72A2.4431,2.4431,0,0,1,82.3981,32.4208Zm-1.4342,1.463a8.15,8.15,0,0,1,.32-1.1663c.0787.1848.1685.3921.2428.5535a3.4,3.4,0,0,1,.27.899l-.7149,1.0916A2.7409,2.7409,0,0,1,80.9639,33.8838Zm-1.15,1.7926a6.9865,6.9865,0,0,1,.2764-1.1821,7.2151,7.2151,0,0,1,.3766.7463,1.8251,1.8251,0,0,1,.1511.73l-.72,1.0992A3.6357,3.6357,0,0,1,79.8136,35.6764Zm-.7691.6695a2.4158,2.4158,0,0,1,.2535.5509c.0206.0753.0436.15.0666.2244a2.0941,2.0941,0,0,1,.1221.5761l-.6589,1.0061a3.4908,3.4908,0,0,1-.23-.9259A3.0733,3.0733,0,0,1,79.0445,36.3459Zm-.9285,1.1969-.0122-.02.0157-.0218Zm-.9824-5.1063.0278-.0532.0187.0225a1.1472,1.1472,0,0,1,.3288.7394.7615.7615,0,0,1-.2549.5811,1.3,1.3,0,0,1-.36-.5389v0A1.3853,1.3853,0,0,1,77.1336,32.4365Zm-.7941,5.61c.0406.0291.0822.0569.1235.0848a.7918.7918,0,0,1,.326.3154l-.0208.41a1.9068,1.9068,0,0,1-.301-.2454,1.5519,1.5519,0,0,1-.2885-.6559A1.0242,1.0242,0,0,1,76.34,38.0468Zm.288,1.5313.6812.7342L76.61,40.97l-.8193-.844.0031-.5958Zm-1.19.9412-1.3292,1.2551-.31-.32-.0044-1.4365,1.2236.0685ZM73.8726,39.194c.0966.1043.2032.2134.3079.3178l-.6358-.0356a.2662.2662,0,0,0-.1962.0721.2634.2634,0,0,0-.0822.192l.0017.5479a2.31,2.31,0,0,0-.1816-.1781,3.5663,3.5663,0,0,0-.4526-.33,5.1,5.1,0,0,0,.7926-.6258,2.2953,2.2953,0,0,0,.2185-.25A2.3516,2.3516,0,0,0,73.8726,39.194Zm-1.0585-.67a4.8333,4.8333,0,0,1-1.9867,1.1193l-.885-1.0455a4.2189,4.2189,0,0,0,1.7381-1.0143,4.12,4.12,0,0,0,.9277-1.486l.9543.81A3.7108,3.7108,0,0,1,72.8141,38.5244Zm21.2708-9.4307a11.9518,11.9518,0,0,1-3.9584,1.8448,12.0042,12.0042,0,0,0-10.4418-3.7568c-6.187.9762-9.2421,3.9159-10.2361,5.0826l-.4214-.3576c.0265-.13.0534-.2589.0794-.3911a23.6389,23.6389,0,0,0,.2639-6.0557l27.5032.0295A8.0064,8.0064,0,0,1,94.0849,29.0937Zm6.2555-6.2061c-1.5626,1.8023-2.7848,1.7236-2.79,1.7233a.43.43,0,0,0-.0956,0l-11.3208-.0122a12.06,12.06,0,0,0,2.4876-2.2637,5.4374,5.4374,0,0,0,1.1159-3.3946l11.9613.0343A5.8808,5.8808,0,0,1,100.34,22.8876Zm6.0412-7.045a7.9848,7.9848,0,0,1-4.3047,2.2464.4507.4507,0,0,0-.0464.0084l-10.42-.03a6.95,6.95,0,0,0,2.561-2.3985,5.9166,5.9166,0,0,0,1.0135-3.76l12.58.0668A4.3861,4.3861,0,0,1,106.3816,15.8426ZM111.6541,8.35a8.6757,8.6757,0,0,1-3.6662,2.7111.4375.4375,0,0,0-.0869.0372l-11.3792-.06a12.2388,12.2388,0,0,0,2.71-2.53,5.5653,5.5653,0,0,0,.8825-3.214l13.1111-.0717A5.5937,5.5937,0,0,1,111.6541,8.35Zm4.5446-5.1064A7.8539,7.8539,0,0,1,114.28,4.3376l-12.166.0665a5.8524,5.8524,0,0,0,1.24-.9521A16.4451,16.4451,0,0,0,105.4255.9235l12.4192-.043A4.2641,4.2641,0,0,1,116.1987,3.2435Z" style="fill: #fff"/>
  </g>
</svg>
