<svg xmlns="http://www.w3.org/2000/svg" viewBox="0 0 136.805 136.8009">
  <title>birdsnest-logo-mark-full-color-rgb</title>
  <g id="full-rgb">
    <path id="logoMark" d="M108.037,124.0429c1.2568-.898,2.5154-1.7951,3.707-2.7739A68.767,68.767,0,0,0,129.89,98.1732,68.3345,68.3345,0,1,0,4.8879,43.155,67.6276,67.6276,0,0,0,1.43,54.4838a68.2964,68.2964,0,0,0,23.2524,66.4639c1.1949.996,2.4589,1.908,3.72,2.8222a68.4155,68.4155,0,0,0,9.6929,5.8585c1.593.7915,3.2038,1.5443,4.8624,2.2122a67.86,67.86,0,0,0,7.876,2.5887c1.5414.41,3.0842.8083,4.666,1.1117a67.18,67.18,0,0,0,26.2087-.0615c1.5669-.31,3.0928-.7263,4.6207-1.1424a67.9045,67.9045,0,0,0,8.1549-2.73c1.5524-.6433,3.0528-1.3809,4.5454-2.133A68.4477,68.4477,0,0,0,108.037,124.0429Zm-7.7525-.2682A14.4465,14.4465,0,0,0,101.4,120.79a20.0494,20.0494,0,0,0-.6609-10.5849,14.7649,14.7649,0,0,0,5.9319,1.3438c.3425,2.3743.6474,4.824.9118,7.3058A64.1346,64.1346,0,0,1,100.2845,123.7747Zm-51.0859,4.4065c-4.6158-1.7189-7.5437-4.3575-8.701-7.8418-2.0021-6.026,1.5693-13.1707,2.8473-15.4347a12.25,12.25,0,0,0,5.5768,2.4922c.5635.0969,1.11.1676,1.6451.2255,1.4434,5.63,5.66,14.0388,13.6709,16.0688C62.3215,126.5286,57.6488,131.3268,49.1986,128.1812ZM36.5818,35.1533a12.914,12.914,0,0,1,3.8647,3.5847c2.1969,3.1649,4.35,7.98,6.3323,13.0105L35.8268,61.8548a14.4376,14.4376,0,0,1-2.1184-5.4666,12.038,12.038,0,0,1,1.2182-6.2969,44.6269,44.6269,0,0,0,2.43-7.89A10.4086,10.4086,0,0,0,36.5818,35.1533Zm62.91,7.2313a44.8111,44.8111,0,0,0,2.43,7.8908A12.0289,12.0289,0,0,1,103.14,56.571a13.921,13.921,0,0,1-1.9533,5.1777L90.1989,51.6081a67.5658,67.5658,0,0,1,6.203-12.6873,12.9084,12.9084,0,0,1,3.8652-3.5847A10.4111,10.4111,0,0,0,99.4914,42.3846ZM99.3669,68.47a19.0315,19.0315,0,0,0-.5-3.5595l.8935.8249c.7675,1.6246,4.3563,9.9529.8037,16.5112l-.028.008.0082.0282c-.1616.296-.3329.59-.5254.878C94.259,91.8,89.7778,93.6376,84.8218,93.7387l-.0743.0007c-2.17,0-5.1074-1.9169-7.23-4.8558a12.8553,12.8553,0,0,0,4.8657.9475,16.6807,16.6807,0,0,0,6.04-1.2213C98.5632,84.6853,99.6322,74.3066,99.3669,68.47ZM75.2857,81.627q4.0516-3.1807,7.21-9.8087c.4892-1.0295,1.0175-2.31,1.5809-3.7619a12.4644,12.4644,0,0,1,2.7142,4.2118c1.0063,4.4491-.8134,7.4862-2.8512,8.845A7.9369,7.9369,0,0,1,75.2857,81.627Zm.4376,11.2052c2.7508,3.0176,6.1152,4.8035,9.0329,4.8035.0482,0,.096-.0007.1442-.0012a17.9768,17.9768,0,0,0,12.7269-5.3916c-1.3064,6.49-5.3569,10.5292-11.9323,11.7765-4.9945.9463-11.2376-3.3671-13.1306-4.7914l1.3561-8.715A19.56,19.56,0,0,0,75.7233,92.8322Zm26.2612-5.0982c1.1386,4.582,2.7489,11.6763,4.0823,19.8819-4.6887-.3741-7.7053-3.603-9.0281-5.3692l-.0077-.0111C99.8194,99.1944,101.8967,94.6131,101.9845,87.734Zm-6.51-19.0874c.3811,8.3937-2.5433,14.04-8.4579,16.3293a13.4585,13.4585,0,0,1-3.9935.9323,13.8111,13.8111,0,0,0,3.0779-1.5527c3.9163-2.6108,5.6791-7.6929,4.49-12.9473-.6136-2.7107-3.4628-5.89-4.9873-7.4377.2914-.797.5876-1.6147.8954-2.4633.5673-1.57,1.1655-3.218,1.785-4.89A15.1187,15.1187,0,0,1,95.4747,68.6466ZM84.048,56.8458,70.6573,44.9728l-.027-6.1212,14.975,13.82C85.07,54.0745,84.55,55.4742,84.048,56.8458ZM70.653,50.1765,82.6171,60.7838c-1.4125,3.8985-2.6388,7.2552-3.6394,9.3627-2.4584,5.174-5.2695,8.4511-8.38,9.7891l-.19-11.3527a1.9488,1.9488,0,0,0-3.897.0654L66.7,79.9264c-3.29-1.2065-6.2532-4.5413-8.8284-9.9625-1.0015-2.108-2.2268-5.4652-3.6394-9.3634l12.28-10.8879-.001.1419A2.33,2.33,0,0,0,68.73,51.8671h.0086A1.9425,1.9425,0,0,0,70.653,50.1765Zm.0984,35.355-2.1781,13.997L66.3961,85.5331a6.5172,6.5172,0,0,1,2.0074-.4059A5.01,5.01,0,0,1,70.7514,85.5315ZM48.4248,88.4277a16.6771,16.6771,0,0,0,6.04,1.2208,12.8779,12.8779,0,0,0,5.4851-1.22c-2.1357,3.1645-5.241,5.2548-7.5075,5.2548l-.0738-.0007c-4.9578-.1011-9.44-1.9386-15.1988-10.5784C32.72,76.43,36.6271,67.374,37.4275,65.68l.4718-.4356a17.3785,17.3785,0,0,0-.4164,3.0422C37.2171,74.1233,38.2871,84.501,48.4248,88.4277ZM52.29,97.5786c.0483.0009.0965.0017.1443.0017,2.9167,0,6.2811-1.7867,9.0319-4.8033a19.5434,19.5434,0,0,0,1.7618-2.2616L64.51,98.7542c-.0082.0116-.0193.02-.028.0319-.1862.267-4.6785,6.531-14.8982,4.7709-5.1171-.8826-7.7082-6.1586-8.9832-10.4319A17.6974,17.6974,0,0,0,52.29,97.5786ZM66.535,44.4856,52.8014,56.6624c-.4632-1.2651-.9417-2.5537-1.4328-3.8473L66.56,38.7961ZM52.7705,67.8677c.5635,1.4541,1.0922,2.7368,1.5814,3.7678q3.1456,6.6216,7.2108,9.8081a7.938,7.938,0,0,1-8.6533-.5133c-2.0392-1.3587-3.8584-4.3958-2.8511-8.8443A12.3587,12.3587,0,0,1,52.7705,67.8677Zm-6.5123,3.3579c-1.19,5.2544.5727,10.3362,4.49,12.9466a13.7656,13.7656,0,0,0,3.0778,1.553,13.4569,13.4569,0,0,1-3.994-.9311c-5.9145-2.29-8.8385-7.9376-8.4569-16.3311a12.767,12.767,0,0,1,7.522-11.1278c.5017,1.3648.989,2.7086,1.4555,3.9976.3068.8457.602,1.66.8915,2.4543C49.72,65.3352,46.8714,68.5144,46.2582,71.2256ZM34.6419,86.3016q.4625.6644.9234,1.2838a1.8117,1.8117,0,0,0-.0034.2163c.04.4776.7536,8.1262,4.6993,13.7733-.9359,1.6014-4.2125,6.3668-10.0431,6.4929.1124-.7188.2219-1.435.3425-2.162C31.9278,97.6854,33.55,90.6529,34.6419,86.3016ZM57.258,113.4728a26.9767,26.9767,0,0,1-2.581-5.766,18.2624,18.2624,0,0,0,10.5786-4.1578l1.3928,8.951a1.9488,1.9488,0,0,0,3.8512,0l1.3961-8.9743a26.772,26.772,0,0,0,10.3929,4.36c-.6489,3.3341-3.2925,11.679-13.5306,12.34C64.0409,120.53,60.1743,118.257,57.258,113.4728Zm28.9966-5.6022c.0555-.01.1119-.0125.1669-.0231a20.5233,20.5233,0,0,0,7.6132-3.0376c1.7449,2.9121,4.9646,9.3187,3.5771,15.0649a11.161,11.161,0,0,1-4.1507,6.1994,1.9164,1.9164,0,0,0-.2837.177,1.9936,1.9936,0,0,0-.2373.2236,18.19,18.19,0,0,1-2.4739,1.498c-9.1082,4.5847-15.9046-1.06-18.7625-4.2094C81.6489,121.83,85.4721,113.2188,86.2546,107.8706Zm24.8844,7.99c-.1732-1.441-.3319-2.9015-.5306-4.3034a74.92,74.92,0,0,0,9.331-5.4227A64.3725,64.3725,0,0,1,111.139,115.8605Zm21.2315-47.46a63.4689,63.4689,0,0,1-6.6767,28.2778,78.7289,78.7289,0,0,1-15.7,10.8212c-.8471-5.2811-1.8105-10.1246-2.7039-14.1818a51.07,51.07,0,0,0,24.8323-29.8107C132.2461,65.1278,132.3705,66.7487,132.3705,68.4006ZM68.4044,4.4344A64.0214,64.0214,0,0,1,130.4486,53.12a53.9027,53.9027,0,0,1-1.9408,8.9582,47.8466,47.8466,0,0,1-22.1206,27.2859c-.7116-3.0043-1.3171-5.3158-1.6953-6.7076,2.9047-6.925.3512-14.5068-.961-17.5974,1.0792-1.6451,3.0461-5.0281,3.294-8.1807a15.6442,15.6442,0,0,0-1.4776-8.031,40.8045,40.8045,0,0,1-2.2443-7.27,6.55,6.55,0,0,1,2.9134-7.2224,14.5042,14.5042,0,0,1,4.6216-2.1111,1.9483,1.9483,0,0,0-.4728-3.85c-.4747.0126-11.68.4028-17.1642,8.3052a65.8965,65.8965,0,0,0-6.065,12.0826L69.9829,32.9522a1.9119,1.9119,0,0,0-.5987-.3618c-.0251-.0125-.0444-.033-.0709-.0444a1.9463,1.9463,0,0,0-2.1063.3508L49.8451,48.9188a67.11,67.11,0,0,0-6.1977-12.4026c-5.4838-7.9026-16.69-8.2929-17.1642-8.3057a1.9258,1.9258,0,0,0-1.9866,1.71,1.9486,1.9486,0,0,0,1.5138,2.14c.372.082,9.07,2.0894,7.5355,9.333a40.8486,40.8486,0,0,1-2.2443,7.2694,15.651,15.651,0,0,0-1.4776,8.0317c.2687,3.4083,2.5438,7.0861,3.5357,8.5444-1.2384,2.9923-3.3548,9.559-1.3914,15.89-.3637,1.3-1.2306,4.4889-2.2654,8.97A47.6919,47.6919,0,0,1,7.2055,62.5989a53.61,53.61,0,0,1-1.5578-6.4937A64.057,64.057,0,0,1,68.4044,4.4344ZM28.8258,94.0414c-.8838,4.1257-1.8134,8.9746-2.6176,14.2294a78.0085,78.0085,0,0,1-13.833-9.0619A63.5373,63.5373,0,0,1,4.4344,68.4006c0-.5688.07-1.1193.085-1.6844A50.9942,50.9942,0,0,0,28.8258,94.0414Zm-10.183,14.4658a69.8311,69.8311,0,0,0,6.9836,3.8169c-.1385,1.0319-.2239,2.1289-.3483,3.1823A64.3514,64.3514,0,0,1,18.6428,108.5072ZM28.9107,118.62c.2273-2.2022.414-4.36.7314-6.66.1274.0029.2595.0138.3859.0138a14.1819,14.1819,0,0,0,6.8915-1.7522,19.5241,19.5241,0,0,0-.1259,11.3285,14.1866,14.1866,0,0,0,1.6055,3.3073A64.1352,64.1352,0,0,1,28.9107,118.62Zm39.4937,13.7467a64.035,64.035,0,0,1-7.95-.5478,17.8261,17.8261,0,0,0,7.3739-6.5764,23.2808,23.2808,0,0,0,8.3252,6.6071A64.0256,64.0256,0,0,1,68.4044,132.3664Z" style="fill: #15254b"/>
  </g>
</svg>
