<svg xmlns="http://www.w3.org/2000/svg" viewBox="0 0 472.1438 253.607">
  <title>birdsnest-logo-full-color-rgb</title>
  <g id="full-rgb">
    <path id="logoMark" d="M270.4346,124.0429c1.2567-.898,2.5154-1.7951,3.7069-2.7739a68.7673,68.7673,0,0,0,18.146-23.0958,68.1638,68.1638,0,1,0-121.682,2.68A68.8794,68.8794,0,0,0,187.08,120.9477c1.195.996,2.4589,1.908,3.7205,2.8222a68.41,68.41,0,0,0,9.6929,5.8585c1.5929.7915,3.2037,1.5443,4.8623,2.2122a67.8683,67.8683,0,0,0,7.8761,2.5887c1.5413.41,3.0841.8083,4.666,1.1117a67.18,67.18,0,0,0,26.2087-.0615c1.5669-.31,3.0928-.7263,4.6206-1.1424a67.8985,67.8985,0,0,0,8.1549-2.73c1.5525-.6433,3.0528-1.3809,4.5454-2.133A68.4423,68.4423,0,0,0,270.4346,124.0429Zm-7.7526-.2682a14.4411,14.4411,0,0,0,1.1154-2.985,20.0494,20.0494,0,0,0-.6609-10.5849,14.7645,14.7645,0,0,0,5.9319,1.3438c.3425,2.3743.6474,4.824.9118,7.3058A64.1359,64.1359,0,0,1,262.682,123.7747Zm-51.0858,4.4065c-4.6159-1.7189-7.5437-4.3575-8.701-7.8418-2.0021-6.026,1.5693-13.1707,2.8472-15.4347a12.2512,12.2512,0,0,0,5.5769,2.4922c.5634.0969,1.1095.1676,1.645.2255,1.4434,5.63,5.66,14.0388,13.671,16.0688C224.7191,126.5286,220.0463,131.3268,211.5962,128.1812ZM198.9793,35.1533a12.9128,12.9128,0,0,1,3.8647,3.5847c2.197,3.1649,4.3505,7.98,6.3323,13.0105l-10.952,10.1063a14.4391,14.4391,0,0,1-2.1183-5.4666,12.038,12.038,0,0,1,1.2181-6.2969,44.6254,44.6254,0,0,0,2.4305-7.89A10.4086,10.4086,0,0,0,198.9793,35.1533Zm62.91,7.2313a44.8009,44.8009,0,0,0,2.43,7.8908,12.03,12.03,0,0,1,1.2186,6.2956,13.9227,13.9227,0,0,1-1.9533,5.1777L252.5965,51.6081A67.5658,67.5658,0,0,1,258.8,38.9208a12.9072,12.9072,0,0,1,3.8652-3.5847A10.4111,10.4111,0,0,0,261.8889,42.3846ZM261.7645,68.47a19.0315,19.0315,0,0,0-.5-3.5595l.8934.8249c.7676,1.6246,4.3563,9.9529.8037,16.5112l-.0279.008.0082.0282c-.1616.296-.3329.59-.5254.878-5.76,8.6395-10.2414,10.4773-15.1973,10.5784l-.0743.0007c-2.1705,0-5.1075-1.9169-7.23-4.8558a12.8549,12.8549,0,0,0,4.8657.9475,16.6806,16.6806,0,0,0,6.04-1.2213C260.9607,84.6853,262.03,74.3066,261.7645,68.47ZM237.6833,81.627q4.0516-3.1807,7.21-9.8087c.4892-1.0295,1.0174-2.31,1.5809-3.7619a12.4623,12.4623,0,0,1,2.7141,4.2118c1.0064,4.4491-.8133,7.4862-2.8511,8.845A7.9369,7.9369,0,0,1,237.6833,81.627Zm.4375,11.2052c2.7508,3.0176,6.1153,4.8035,9.033,4.8035.0482,0,.096-.0007.1442-.0012a17.9765,17.9765,0,0,0,12.7268-5.3916c-1.3064,6.49-5.3568,10.5292-11.9322,11.7765-4.9946.9463-11.2376-3.3671-13.1307-4.7914l1.3561-8.715A19.56,19.56,0,0,0,238.1208,92.8322Zm26.2613-5.0982c1.1385,4.582,2.7489,11.6763,4.0823,19.8819-4.6887-.3741-7.7053-3.603-9.0281-5.3692l-.0077-.0111C262.217,99.1944,264.2943,94.6131,264.3821,87.734Zm-6.51-19.0874c.3811,8.3937-2.5434,14.04-8.4579,16.3293a13.4592,13.4592,0,0,1-3.9935.9323,13.8111,13.8111,0,0,0,3.0779-1.5527c3.9163-2.6108,5.6791-7.6929,4.49-12.9473-.6137-2.7107-3.4629-5.89-4.9873-7.4377.2913-.797.5876-1.6147.8953-2.4633.5674-1.57,1.1656-3.218,1.785-4.89A15.1188,15.1188,0,0,1,257.8723,68.6466ZM246.4456,56.8458l-13.3907-11.873-.027-6.1212,14.9749,13.82C247.4673,54.0745,246.9478,55.4742,246.4456,56.8458Zm-13.395-6.6693,11.9641,10.6073c-1.4126,3.8985-2.6389,7.2552-3.6394,9.3627-2.4585,5.174-5.27,8.4511-8.38,9.7891l-.19-11.3527a1.9488,1.9488,0,0,0-3.897.0654l.1891,11.2781c-3.29-1.2065-6.2532-4.5413-8.8284-9.9625-1.0015-2.108-2.2269-5.4652-3.6394-9.3634l12.28-10.8879-.0009.1419a2.33,2.33,0,0,0,2.2191,2.0126h.0087A1.9426,1.9426,0,0,0,233.0506,50.1765Zm.0984,35.355-2.1782,13.997-2.1772-13.9954a6.5178,6.5178,0,0,1,2.0074-.4059A5.0108,5.0108,0,0,1,233.149,85.5315Zm-22.3266,2.8962a16.6771,16.6771,0,0,0,6.04,1.2208,12.8784,12.8784,0,0,0,5.4852-1.22c-2.1357,3.1645-5.2411,5.2548-7.5075,5.2548l-.0738-.0007c-4.9579-.1011-9.44-1.9386-15.1988-10.5784-4.4494-6.6746-.5427-15.7306.2576-17.4247l.4718-.4356a17.3881,17.3881,0,0,0-.4163,3.0422C199.6147,74.1233,200.6847,84.501,210.8224,88.4277Zm3.8647,9.1509c.0482.0009.0965.0017.1442.0017,2.9168,0,6.2812-1.7867,9.032-4.8033a19.5543,19.5543,0,0,0,1.7618-2.2616l1.2823,8.2388c-.0082.0116-.0193.02-.028.0319-.1862.267-4.6786,6.531-14.8983,4.7709-5.117-.8826-7.7081-6.1586-8.9832-10.4319A17.6979,17.6979,0,0,0,214.6871,97.5786Zm14.2455-53.093L215.1989,56.6624c-.4631-1.2651-.9417-2.5537-1.4328-3.8473l15.1911-14.019ZM215.168,67.8677c.5635,1.4541,1.0923,2.7368,1.5814,3.7678q3.1456,6.6216,7.2108,9.8081a7.9378,7.9378,0,0,1-8.6532-.5133c-2.0392-1.3587-3.8584-4.3958-2.8511-8.8443A12.3582,12.3582,0,0,1,215.168,67.8677Zm-6.5122,3.3579c-1.19,5.2544.5726,10.3362,4.49,12.9466a13.7662,13.7662,0,0,0,3.0779,1.553,13.4562,13.4562,0,0,1-3.994-.9311c-5.9145-2.29-8.8385-7.9376-8.4569-16.3311a12.7668,12.7668,0,0,1,7.522-11.1278c.5017,1.3648.9889,2.7086,1.4554,3.9976.3069.8457.6021,1.66.8916,2.4543C212.1172,65.3352,209.269,68.5144,208.6558,71.2256ZM197.04,86.3016q.4625.6644.9234,1.2838a1.7707,1.7707,0,0,0-.0034.2163c.04.4776.7535,8.1262,4.6993,13.7733-.9359,1.6014-4.2126,6.3668-10.0431,6.4929.1124-.7188.2219-1.435.3425-2.162C194.3254,97.6854,195.9478,90.6529,197.04,86.3016Zm22.6161,27.1712a26.9667,26.9667,0,0,1-2.581-5.766,18.2627,18.2627,0,0,0,10.5786-4.1578l1.3928,8.951a1.9488,1.9488,0,0,0,3.8511,0l1.3962-8.9743a26.7713,26.7713,0,0,0,10.3929,4.36c-.6489,3.3341-3.2926,11.679-13.5306,12.34C226.4384,120.53,222.5718,118.257,219.6556,113.4728Zm28.9966-5.6022c.0554-.01.1119-.0125.1669-.0231a20.5223,20.5223,0,0,0,7.6131-3.0376c1.745,2.9121,4.9647,9.3187,3.5772,15.0649a11.1612,11.1612,0,0,1-4.1508,6.1994,1.9207,1.9207,0,0,0-.2836.177,1.9945,1.9945,0,0,0-.2374.2236,18.1836,18.1836,0,0,1-2.4739,1.498c-9.1081,4.5847-15.9045-1.06-18.7624-4.2094C244.0465,121.83,247.87,113.2188,248.6522,107.8706Zm24.8844,7.99c-.1732-1.441-.3319-2.9015-.5307-4.3034a74.9119,74.9119,0,0,0,9.3311-5.4227A64.3778,64.3778,0,0,1,273.5366,115.8605Zm21.2315-47.46a63.469,63.469,0,0,1-6.6768,28.2778A78.7289,78.7289,0,0,1,272.3918,107.5c-.8471-5.2811-1.81-10.1246-2.704-14.1818A51.07,51.07,0,0,0,294.52,63.5071C294.6436,65.1278,294.7681,66.7487,294.7681,68.4006ZM230.802,4.4344A64.0213,64.0213,0,0,1,292.8461,53.12a53.8926,53.8926,0,0,1-1.9408,8.9582,47.8458,47.8458,0,0,1-22.1206,27.2859c-.7116-3.0043-1.317-5.3158-1.6952-6.7076,2.9046-6.925.3512-14.5068-.961-17.5974,1.0792-1.6451,3.046-5.0281,3.294-8.1807a15.6441,15.6441,0,0,0-1.4777-8.031,40.7975,40.7975,0,0,1-2.2442-7.27,6.55,6.55,0,0,1,2.9133-7.2224,14.5042,14.5042,0,0,1,4.6217-2.1111,1.9483,1.9483,0,0,0-.4728-3.85c-.4747.0126-11.68.4028-17.1642,8.3052a65.8965,65.8965,0,0,0-6.065,12.0826L232.3805,32.9522a1.913,1.913,0,0,0-.5987-.3618c-.0251-.0125-.0444-.033-.0709-.0444a1.9463,1.9463,0,0,0-2.1063.3508l-17.362,16.022a67.11,67.11,0,0,0-6.1977-12.4026c-5.4837-7.9026-16.69-8.2929-17.1642-8.3057a1.9258,1.9258,0,0,0-1.9866,1.71,1.9488,1.9488,0,0,0,1.5139,2.14c.3719.082,9.07,2.0894,7.5354,9.333a40.8416,40.8416,0,0,1-2.2442,7.2694,15.651,15.651,0,0,0-1.4777,8.0317c.2687,3.4083,2.5438,7.0861,3.5357,8.5444-1.2384,2.9923-3.3548,9.559-1.3913,15.89-.3637,1.3-1.2307,4.4889-2.2655,8.97A47.6923,47.6923,0,0,1,169.603,62.5989a53.59,53.59,0,0,1-1.5577-6.4937A64.0568,64.0568,0,0,1,230.802,4.4344Zm-39.5786,89.607c-.8838,4.1257-1.8134,8.9746-2.6176,14.2294a78.0119,78.0119,0,0,1-13.8331-9.0619,63.5373,63.5373,0,0,1-7.9407-30.8083c0-.5688.07-1.1193.0849-1.6844A50.9946,50.9946,0,0,0,191.2234,94.0414ZM181.04,108.5072a69.8334,69.8334,0,0,0,6.9835,3.8169c-.1384,1.0319-.2238,2.1289-.3483,3.1823A64.3409,64.3409,0,0,1,181.04,108.5072ZM191.3083,118.62c.2272-2.2022.4139-4.36.7313-6.66.1274.0029.26.0138.386.0138a14.1815,14.1815,0,0,0,6.8914-1.7522,19.5249,19.5249,0,0,0-.1259,11.3285,14.1866,14.1866,0,0,0,1.6055,3.3073A64.14,64.14,0,0,1,191.3083,118.62Zm39.4937,13.7467a64.0337,64.0337,0,0,1-7.95-.5478,17.8267,17.8267,0,0,0,7.3739-6.5764,23.2808,23.2808,0,0,0,8.3252,6.6071A64.027,64.027,0,0,1,230.802,132.3664Z" style="fill: #15254b"/>
    <g id="type">
      <path id="type_CompoundPathItem_" data-name="type &lt;CompoundPathItem&gt;" d="M52.3941,182.2453c0-5.56-3.3354-11.9543-9.82-13.7149a.4545.4545,0,0,1-.0945-.8346c5.4678-2.6866,7.9686-8.8959,7.9686-13.066,0-10.5636-8.06-17.3289-20.3843-17.3289H1.3363a1.42,1.42,0,0,0-1.02,2.3164c1.9461,2.3183,2.595,5.5606,2.595,9.4536V190.4c0,3.8912-.6489,7.1353-2.595,9.4517a1.42,1.42,0,0,0,1.02,2.3166H31.4531C43.4056,202.168,52.3941,194.3838,52.3941,182.2453ZM16.8105,150.7386a1.4257,1.4257,0,0,1,1.3923-1.3906h10.006c3.9843,0,7.6,2.4095,7.6,7.2284,0,4.7259-3.6153,7.1353-7.6,7.1353H18.2028a1.4256,1.4256,0,0,1-1.3923-1.3906Zm1.3923,39.3823a1.4254,1.4254,0,0,1-1.3923-1.3889V176.4989a1.4253,1.4253,0,0,1,1.3923-1.3889H29.601c3.9844,0,8.1545,2.2235,8.1545,7.5053s-4.17,7.5056-8.1545,7.5056Z" style="fill: #15254b"/>
      <path id="type_PathItem_" data-name="type &lt;PathItem&gt;" d="M63.6641,199.96a1.64,1.64,0,0,0-.1925,1.7471,1.542,1.542,0,0,0,1.3855.8937h14.26a1.5413,1.5413,0,0,0,1.3855-.8954,1.6387,1.6387,0,0,0-.1959-1.7454l-.0067-.0085c-1.4126-1.6812-2.0682-4.1059-2.0682-7.6271v-34.57c0-3.5229.6556-5.9475,2.0749-7.6372a1.6356,1.6356,0,0,0,.1959-1.7438,1.54,1.54,0,0,0-1.3855-.897h-14.26a1.5405,1.5405,0,0,0-1.3855.8954,1.6415,1.6415,0,0,0,.1992,1.7538c1.4126,1.6813,2.0716,4.1059,2.0716,7.6288v34.57C65.7424,195.847,65.0834,198.27,63.6641,199.96Z" style="fill: #15254b"/>
      <path id="type_CompoundPathItem_2" data-name="type &lt;CompoundPathItem&gt;" d="M142.6924,199.909c-4.0079-1.7066-6.3091-5.7331-8.5331-9.6277-2.264-3.9656-4.6023-8.063-8.8033-9.5566,8.5636-.8735,13.1828-8.8284,13.1828-15.9181,0-10.0417-7.1911-17.3306-17.0991-17.3306H94.7771a1.5415,1.5415,0,0,0-1.3855.8954,1.6414,1.6414,0,0,0,.2,1.7538c1.4125,1.6813,2.0715,4.1059,2.0715,7.6288v34.57c0,3.5229-.659,5.9459-2.0783,7.6356a1.64,1.64,0,0,0-.1929,1.7471,1.543,1.543,0,0,0,1.3855.8937h14.26a1.54,1.54,0,0,0,1.3856-.8954,1.6408,1.6408,0,0,0-.2027-1.7539c-1.4125-1.6812-2.0676-4.1059-2.0676-7.6271v-9.6123a.7586.7586,0,0,1,.7294-.73h2.7136c3.0012,0,5.0047,3.81,7.3228,8.2234,3.3393,6.3513,7.492,14.2554,16.7073,14.2554a16.0669,16.0669,0,0,0,7.2315-1.7437l.0309-.0152a1.4952,1.4952,0,0,0,.7-1.4328A1.5222,1.5222,0,0,0,142.6924,199.909Zm-23.3445-28.1714H108.8822a.7587.7587,0,0,1-.7294-.73v-11.86a.7587.7587,0,0,1,.7294-.73h10.4657a6.8334,6.8334,0,0,1,6.62,6.6994A6.628,6.628,0,0,1,119.3479,171.7376Z" style="fill: #15254b"/>
      <path id="type_CompoundPathItem_3" data-name="type &lt;CompoundPathItem&gt;" d="M175.7752,147.476H153.7626a1.5406,1.5406,0,0,0-1.3855.8954,1.6414,1.6414,0,0,0,.1993,1.7538c1.4125,1.6813,2.0715,4.1059,2.0715,7.6288v34.57c0,3.5229-.659,5.9459-2.0783,7.6356a1.64,1.64,0,0,0-.1925,1.7471,1.5421,1.5421,0,0,0,1.3855.8937h22.0126a27.564,27.564,0,0,0,0-55.1245Zm-.8515,43.7954h-7.0559a.7591.7591,0,0,1-.73-.73V159.5366a.7591.7591,0,0,1,.73-.73h7.0559c8.7121,0,15.5346,7.13,15.5346,16.2324S183.6358,191.2714,174.9237,191.2714Z" style="fill: #15254b"/>
      <path id="type_PathItem_2" data-name="type &lt;PathItem&gt;" d="M241.6242,171.8558c-.9021-.4156-1.8149-.8245-2.7373-1.237-2.1525-.9612-4.3794-1.9564-6.5455-3.0969-5.738-2.9486-5.738-4.6855-5.738-5.4273,0-3.3909,4.4065-4.2967,7.0087-4.2967,5.3424,0,11.3206,4.05,14.46,8.0411a1.46,1.46,0,0,0,1.277.5625,1.6889,1.6889,0,0,0,1.2437-.5423,1.3945,1.3945,0,0,0,.3517-1.09l-1.1627-13.4056c-.1013-1.3163-.7-2.1036-1.5949-2.1036a3.1374,3.1374,0,0,0-1.426.39,2.35,2.35,0,0,1-1.0541.3059,8.8406,8.8406,0,0,1-2.058-.7266,25.4272,25.4272,0,0,0-10.0364-2.45c-12.257,0-19.5768,5.8984-19.5768,15.78,0,10.5093,8.81,14.3584,16.5824,17.7546l1.0744.4477c3.2037,1.31,9.1612,3.746,9.1612,6.9884,0,3.2221-3.0547,5.3038-7.7825,5.3038-5.7543,0-12.8209-4.4-13.7568-10.7055a1.6942,1.6942,0,0,0-1.7473-1.3872,1.7514,1.7514,0,0,0-.9832.2094,8.9648,8.9648,0,0,0-4.41,8.0562c.0777,8.2389,8.7826,14.6915,19.8127,14.6915,14.1254,0,21.5934-5.8851,21.5934-17.02C253.58,179.0265,249.0043,175.3061,241.6242,171.8558Z" style="fill: #15254b"/>
      <path id="type_PathItem_3" data-name="type &lt;PathItem&gt;" d="M314.2851,157.754c0-3.5229.659-5.9475,2.0715-7.6288l.0067-.0084a1.6376,1.6376,0,0,0,.193-1.7454,1.541,1.541,0,0,0-1.3855-.8954H300.91a1.5405,1.5405,0,0,0-1.3855.8954,1.649,1.649,0,0,0,.1992,1.7538c1.4126,1.6813,2.0716,4.1059,2.0716,7.6288v19.223c0,.0711-.0372.1083-.1284.0711l-32.0016-29.9118a1.6395,1.6395,0,0,0-2.7508,1.1608v44.027c0,3.5212-.6561,5.9459-2.0754,7.6356a1.6389,1.6389,0,0,0-.1958,1.7454,1.5417,1.5417,0,0,0,1.3855.8954h14.26a1.5415,1.5415,0,0,0,1.3855-.8937,1.6434,1.6434,0,0,0-.1993-1.7556c-1.4125-1.6779-2.0681-4.1025-2.0681-7.6271V172.79c0-.0424.0743-.1032.2-.0728l32.0017,30.221a1.5768,1.5768,0,0,0,1.1592.4376,1.5589,1.5589,0,0,0,1.5168-1.5949Z" style="fill: #15254b"/>
      <path id="type_PathItem_4" data-name="type &lt;PathItem&gt;" d="M367.2287,201.2284l1.6253-10.1379a1.4712,1.4712,0,0,0-.2971-1.2468,1.6744,1.6744,0,0,0-1.291-.5881,1.3314,1.3314,0,0,0-.8549.2265c-1.8689,1.22-4.2578,1.7893-7.5157,1.7893H344.7092a.7591.7591,0,0,1-.73-.73v-9.9992a.7591.7591,0,0,1,.73-.73h9.9215c2.7981,0,4.8358.5509,6.2045,1.6559a1.3166,1.3166,0,0,0,.9291.3582,1.38,1.38,0,0,0,1.3619-1.3619V167.8292a1.38,1.38,0,0,0-1.3619-1.3616,1.2742,1.2742,0,0,0-.892.3295c-1.4058,1.1354-3.4469,1.686-6.2416,1.686h-9.9215a.7594.7594,0,0,1-.73-.7315v-8.215a.7591.7591,0,0,1,.73-.73H357.5c3.2573,0,5.6468.5692,7.5152,1.7893a1.5114,1.5114,0,0,0,2.1188-.2957,1.5345,1.5345,0,0,0,.3247-1.2978l-1.6219-10.1393a1.5976,1.5976,0,0,0-1.5916-1.3872H330.604a1.5406,1.5406,0,0,0-1.3855.8954,1.6414,1.6414,0,0,0,.1993,1.7538c1.4125,1.6813,2.0715,4.1059,2.0715,7.6288v34.57c0,3.5229-.659,5.9459-2.0783,7.6356a1.64,1.64,0,0,0-.1925,1.7471,1.5421,1.5421,0,0,0,1.3855.8937h35.0332A1.5933,1.5933,0,0,0,367.2287,201.2284Z" style="fill: #15254b"/>
      <path id="type_PathItem_5" data-name="type &lt;PathItem&gt;" d="M399.3018,193.054c-5.7554,0-12.8214-4.4-13.7573-10.7055a1.6941,1.6941,0,0,0-1.7469-1.3872,1.753,1.753,0,0,0-.9837.2094,8.9647,8.9647,0,0,0-4.41,8.0562c.0777,8.2389,8.7825,14.6915,19.8127,14.6915,14.1254,0,21.5938-5.8851,21.5938-17.02,0-7.8722-4.5758-11.5926-11.9564-15.0429-.9021-.4156-1.8144-.8245-2.7373-1.237-2.1526-.9612-4.3794-1.9564-6.5455-3.0969-5.7346-2.9469-5.7346-4.6855-5.7346-5.4273,0-3.3909,4.4069-4.2967,7.0087-4.2967,5.339,0,11.3172,4.05,14.4568,8.0411a1.46,1.46,0,0,0,1.2774.5625,1.6893,1.6893,0,0,0,1.2432-.5423,1.3923,1.3923,0,0,0,.3517-1.09l-1.1626-13.4056c-.1013-1.3163-.7-2.1036-1.5949-2.1036a3.14,3.14,0,0,0-1.4261.39,2.3511,2.3511,0,0,1-1.0545.3059,8.8566,8.8566,0,0,1-2.0581-.7266,25.4193,25.4193,0,0,0-10.0329-2.45c-12.26,0-19.5792,5.8984-19.5792,15.78,0,10.5093,8.81,14.3584,16.5819,17.7546l1.0748.4477c3.2033,1.31,9.1612,3.746,9.1612,6.9884C407.0842,190.9723,404.029,193.054,399.3018,193.054Z" style="fill: #15254b"/>
      <path id="type_PathItem_6" data-name="type &lt;PathItem&gt;" d="M470.1685,138.5055a1.3916,1.3916,0,0,0-1.3889-1.2046H424.8558a1.397,1.397,0,0,0-1.3923,1.2046l-1.9432,12.14a1.3978,1.3978,0,0,0,1.3889,1.6675,1.4808,1.4808,0,0,0,.74-.2769c2.41-1.5765,5.4673-2.2254,9.2659-2.2254h5.5623a1.4253,1.4253,0,0,1,1.3889,1.3906V190.4c0,3.8912-.6488,7.1353-2.5954,9.4517a1.42,1.42,0,0,0,1.02,2.3166h17.0523a1.4184,1.4184,0,0,0,1.0174-2.3166c-1.9471-2.3164-2.5954-5.5605-2.5954-9.4517V151.2015a1.4256,1.4256,0,0,1,1.3922-1.3906h5.5585c3.7987,0,6.8567.6489,9.2665,2.2254a1.4885,1.4885,0,0,0,.7429.2769,1.4,1.4,0,0,0,1.3894-1.6675Z" style="fill: #15254b"/>
      <path id="type_PathItem_7" data-name="type &lt;PathItem&gt;" d="M146.6821,223.1718a.3273.3273,0,0,0-.3049.3049v29.8254a.3274.3274,0,0,0,.3049.3049h9.2625a.2984.2984,0,0,0,.3049-.3049v-2.8695a.2984.2984,0,0,0-.3049-.3049h-5.7852a.325.325,0,0,1-.301-.303V239.607a.3269.3269,0,0,1,.301-.3049h5.133a.3257.3257,0,0,0,.3049-.3049v-2.8694a.3254.3254,0,0,0-.3049-.303h-5.133a.3269.3269,0,0,1-.301-.3049V226.954a.325.325,0,0,1,.301-.303h5.7852a.2984.2984,0,0,0,.3049-.3049v-2.8694a.2984.2984,0,0,0-.3049-.3049Z" style="fill: #15254b"/>
      <path id="type_CompoundPathItem_4" data-name="type &lt;CompoundPathItem&gt;" d="M171.5675,223.1718h-4.2608a.292.292,0,0,0-.3049.2605l-4.35,29.8273a.3363.3363,0,0,0,.3049.3474h2.9138a.3728.3728,0,0,0,.3049-.2606l.9571-6.6516a.3227.3227,0,0,1,.3049-.2625h3.9984a.3262.3262,0,0,1,.3049.2625l.9571,6.6516a.3728.3728,0,0,0,.3049.2606H175.96a.3333.3333,0,0,0,.301-.3474l-4.3881-29.8273A.292.292,0,0,0,171.5675,223.1718Zm-.6523,20.0013h-2.9563a.3115.3115,0,0,1-.3048-.3493l1.563-12.13c.0463-.1737.0888-.218.22-.218s.1737.0443.2161.218l1.5669,12.13A.3115.3115,0,0,1,170.9152,243.1731Z" style="fill: #15254b"/>
      <path id="type_PathItem_8" data-name="type &lt;PathItem&gt;" d="M180.93,223.1718a.33.33,0,0,0-.3049.3049v2.8694a.33.33,0,0,0,.3049.3049h3.5236a.2968.2968,0,0,1,.3049.303v26.3481a.3274.3274,0,0,0,.3049.3049h2.8675a.2984.2984,0,0,0,.3049-.3049V226.954a.3254.3254,0,0,1,.3049-.303h3.52a.2984.2984,0,0,0,.3049-.3049v-2.8694a.2984.2984,0,0,0-.3049-.3049Z" style="fill: #15254b"/>
      <path id="type_PathItem_9" data-name="type &lt;PathItem&gt;" d="M208.6679,223.3454a.6548.6548,0,0,0-.4786-.1736h-6.3449a.66.66,0,0,0-.4785.1736L199.32,225.389a.6527.6527,0,0,0-.1737.4785v12.0008a.6528.6528,0,0,0,.1737.4786l1.6094,1.6074a.6523.6523,0,0,0,.4785.1737h5.3492a.3081.3081,0,0,1,.2585.1312l.2625.2605a.3851.3851,0,0,1,.1312.2606v8.6971a.3849.3849,0,0,1-.1312.2605l-.2625.2605a.3061.3061,0,0,1-.2585.1293h-3.4812a.3062.3062,0,0,1-.2586-.1293l-.2624-.2605a.385.385,0,0,1-.1313-.2605v-4.3495a.2936.2936,0,0,0-.301-.303h-2.8714a.3254.3254,0,0,0-.3049.303v5.7833a.6527.6527,0,0,0,.1737.4785l2.0455,2.0436a.6606.6606,0,0,0,.4785.1737h6.3449a.6549.6549,0,0,0,.4786-.1737l2.0454-2.0436a.6523.6523,0,0,0,.1737-.4785V238.91a.6452.6452,0,0,0-.1737-.4767l-1.6093-1.6093a.6529.6529,0,0,0-.4786-.1737h-5.3491a.3082.3082,0,0,1-.2586-.1312l-.2624-.2605a.3852.3852,0,0,1-.1313-.26v-8.6953a.3889.3889,0,0,1,.1313-.2624l.2624-.26a.3064.3064,0,0,1,.2586-.1293h3.4812a.3064.3064,0,0,1,.2585.1293l.2625.26a.3887.3887,0,0,1,.1312.2624v4.3477a.3249.3249,0,0,0,.301.3029h2.8714a.2968.2968,0,0,0,.3049-.3029v-5.7834a.6523.6523,0,0,0-.1737-.4785Z" style="fill: #15254b"/>
      <path id="type_PathItem_10" data-name="type &lt;PathItem&gt;" d="M237.3162,234.8252a.3382.3382,0,0,0-.22-.0888h-1.91a.3378.3378,0,0,0-.22.0888l-2.389,2.3909a.3331.3331,0,0,0-.0887.2161v1.9143a.3329.3329,0,0,0,.0887.2161l2.389,2.3928a.3467.3467,0,0,0,.22.0869h1.91a.3472.3472,0,0,0,.22-.0869l2.3889-2.3928a.3144.3144,0,0,0,.0888-.2161v-1.9143a.3146.3146,0,0,0-.0888-.2161Z" style="fill: #15254b"/>
      <path id="type_CompoundPathItem_5" data-name="type &lt;CompoundPathItem&gt;" d="M269.3569,223.1718h-4.2608a.292.292,0,0,0-.3049.2605L260.4417,253.26a.3363.3363,0,0,0,.3048.3474H263.66a.3729.3729,0,0,0,.3049-.2606l.9571-6.6516a.3227.3227,0,0,1,.3049-.2625h3.9983a.3261.3261,0,0,1,.3049.2625l.9572,6.6516a.3726.3726,0,0,0,.3049.2606h2.9563a.3333.3333,0,0,0,.301-.3474l-4.3881-29.8273A.2921.2921,0,0,0,269.3569,223.1718Zm-.6523,20.0013h-2.9563a.3116.3116,0,0,1-.3049-.3493l1.5631-12.13c.0463-.1737.0888-.218.22-.218s.1736.0443.2161.218l1.5669,12.13A.3115.3115,0,0,1,268.7046,243.1731Z" style="fill: #15254b"/>
      <path id="type_PathItem_11" data-name="type &lt;PathItem&gt;" d="M284.59,250.1277a.3249.3249,0,0,1-.301-.303v-26.348a.33.33,0,0,0-.3049-.3049h-2.8714a.3273.3273,0,0,0-.3049.3049v29.8254a.3274.3274,0,0,0,.3049.3049h9.0425a.2984.2984,0,0,0,.3049-.3049v-2.8695a.2984.2984,0,0,0-.3049-.3049Z" style="fill: #15254b"/>
      <path id="type_PathItem_12" data-name="type &lt;PathItem&gt;" d="M297.5652,223.1718a.3273.3273,0,0,0-.3049.3049v29.8254a.3274.3274,0,0,0,.3049.3049h9.2625a.2984.2984,0,0,0,.3049-.3049v-2.8695a.2984.2984,0,0,0-.3049-.3049h-5.7852a.3249.3249,0,0,1-.301-.303V239.607a.3268.3268,0,0,1,.301-.3049h5.133a.3257.3257,0,0,0,.3049-.3049v-2.8694a.3254.3254,0,0,0-.3049-.303h-5.133a.3268.3268,0,0,1-.301-.3049V226.954a.3249.3249,0,0,1,.301-.303h5.7852a.2984.2984,0,0,0,.3049-.3049v-2.8694a.2984.2984,0,0,0-.3049-.3049Z" style="fill: #15254b"/>
      <path id="type_PathItem_13" data-name="type &lt;PathItem&gt;" d="M323.5466,223.3454a.6545.6545,0,0,0-.4785-.1736h-6.3449a.66.66,0,0,0-.4785.1736l-2.0455,2.0436a.6527.6527,0,0,0-.1737.4785v12.0008a.6528.6528,0,0,0,.1737.4786l1.6094,1.6074a.6521.6521,0,0,0,.4785.1737h5.3491a.3082.3082,0,0,1,.2586.1312l.2625.2605a.3851.3851,0,0,1,.1312.2606v8.6971a.3849.3849,0,0,1-.1312.2605l-.2625.2605a.3062.3062,0,0,1-.2586.1293h-3.4811a.3062.3062,0,0,1-.2586-.1293l-.2624-.2605a.3846.3846,0,0,1-.1313-.2605v-4.3495a.2936.2936,0,0,0-.301-.303H314.33a.3254.3254,0,0,0-.3049.303v5.7833a.6527.6527,0,0,0,.1737.4785l2.0455,2.0436a.6606.6606,0,0,0,.4785.1737h6.3449a.6545.6545,0,0,0,.4785-.1737l2.0455-2.0436a.6527.6527,0,0,0,.1737-.4785V238.91a.6456.6456,0,0,0-.1737-.4767l-1.6093-1.6093a.6529.6529,0,0,0-.4786-.1737h-5.3491a.3082.3082,0,0,1-.2586-.1312l-.2624-.2605a.3848.3848,0,0,1-.1313-.26v-8.6953a.3885.3885,0,0,1,.1313-.2624l.2624-.26a.3064.3064,0,0,1,.2586-.1293h3.4811a.3064.3064,0,0,1,.2586.1293l.2625.26a.3887.3887,0,0,1,.1312.2624v4.3477a.3249.3249,0,0,0,.301.3029h2.8714a.2968.2968,0,0,0,.3049-.3029v-5.7834a.6527.6527,0,0,0-.1737-.4785Z" style="fill: #15254b"/>
      <path id="type_CompoundPathItem_6" data-name="type &lt;CompoundPathItem&gt;" d="M135.4156,236.1905H97.5809c-1.0825-4.3435-3.171-5.83-5.3872-7.3729l-.5427-.3782c-2.718-1.9218-6.4665-2.4225-9.6374-2.8468a1.6884,1.6884,0,0,0-1.8743,2.0242c-3.4744-1.9849-7.987-2.2418-11.6722-2.4514a1.6874,1.6874,0,0,0-1.7527,1.9994c-3.8642-2.0983-8.5485-2.48-13.05-2.5754a1.7076,1.7076,0,0,0-1.482.82,1.6557,1.6557,0,0,0-.11,1.3547c-4.3221-1.887-9.8024-.8812-13.9411.2646a48.9141,48.9141,0,0,1-5.2758-1.6231c-1.5525-.5483-3.1551-1.1151-4.763-1.5382a1.6873,1.6873,0,1,0-.8592,3.2633c1.4733.3874,2.9418.9068,4.4967,1.4565,1.5076.5326,3.0629,1.0357,4.6361,1.46.0357.0389.0429.0936.0825.1293.1872.1715.3541.3411.5379.5124a16.9976,16.9976,0,0,0-7.6344-.9827c-4.9593.5876-10.0035,4.0289-11.85,5.4014-.0337-.0012-.07-.0214-.1032-.02l-11.5222.1609a1.6879,1.6879,0,0,0-1.6634,1.7106,1.6239,1.6239,0,0,0,1.7107,1.6634l10.8077-.1517c1.8188,1.757,7.91,7.0711,15.0541,7.07a13.9814,13.9814,0,0,0,1.8187-.1172,23.0225,23.0225,0,0,0,3.5545-.7736c-.4226.4962-.8447.9933-1.2524,1.5088-2.0618.4744-4.171.8872-6.2271,1.276l-2.0981.3994a1.6876,1.6876,0,0,0,.6431,3.3133l2.0822-.398c2.3325-.4416,4.7441-.9,7.1095-1.4687.4645.0275.9257.0545,1.4207.0876,3.4609.2279,7.6.4995,11.0133-.3558a1.6851,1.6851,0,0,0,1.3918,2.5c6.6005.3334,11.4325-.1872,14.6531-1.5789a1.6885,1.6885,0,0,0,1.6084,2.1984c.0232,0,.0473,0,.0709-.0012,1.64-.07,9.0783-.5392,13.5436-3.3729q-.031.1325-.0632.2648a1.6864,1.6864,0,0,0,2.0349,2.0431c3.91-.953,10.4334-4.0147,12.516-7.29a10.1263,10.1263,0,0,0,1.786-4.2109h38.0247a1.687,1.687,0,1,0,0-3.374Zm-56.3414-5.26a13.4049,13.4049,0,0,1,4.0948,5.26h-9.32c-.1341-.3411-.2489-.6771-.3965-1.0189q-1.2577-3.2286-2.5308-6.4635C73.8577,228.9507,76.9525,229.4488,79.0742,230.93Zm-13.7067-.6525a12.0737,12.0737,0,0,1,4.8382,5.9126H60.6031c-.0685-.1088-.1332-.2178-.2-.3269-1.3441-2.8694-2.6119-5.4289-3.8643-7.78A20.442,20.442,0,0,1,65.3675,230.2779Zm-14.34-.3163c2.7127,1.3318,4.0736,3.6009,5.6212,6.2289H46.63a64.44,64.44,0,0,0-5.6955-6.4054C43.916,229.1037,48.115,228.5315,51.0279,229.9616ZM33.1662,242.078c-5.2411.6759-10.2463-2.7535-12.7838-4.8754,2.0464-1.414,5.8393-3.7287,9.3648-4.1464,5.5768-.6629,10.9375,3.0877,13.1258,4.8626A18.9074,18.9074,0,0,1,33.1662,242.078ZM50.6454,245.17c-2.5834,1.2483-6.69,1.1349-10.2935.9135a87.2763,87.2763,0,0,1,6.4239-6.4411c.0242-.0227.0338-.054.057-.0777H56.87c-.2292.2878-.46.5763-.6841.8607A15.232,15.232,0,0,1,50.6454,245.17Zm18.4754-2.7281a9.044,9.044,0,0,1-3.3582,3.7482c-1.4733.9912-4.6814,2.0166-11.2477,2.0416,1.3315-1.8426,2.7624-3.7363,4.3177-5.7121.2214-.2781.4429-.5589.6667-.84.1245-.1568.248-.315.3744-.473q.3559-.4451.7226-.8963a1.6535,1.6535,0,0,0,.0946-.1814,1.6376,1.6376,0,0,0,.5712-.5645h9.1487c-.0984.222-.2089.4564-.3011.6694C69.772,240.9826,69.445,241.7181,69.1208,242.4417ZM83.35,239.861a10.8229,10.8229,0,0,1-2.8811,5.111c-1.7425,1.8928-6.1629,3.0883-10.3359,3.5707.6436-1.5052,1.318-3.0407,2.0271-4.6315.3059-.6182.58-1.2521.8621-1.91.0555-.1319.1134-.2663.1742-.4021q.3162-.71.6455-1.4352a1.6589,1.6589,0,0,0,.137-.6h9.469C83.4189,239.6564,83.3779,239.772,83.35,239.861Zm9.4077,2.1036c-1.0651,1.6764-4.4865,3.6811-7.6946,4.9292.6652-2.6087,1.3122-5.02,1.9615-7.3252l.0058-.0041h6.9083A8.3737,8.3737,0,0,1,92.7576,241.9646Zm-5.63-5.7741q-1.0088-2.5317-2.0065-5.0691l-.6961-1.7647a13.2481,13.2481,0,0,1,5.28,1.8373l.5587.3927c1.8472,1.2849,3.048,2.1253,3.83,4.6038Z" style="fill: #15254b"/>
      <path id="type_CompoundPathItem_7" data-name="type &lt;CompoundPathItem&gt;" d="M466.2676,235.2481l-11.5217-.1609c-.0328-.0012-.07.019-.1033.02-1.8477-1.3725-6.8909-4.8138-11.8512-5.4014a16.9973,16.9973,0,0,0-7.6339.9827c.1833-.1713.3512-.3409.5384-.5124.0391-.0357.0463-.09.082-.1293,1.5732-.4243,3.128-.9274,4.6361-1.46,1.5553-.55,3.0238-1.0691,4.4971-1.4565a1.6873,1.6873,0,1,0-.86-3.2633c-1.6075.4231-3.21.99-4.763,1.5382a48.8872,48.8872,0,0,1-5.2763,1.6231c-4.1382-1.1458-9.6186-2.1516-13.9406-.2646a1.656,1.656,0,0,0-.11-1.3547,1.707,1.707,0,0,0-1.4815-.82c-4.502.095-9.1864.4771-13.0506,2.5754a1.6886,1.6886,0,0,0-1.7531-1.9994c-3.6848.21-8.1978.4665-11.6718,2.4514a1.6894,1.6894,0,0,0-1.8747-2.0242c-3.171.4243-6.9189.925-9.6369,2.8468l-.5432.3782c-2.2163,1.5432-4.3047,3.0294-5.3868,7.3729H336.7279a1.687,1.687,0,1,0,0,3.374h38.0243a10.1428,10.1428,0,0,0,1.7869,4.2109c2.0821,3.2752,8.6064,6.3369,12.5155,7.29a1.6864,1.6864,0,0,0,2.0353-2.0431l-.0636-.2648c4.4653,2.8337,11.9043,3.3029,13.5435,3.3729.0242.0012.0473.0012.0714.0012a1.6885,1.6885,0,0,0,1.608-2.1984c3.2211,1.3917,8.0531,1.9123,14.6536,1.5789a1.6851,1.6851,0,0,0,1.3913-2.5c3.4137.8553,7.5524.5837,11.0133.3558.495-.0331.9566-.06,1.4207-.0876,2.3654.5685,4.777,1.0271,7.109,1.4687l2.0831.398a1.6875,1.6875,0,0,0,.6426-3.3133l-2.098-.3994c-2.0561-.3888-4.1648-.8016-6.2267-1.276-.4081-.5155-.83-1.0126-1.2528-1.5088a23.0328,23.0328,0,0,0,3.5545.7736,13.9834,13.9834,0,0,0,1.8192.1172c7.1433.0014,13.2348-5.3127,15.0536-7.07l10.8077.1517a1.6236,1.6236,0,0,0,1.7107-1.6634A1.6879,1.6879,0,0,0,466.2676,235.2481Zm-45.1516-5.2865c2.9129-1.43,7.1119-.8579,10.0933-.1765a64.39,64.39,0,0,0-5.6955,6.4054h-10.02C417.0424,233.5625,418.4029,231.2934,421.116,229.9616Zm-14.3395.3163a20.439,20.439,0,0,1,8.8274-2.1943c-1.2515,2.3511-2.52,4.9106-3.8633,7.78-.0666.1091-.1322.2181-.2.3269h-9.6032A12.0749,12.0749,0,0,1,406.7765,230.2779Zm-13.7072.6525c2.1222-1.4816,5.2165-1.98,8.153-2.2223q-1.2729,3.2305-2.53,6.4635c-.1481.3418-.2625.6778-.3966,1.0189h-9.32A13.4037,13.4037,0,0,1,393.0693,230.93Zm-13.6835,11.0342a8.3471,8.3471,0,0,1-1.18-2.4h6.9079l.0053.0041c.65,2.3056,1.2967,4.7165,1.9615,7.3252C383.8724,245.6457,380.4505,243.641,379.3858,241.9646Zm7.6363-10.8432q-.9957,2.5389-2.0064,5.0691H378.049c.7825-2.4785,1.9833-3.3189,3.8305-4.6038l.5586-.3927a13.2486,13.2486,0,0,1,5.28-1.8373Zm4.6525,13.8506a10.8269,10.8269,0,0,1-2.881-5.111c-.028-.089-.0685-.2046-.0984-.2965h9.4695a1.6694,1.6694,0,0,0,.137.6q.3278.7254.646,1.4352c.0608.1358.1186.27.1736.4021.2823.6576.5563,1.2915.8621,1.91.7092,1.5908,1.3841,3.1263,2.0272,4.6315C397.8376,248.06,393.4172,246.8648,391.6746,244.972Zm14.7063,1.2179a9.0433,9.0433,0,0,1-3.3582-3.7482c-.3242-.7236-.6508-1.4591-.9885-2.2078-.0926-.213-.2026-.4474-.3015-.6694h9.1482a1.6406,1.6406,0,0,0,.5722.5645,1.496,1.496,0,0,0,.0945.1814c.2451.3.4849.6.7222.8963.1264.158.25.3162.3739.473.2243.2808.4458.5616.6672.84,1.5553,1.9758,2.9867,3.87,4.3177,5.7121C411.0623,248.2065,407.8542,247.1811,406.3809,246.19Zm15.1172-1.02a15.232,15.232,0,0,1-5.5406-4.7446c-.2234-.2844-.4549-.5729-.6836-.8607h10.0373c.0232.0237.0323.055.0569.0777a87.4521,87.4521,0,0,1,6.424,6.4411C428.1884,246.3047,424.0815,246.4181,421.4981,245.17Zm17.4792-3.0918a18.9032,18.9032,0,0,1-9.7068-4.1592c2.1887-1.7749,7.5494-5.5255,13.1258-4.8626,3.5255.4177,7.3184,2.7324,9.3653,4.1464C449.2235,239.3245,444.2184,242.7539,438.9773,242.078Z" style="fill: #15254b"/>
    </g>
  </g>
</svg>
